<svg xmlns="http://www.w3.org/2000/svg" viewBox="0 0 523 523"><defs><style>.cls-1{fill:#fff;}.cls-2{fill:#041019;}.cls-3{fill:#034592;}.cls-4{fill:#ffe934;}.cls-5{fill:#e11837;}</style></defs><g id="Layer_2" data-name="Layer 2"><g id="Layer_1-2" data-name="Layer 1"><path class="cls-1" d="M261.6,520.49h-.09c-142.76,0-258.94-116.09-259-258.78A258.93,258.93,0,0,1,261.39,2.51c142.87,0,259.05,116.09,259.1,258.77.06,143-116.07,259.15-258.89,259.21"/><path class="cls-2" d="M261.6,523h-.09C117.37,523,.06,405.79,0,261.71A261.44,261.44,0,0,1,261.39,0C405.64,0,523,117.21,523,261.28,523.06,405.63,405.81,522.93,261.6,523M261.5,4.81A256.7,256.7,0,0,0,4.67,261.51c0,141.64,115.28,256.7,256.84,256.7v3.49l.09-3.49c141.63-.08,256.8-115.24,256.74-256.7C518.29,119.86,403.07,4.81,261.5,4.81"/><path class="cls-3" d="M261.42,66.62c-107.63,0-194.84,87.29-194.8,194.88v.16c0,107.58,87.33,194.76,195,194.72s194.84-87.3,194.8-194.88v-.16c0-107.59-87.33-194.77-195-194.72m.16,385.1h-.08c-104.85,0-190.18-85.27-190.22-190.07A190.17,190.17,0,0,1,261.42,71.28c104.94,0,190.26,85.26,190.3,190.06,0,105-85.25,190.33-190.14,190.38m-.08-6.63c-101.26,0-183.67-82.29-183.71-183.59A183.58,183.58,0,0,1,261.51,77.92c101.26,0,183.67,82.28,183.7,183.58S362.88,445,261.58,445.09"/><path class="cls-4" d="M261.48,212.51a46.26,46.26,0,0,0-46.25,46.26v0a46.27,46.27,0,0,0,92.53,0v0a46.26,46.26,0,0,0-46.28-46.23"/><polygon class="cls-4" points="253.91 213.16 242.02 216.8 201.31 116.49 211.62 96.39 231.43 107.26 253.91 213.16"/><polygon class="cls-4" points="267.72 212.93 255.28 212.93 261.5 115.9 267.72 212.93"/><polygon class="cls-4" points="229.48 225.59 221.66 235.26 131.82 174.86 129.13 152.43 151.63 150.37 229.48 225.59"/><polygon class="cls-4" points="216.4 249.41 215.34 261.8 107.08 262.06 92.29 244.98 109.78 230.68 216.4 249.41"/><polygon class="cls-4" points="218.79 276.15 224.84 287.01 135.28 347.82 113.46 341.95 119.95 320.31 218.79 276.15"/><polygon class="cls-4" points="240.74 217.53 230.44 224.49 181.23 140.63 240.74 217.53"/><polygon class="cls-4" points="221.11 236.55 216.48 248.09 128.76 206.13 221.11 236.55"/><polygon class="cls-4" points="215.62 263.02 218.22 275.18 122.05 289.42 215.62 263.02"/><polygon class="cls-4" points="269.09 213.16 280.98 216.8 321.69 116.49 311.38 96.39 291.57 107.26 269.09 213.16"/><polygon class="cls-4" points="293.52 225.59 301.34 235.26 391.18 174.86 393.87 152.43 371.37 150.37 293.52 225.59"/><polygon class="cls-4" points="306.6 249.41 307.66 261.8 415.92 262.06 430.71 244.98 413.22 230.68 306.6 249.41"/><polygon class="cls-4" points="304.21 276.15 298.16 287.01 387.72 347.82 409.54 341.95 403.05 320.31 304.21 276.15"/><polygon class="cls-4" points="282.26 217.53 292.56 224.49 341.77 140.63 282.26 217.53"/><polygon class="cls-4" points="301.89 236.55 306.52 248.09 394.24 206.13 301.89 236.55"/><polygon class="cls-4" points="307.38 263.02 304.77 275.18 400.95 289.42 307.38 263.02"/><path class="cls-5" d="M238.62,376.16v0a22.88,22.88,0,0,1,45.76,0v0a22.79,22.79,0,0,1-7.32,16.76h95L261.5,298.37,151,392.9h95A22.8,22.8,0,0,1,238.62,376.16Z"/><path class="cls-1" d="M238.5,430h-4.21v-15.9a14.66,14.66,0,0,1-5.45,3.21v-3.84a12.2,12.2,0,0,0,3.58-2.05,7.65,7.65,0,0,0,2.66-3.52h3.42Zm16-14.3a4.15,4.15,0,0,1-.83,2.81,2.57,2.57,0,0,1-2,1,2.65,2.65,0,0,1-2.1-1,4.86,4.86,0,0,1-.84-3.13,4.77,4.77,0,0,1,.77-3,2.45,2.45,0,0,1,2-.91,2.82,2.82,0,0,1,2.17,1.11,4.81,4.81,0,0,1,.93,3.18M247,429a6.18,6.18,0,0,0,4.18,1.36,7.2,7.2,0,0,0,5.81-2.67Q259.2,425,259.2,419t-2.15-8.53a6.82,6.82,0,0,0-5.5-2.59,6.73,6.73,0,0,0-5.06,2.06,8.2,8.2,0,0,0-.11,10.6,5.94,5.94,0,0,0,4.48,2,5,5,0,0,0,4-1.84q-.26,3.76-1.17,5a2.73,2.73,0,0,1-2.22,1.22,2.38,2.38,0,0,1-1.67-.61,3,3,0,0,1-.78-1.85l-4.09.45A6.62,6.62,0,0,0,247,429m24.63-13.32a4.16,4.16,0,0,1-.84,2.81,2.57,2.57,0,0,1-2.05,1,2.62,2.62,0,0,1-2.1-1,4.86,4.86,0,0,1-.84-3.13,4.7,4.7,0,0,1,.77-3,2.45,2.45,0,0,1,1.94-.91,2.81,2.81,0,0,1,2.18,1.11,4.86,4.86,0,0,1,.94,3.18M262,424.87a6.66,6.66,0,0,0,2,4.11,6.22,6.22,0,0,0,4.18,1.36,7.26,7.26,0,0,0,5.83-2.67q2.24-2.67,2.23-8.69t-2.14-8.53a6.82,6.82,0,0,0-5.5-2.59,6.73,6.73,0,0,0-5.06,2.06,8.2,8.2,0,0,0-.11,10.6,5.93,5.93,0,0,0,4.48,2,5,5,0,0,0,4-1.84q-.25,3.76-1.17,5a2.72,2.72,0,0,1-2.23,1.22,2.35,2.35,0,0,1-1.66-.61,2.91,2.91,0,0,1-.78-1.85l-4.09.45m20.25-3.05,5.05-7.53v7.53Zm9.14,8.14v-4.43h2.74v-3.71h-2.74v-14h-3.54l-9.56,14v3.69h9V430Z"/><path class="cls-2" d="M149.27,436.39c1.52,1,5.11,4.18,1.67,9.58s-7.86,3.51-9.39,2.54-5.11-4.18-1.66-9.58S147.75,435.42,149.27,436.39Zm-6.42,10.08c1.3.83,3.63,1.19,5.69-2s.73-5.18-.57-6-3.63-1.19-5.68,2S141.55,445.65,142.85,446.47Z"/><path class="cls-2" d="M152.32,454.53l-2.5-1.38,6.6-11.94,8.5,4.7L163.75,448l-6-3.32-1.49,2.7,5.25,2.9-1.16,2.11-5.26-2.9Z"/><path class="cls-2" d="M163,460.15l-2.56-1.24,5.93-12.28,8.74,4.22-1,2.18-6.18-3-1.34,2.77,5.41,2.62-1.06,2.17-5.4-2.62Z"/><path class="cls-2" d="M173.75,465.09,171.13,464l5.45-12.52,2.61,1.14Z"/><path class="cls-2" d="M188.14,461a2.77,2.77,0,0,0-2-3.28c-1.28-.49-3.48-.35-4.86,3.25-.88,2.29-.76,4.69,1.49,5.55a2.91,2.91,0,0,0,3.74-1.31l2.66,1c-1.59,2.56-4.14,3.8-7.33,2.58-3.39-1.3-5-4.52-3.26-8.92s5.14-5.74,8.42-4.48c3.82,1.46,4.36,4.68,3.78,6.61Z"/><path class="cls-2" d="M203.06,463.68l-6.91-2.15-.85,2.73,6.34,2-.71,2.3-6.35-2-1.05,3.37,7.21,2.25-.72,2.3-9.88-3.08,4.07-13,9.57,3Z"/><path class="cls-2" d="M217.23,464.31c1.77.38,6.25,2.14,4.9,8.4s-6.15,6-7.92,5.64-6.24-2.14-4.89-8.4S215.47,463.93,217.23,464.31ZM214.72,476c1.5.32,3.82-.15,4.63-3.88s-1.12-5.12-2.62-5.44-3.82.15-4.63,3.88S213.22,475.67,214.72,476Z"/><path class="cls-2" d="M226.39,480.26l-2.81-.43,2-13.48,9.6,1.45-.36,2.38-6.78-1-.46,3,5.94.9-.36,2.38-5.94-.89Z"/><path class="cls-2" d="M247.13,482.55l-2.85-.2.79-11.2-4.11-.29.16-2.41,11.07.78-.17,2.4-4.11-.28Z"/><path class="cls-2" d="M256.33,476.82l-.1,6.12-2.85-.05.22-13.64,2.85.05-.09,5.17,5.32.08.09-5.17,2.85.05-.22,13.64-2.85-.05.1-6.11Z"/><path class="cls-2" d="M277.37,471.24l-7.23.36.14,2.87,6.64-.33.12,2.41-6.64.33.18,3.53,7.55-.38.12,2.41-10.34.52-.68-13.63,10-.5Z"/><path class="cls-2" d="M289.71,481.24l-2.83.38-1.83-13.52,6.18-.83c2.62-.36,4.43,1.11,4.78,3.76a4.18,4.18,0,0,1-3.72,4.9l-3.24.43Zm1.64-7.56a1.86,1.86,0,0,0,1.82-2.4c-.18-1.32-1-1.76-2.74-1.53l-2.24.31.54,4Z"/><path class="cls-2" d="M297.14,466.42l6.76-1.34c3.56-.71,4.73,1.79,5,2.94a3.26,3.26,0,0,1-1.44,3.6c1.2.27,1.87.56,2.37,3.05.39,2,.48,2.44,1.12,2.55l.07.35-3.09.62a9.16,9.16,0,0,1-.83-2.65c-.36-1.82-.62-2.51-2.68-2.1l-2.89.58,1,5.23-2.74.54Zm7.18,4.69c1.45-.29,2.06-.93,1.8-2.25a1.71,1.71,0,0,0-2.3-1.37l-3.49.69.71,3.58Z"/><path class="cls-2" d="M320.67,463.48l-7,1.84.73,2.77,6.43-1.69.62,2.33-6.43,1.7.9,3.41,7.31-1.92.61,2.33-10,2.64-3.47-13.19,9.7-2.56Z"/><path class="cls-2" d="M327.17,468.81c.25.72,1.06,2,3.43,1.19,1.28-.42,2.6-1.19,2.15-2.56-.33-1-1.39-1-2.87-.84l-1.5.13c-2.25.2-4.43.39-5.36-2.46-.47-1.44-.53-4.24,3.67-5.62,4-1.3,5.89,1,6.43,2.53l-2.6.85c-.26-.55-.93-1.85-3.29-1.08-1,.34-2.13,1.12-1.75,2.29.33,1,1.23,1,1.82.91l3.41-.26c1.91-.15,3.77,0,4.54,2.37,1.28,3.9-2.58,5.54-3.72,5.92-4.73,1.55-6.44-.91-7-2.52Z"/><path class="cls-2" d="M341.59,468.21l-2.66,1-4.81-12.76,2.66-1Z"/><path class="cls-2" d="M339.23,454.55l5.53-2.38c4.22-1.81,6.64,1.41,7.66,3.78,1.16,2.69,1.76,7-2.37,8.8l-5.43,2.34Zm7,9.27,2.55-1.1c2.13-.91,1.92-3.37,1-5.43-1.6-3.7-3.49-3.24-4.6-2.76l-2.52,1.08Z"/><path class="cls-2" d="M361.7,446.73,355.24,450l1.29,2.56,5.94-3,1.08,2.16-5.93,3,1.6,3.15,6.74-3.41,1.09,2.15-9.24,4.67-6.15-12.17,8.95-4.53Z"/><path class="cls-2" d="M370,439.19l2.29-1.35,6.91,11.77-2.46,1.44L367,445.48l0,0,4.92,8.39-2.29,1.34-6.9-11.76,2.59-1.52,9.47,5.45,0,0Z"/><path class="cls-2" d="M386.82,444.54l-2.36,1.59-6.25-9.33-3.43,2.3-1.34-2,9.22-6.17,1.34,2-3.43,2.3Z"/><path class="cls-2" d="M175.55,472.57c1.67.67,5.78,3.18,3.38,9.11s-7.1,4.88-8.77,4.2-5.78-3.18-3.38-9.12S173.88,471.89,175.55,472.57Zm-4.48,11.07c1.42.58,3.79.51,5.22-3s-.22-5.23-1.65-5.81-3.79-.51-5.22,3S169.64,483.07,171.07,483.64Z"/><path class="cls-2" d="M181.8,489.86l-2.7-.92L183.48,476l9.19,3.12-.77,2.28-6.5-2.2-1,2.91,5.68,1.93-.77,2.28-5.69-1.92Z"/><path class="cls-2" d="M201.72,495.81,199,495.1l2.81-10.87-4-1,.61-2.34,10.73,2.78-.6,2.34-4-1Z"/><path class="cls-2" d="M211.86,491.9l-1.2,6-2.8-.56L210.55,484l2.79.56-1,5.07,5.21,1,1-5.06,2.79.56-2.68,13.37-2.79-.56,1.2-6Z"/><path class="cls-2" d="M233.57,490.36l-7.17-1-.4,2.85,6.59.93-.34,2.39-6.59-.94-.5,3.5,7.49,1.07-.34,2.39-10.25-1.46L224,486.56l9.93,1.41Z"/><path class="cls-2" d="M243.73,502.57l-2.84-.18.86-13.62,6.22.4c2.64.16,4.12,1.95,3.95,4.63a4.16,4.16,0,0,1-4.61,4.06l-3.27-.2Zm3.1-7.1a1.86,1.86,0,0,0,2.26-2c.08-1.33-.62-1.92-2.39-2l-2.25-.15-.26,4Z"/><path class="cls-2" d="M256.63,497l-.1,6.12-2.85,0,.22-13.64,2.85.05-.08,5.16,5.32.09.08-5.17,2.85.05-.22,13.64-2.85,0,.1-6.12Z"/><path class="cls-2" d="M270.75,503l-2.85.09-.42-13.64,2.84-.09Z"/><path class="cls-2" d="M276.58,500.27l6.77-.45.16,2.46-9.6.65L273,489.32l2.84-.19Z"/><path class="cls-2" d="M288.49,501.73l-2.84.29-1.41-13.56,2.83-.3Z"/><path class="cls-2" d="M294.46,501l-2.82.4-1.94-13.5,6.16-.88c2.62-.38,4.44,1.07,4.82,3.72a4.18,4.18,0,0,1-3.69,4.92l-3.23.47Zm1.58-7.58a1.85,1.85,0,0,0,1.8-2.41c-.19-1.31-1-1.75-2.75-1.5l-2.24.32.57,4Z"/><path class="cls-2" d="M307.27,498.91l-2.79.56-2.67-13.38,6.11-1.21c2.59-.52,4.49.83,5,3.45a4.18,4.18,0,0,1-3.41,5.12l-3.21.64Zm1.17-7.65a1.85,1.85,0,0,0,1.67-2.5c-.26-1.3-1.09-1.7-2.82-1.35l-2.22.44.78,3.93Z"/><path class="cls-2" d="M319.72,496.2l-2.77.66-3.18-13.26,2.77-.67Z"/><path class="cls-2" d="M327.19,480.06l2.56-.73,3.73,13.12-2.75.78-8-7.84h0l2.65,9.36-2.56.73-3.72-13.13,2.89-.82,7.8,7.67h0Z"/><path class="cls-2" d="M342.49,477.53l-6.83,2.37.94,2.71,6.28-2.18.79,2.28-6.28,2.18,1.16,3.33,7.14-2.47.79,2.28-9.78,3.39-4.47-12.89,9.47-3.28Z"/><path class="cls-2" d="M349.39,482.37c.31.69,1.21,1.88,3.51.94,1.25-.51,2.51-1.37,2-2.71-.4-1-1.46-.86-2.93-.63l-1.48.24c-2.23.36-4.39.7-5.52-2.07-.58-1.41-.84-4.2,3.26-5.87,3.87-1.58,5.94.52,6.59,2.06l-2.53,1c-.3-.54-1.06-1.78-3.36-.84-1,.41-2,1.26-1.58,2.41.4,1,1.3.86,1.87.77l3.39-.5c1.89-.29,3.76-.23,4.69,2,1.55,3.8-2.18,5.71-3.29,6.16-4.6,1.89-6.48-.44-7.12-2Z"/><path class="cls-2" d="M118.25,407.12a17.56,17.56,0,0,1,4,5.91,18.08,18.08,0,0,1,1.39,7.12,20.23,20.23,0,0,1-1.67,7.6,23.94,23.94,0,0,1-5,7.38,25.27,25.27,0,0,1-7.27,5.35,20.74,20.74,0,0,1-7.76,2,18,18,0,0,1-7.51-1.13,18.88,18.88,0,0,1-6.56-4.19,18.34,18.34,0,0,1-3.41-4.35,20.66,20.66,0,0,1-1.89-4.75l-2.21.59-1.65-1.61,10-10.65,1.69,1.65a33.24,33.24,0,0,0-2.22,4.28,17.71,17.71,0,0,0-1.39,4.53,10.52,10.52,0,0,0,.22,4.49,8.55,8.55,0,0,0,2.35,3.82,11.24,11.24,0,0,0,4.59,2.72,11.8,11.8,0,0,0,5.54.26,18.12,18.12,0,0,0,6-2.44,31.55,31.55,0,0,0,6.28-5.12,24.55,24.55,0,0,0,4.29-5.85,18.79,18.79,0,0,0,2-6.11,13.78,13.78,0,0,0-.46-5.78,11.53,11.53,0,0,0-3.08-4.91,12.37,12.37,0,0,0-3.59-2.46,11.44,11.44,0,0,0-3.8-1,14.94,14.94,0,0,0-3.82.3,16.35,16.35,0,0,0-3.73,1.29l-.83-2.25q6-2.65,10.76-1.67A17.66,17.66,0,0,1,118.25,407.12Z"/><path class="cls-2" d="M57.32,390.71a20,20,0,0,1,3.08-7.41,24.38,24.38,0,0,1,6.29-6.38,24.08,24.08,0,0,1,8.1-3.88,19.76,19.76,0,0,1,8-.43,18.76,18.76,0,0,1,7.09,2.58,20,20,0,0,1,8.89,12.61,18.22,18.22,0,0,1,0,7.64,20.28,20.28,0,0,1-3.14,7.26,24.46,24.46,0,0,1-6.09,6.18,23.85,23.85,0,0,1-8.13,3.9,20.68,20.68,0,0,1-8,.44,18.53,18.53,0,0,1-7.18-2.6,19.7,19.7,0,0,1-8.8-12.35A18.37,18.37,0,0,1,57.32,390.71Zm26.07-13.37a19.06,19.06,0,0,0-6.2,1.54,34,34,0,0,0-6.44,3.71,33.64,33.64,0,0,0-5.81,5.16,19.31,19.31,0,0,0-3.47,5.44,11.52,11.52,0,0,0-.79,5.46,10.72,10.72,0,0,0,2.07,5.24,10.47,10.47,0,0,0,4.71,3.86,12.28,12.28,0,0,0,5.74.75,20.07,20.07,0,0,0,6.07-1.71,35.15,35.15,0,0,0,6.23-3.58,34.77,34.77,0,0,0,5.65-5,19,19,0,0,0,3.45-5.37,11.7,11.7,0,0,0,1-5.49A11.66,11.66,0,0,0,89,378.27,11.2,11.2,0,0,0,83.39,377.34Z"/><path class="cls-2" d="M63.56,320.7l7.18,16.58-1.87.81c-.28-.59-.68-1.34-1.19-2.23a6.2,6.2,0,0,0-1.29-1.75,3.8,3.8,0,0,0-1.67-.71,3.45,3.45,0,0,0-1.79.33L35.65,345.55l.17.39,37.5-1.05.57,1.32L46.56,372.53l.15.35,22.38-9.71a24.61,24.61,0,0,0,4.77-2.55,5,5,0,0,0,1.89-2.31,6.55,6.55,0,0,0,0-2.86,16.12,16.12,0,0,0-.5-2.61l1.88-.81,6.56,15.14-1.88.82a20.3,20.3,0,0,0-1.47-2.33A5.28,5.28,0,0,0,78.6,364a4.23,4.23,0,0,0-2.83-.29,29.09,29.09,0,0,0-5.27,1.88l-19.19,8.32a8.54,8.54,0,0,0-2.55,1.57,4.68,4.68,0,0,0-1.23,1.89,5.7,5.7,0,0,0-.19,2.46,11.43,11.43,0,0,0,.63,2.53l-1.88.81L40.55,370.4,64,347.46l-27.52,1a25.72,25.72,0,0,0-3.09.32,13.84,13.84,0,0,0-2.05.43L26.08,337,28,336.2A17.66,17.66,0,0,0,29,338a14.33,14.33,0,0,0,1.12,1.5,2.13,2.13,0,0,0,1.59.76,4.42,4.42,0,0,0,1.75-.38l27-11.72a3.81,3.81,0,0,0,1.42-1,2.94,2.94,0,0,0,.58-1.7,6.64,6.64,0,0,0-.24-1.9,16.33,16.33,0,0,0-.58-2Z"/><path class="cls-2" d="M56.42,268.48l1.46,17.76-2,.3q-.18-1-.57-2.46a6.29,6.29,0,0,0-.81-2A3.74,3.74,0,0,0,53.05,281a3.54,3.54,0,0,0-1.81-.15l-29.4,4.44.06.43,36.52,8.59.22,1.42L25.47,314.12l.06.37,24.12-3.64a24.64,24.64,0,0,0,5.26-1.25,5,5,0,0,0,2.42-1.75,6.53,6.53,0,0,0,.75-2.76,16.25,16.25,0,0,0,.18-2.65l2-.31,2.47,16.32-2,.31a22.67,22.67,0,0,0-.84-2.63,5.1,5.1,0,0,0-1.27-2,4.19,4.19,0,0,0-2.65-1,28.89,28.89,0,0,0-5.59.46L29.7,316.68a8.63,8.63,0,0,0-2.87.87,4.68,4.68,0,0,0-1.66,1.51,5.62,5.62,0,0,0-.82,2.34,11.34,11.34,0,0,0,0,2.6l-2,.3-2.08-13.78L48.8,294.36l-26.87-6.05a26.94,26.94,0,0,0-3.07-.49,14.31,14.31,0,0,0-2.1-.1l-2-13.18,2-.31A18.06,18.06,0,0,0,18.06,278a2.1,2.1,0,0,0,1.34,1.14,4.28,4.28,0,0,0,1.79.08l29.14-4.4a10,10,0,0,0,2.49-.72,2.94,2.94,0,0,0,1.09-1.42,6.82,6.82,0,0,0,.38-1.88,15.73,15.73,0,0,0,.09-2.12Z"/><path class="cls-2" d="M56.85,247.63,56.4,266l-2,0q0-.78-.12-2.25a7.88,7.88,0,0,0-.3-2.08,2.81,2.81,0,0,0-1-1.41,3.21,3.21,0,0,0-1.79-.47L21.56,259a4,4,0,0,0-1.69.28,2.59,2.59,0,0,0-1.18,1.47A15.3,15.3,0,0,0,18,263a14.54,14.54,0,0,0-.41,2.13l-2-.05.45-18.4,2.05.05a18.48,18.48,0,0,0,.16,2.14,16.43,16.43,0,0,0,.42,2.17,2.32,2.32,0,0,0,1.09,1.5,3.89,3.89,0,0,0,1.72.41l29.58.73a3.34,3.34,0,0,0,1.69-.38,2.81,2.81,0,0,0,1.2-1.4,13.18,13.18,0,0,0,.56-2,15.52,15.52,0,0,0,.36-2.31Z"/><path class="cls-2" d="M41.77,218.18a9.66,9.66,0,0,1,3.4-1.45,11.8,11.8,0,0,1,4,0,11.37,11.37,0,0,1,8.27,5.23,14.6,14.6,0,0,1,2.06,10.34,18.42,18.42,0,0,1-1.62,5.3,20.92,20.92,0,0,1-2.72,4.38l1.91,1.53-.33,2.28-13.92-1.6.34-2.31a30.74,30.74,0,0,0,4.87-1,16.52,16.52,0,0,0,4.23-2,11.8,11.8,0,0,0,3.18-3.08,10.32,10.32,0,0,0,1.66-4.46,10.52,10.52,0,0,0,0-3.51A6,6,0,0,0,56,225.24a6.1,6.1,0,0,0-2-1.68,9.24,9.24,0,0,0-2.86-.86,8.18,8.18,0,0,0-4.73.71A8.61,8.61,0,0,0,42.63,227q-1,1.75-2.24,4t-2.29,3.89a13.56,13.56,0,0,1-4.8,4.74,10.56,10.56,0,0,1-6.78.95,10,10,0,0,1-4.17-1.56,11.36,11.36,0,0,1-3.18-3.19,12.24,12.24,0,0,1-1.76-4.24,13.49,13.49,0,0,1-.16-4.83,13.81,13.81,0,0,1,1.57-4.88,23.81,23.81,0,0,1,2.58-3.75l-1.77-1.44.33-2.29,13.46,1.71-.33,2.31c-1.6.2-3.14.45-4.63.77a16.21,16.21,0,0,0-4.11,1.49,9.47,9.47,0,0,0-3.07,2.62,9,9,0,0,0-1.61,4.19,6.67,6.67,0,0,0,1.08,4.87,5.57,5.57,0,0,0,4,2.52,7.44,7.44,0,0,0,4.53-.6,9.14,9.14,0,0,0,3.35-3.15q1.29-2,2.31-3.85c.68-1.27,1.38-2.49,2.12-3.67a29.39,29.39,0,0,1,2.15-3A12.87,12.87,0,0,1,41.77,218.18Z"/><path class="cls-2" d="M50.45,186.7a9.47,9.47,0,0,1,3.57-.94,11.8,11.8,0,0,1,4,.55,11.38,11.38,0,0,1,7.42,6.39A14.55,14.55,0,0,1,66,203.23a18.44,18.44,0,0,1-2.37,5,21.33,21.33,0,0,1-3.33,3.94L61.92,214l-.66,2.21-13.53-3.62.67-2.23a31.2,31.2,0,0,0,5-.28,16.46,16.46,0,0,0,4.47-1.33,11.38,11.38,0,0,0,3.59-2.58,10.27,10.27,0,0,0,2.3-4.17,10.72,10.72,0,0,0,.49-3.48,5.8,5.8,0,0,0-2.47-4.67A8.84,8.84,0,0,0,59,192.54a8.2,8.2,0,0,0-4.78,0,8.59,8.59,0,0,0-4.26,3c-.83,1.06-1.77,2.27-2.8,3.65s-2,2.54-2.83,3.51a13.67,13.67,0,0,1-5.44,4,10.59,10.59,0,0,1-6.86,0,10,10,0,0,1-3.89-2.15,11.29,11.29,0,0,1-2.68-3.63,12.21,12.21,0,0,1-1.12-4.45,13.55,13.55,0,0,1,.54-4.8,13.9,13.9,0,0,1,2.28-4.59,23.1,23.1,0,0,1,3.09-3.33L28.75,182l.66-2.21,13.07,3.66-.67,2.24q-2.41-.06-4.68.09a15.72,15.72,0,0,0-4.29.87,9.38,9.38,0,0,0-3.42,2.14,8.86,8.86,0,0,0-2.2,3.91,6.65,6.65,0,0,0,.35,5,5.56,5.56,0,0,0,3.56,3.08,7.42,7.42,0,0,0,4.56.07,9.14,9.14,0,0,0,3.78-2.63,43.5,43.5,0,0,0,2.85-3.47c.86-1.16,1.73-2.26,2.63-3.32a30,30,0,0,1,2.58-2.7A12.28,12.28,0,0,1,50.45,186.7Z"/><path class="cls-2" d="M76.86,172.42l-7.29,16.9-1.88-.81c.17-.49.42-1.2.73-2.13a8.37,8.37,0,0,0,.51-2,2.84,2.84,0,0,0-.4-1.68,3.17,3.17,0,0,0-1.48-1.1L39.86,169.83a4.2,4.2,0,0,0-1.68-.38,2.62,2.62,0,0,0-1.63.93,15.38,15.38,0,0,0-1.46,1.74A13.45,13.45,0,0,0,33.91,174L32,173.14l7.29-16.91,1.88.81a18,18,0,0,0-.65,2.05,15.44,15.44,0,0,0-.42,2.17,2.24,2.24,0,0,0,.45,1.79,3.91,3.91,0,0,0,1.44,1l27.17,11.71a3.27,3.27,0,0,0,1.71.29,2.87,2.87,0,0,0,1.64-.85,14.42,14.42,0,0,0,1.24-1.61,15,15,0,0,0,1.2-2Z"/><path class="cls-2" d="M61.64,126.53a20,20,0,0,1,8-.13A24.59,24.59,0,0,1,78,129.61a24.21,24.21,0,0,1,6.79,5.88,19.64,19.64,0,0,1,3.59,7.18,18.58,18.58,0,0,1,.47,7.53,19,19,0,0,1-2.58,7.24,19.32,19.32,0,0,1-5.42,5.95,18.13,18.13,0,0,1-7,3,20.08,20.08,0,0,1-7.92,0,24.08,24.08,0,0,1-8.09-3.11A23.7,23.7,0,0,1,51,157.45a20.79,20.79,0,0,1-3.6-7.15,18.52,18.52,0,0,1-.48-7.62,19.24,19.24,0,0,1,2.56-7.21,19.49,19.49,0,0,1,5.25-5.8A18.48,18.48,0,0,1,61.64,126.53Zm22.68,18.56A19.2,19.2,0,0,0,80.43,140a34.26,34.26,0,0,0-6-4.43,33.91,33.91,0,0,0-7-3.26,19.17,19.17,0,0,0-6.38-1,11.52,11.52,0,0,0-5.31,1.46,10.9,10.9,0,0,0-4,4,10.52,10.52,0,0,0-1.65,5.86,12.36,12.36,0,0,0,1.61,5.56,20.53,20.53,0,0,0,4,4.89,35.21,35.21,0,0,0,5.77,4.27,34.2,34.2,0,0,0,6.82,3.2,19.29,19.29,0,0,0,6.3,1A11.69,11.69,0,0,0,80,160.24a10.74,10.74,0,0,0,4.12-4.11,10.87,10.87,0,0,0,1.61-5.51A11.3,11.3,0,0,0,84.32,145.09Z"/><path class="cls-2" d="M93.31,84.09A13.24,13.24,0,0,0,92,86.25a8.93,8.93,0,0,0-.91,2.39,4.07,4.07,0,0,0,1.15,2.87,30.27,30.27,0,0,0,3.65,3.71L118.34,115l-1.65,1.88-41.48-3.55L91,127.3a26,26,0,0,0,4.37,3.27,5.06,5.06,0,0,0,2.94.76,6.65,6.65,0,0,0,2.7-1.27,16.25,16.25,0,0,0,2.24-1.67l1.53,1.35L93.72,142.32,92.19,141a16.29,16.29,0,0,0,1.31-2.33,6.94,6.94,0,0,0,.84-2.33,4.14,4.14,0,0,0-.93-2.67,29.07,29.07,0,0,0-4-4l-15.1-13.32a8.36,8.36,0,0,0-2.3-1.41,5,5,0,0,0-2.35-.42,8.72,8.72,0,0,0-3.08,1,10.34,10.34,0,0,0-2.45,1.66l-1.53-1.35L70.34,107l38.57,3.39L94.33,97.56a25.21,25.21,0,0,0-4.42-3.29,4.39,4.39,0,0,0-2.79-.69,9.8,9.8,0,0,0-2.54,1.27,15.21,15.21,0,0,0-2.27,1.7L80.77,95.2l11-12.46Z"/><path class="cls-2" d="M143.32,51.41a20,20,0,0,1,7.24,3.45,24.48,24.48,0,0,1,6.05,6.61,24.2,24.2,0,0,1,3.47,8.29,19.74,19.74,0,0,1,0,8,18.77,18.77,0,0,1-2.94,6.95,19.22,19.22,0,0,1-5.55,5.33A19.42,19.42,0,0,1,144.11,93a18.3,18.3,0,0,1-7.63-.4,20.27,20.27,0,0,1-7.09-3.51,24.35,24.35,0,0,1-5.86-6.4A23.84,23.84,0,0,1,120,74.35a20.72,20.72,0,0,1,0-8,18.7,18.7,0,0,1,3-7A19.23,19.23,0,0,1,128.49,54a19.5,19.5,0,0,1,7.28-2.85A18.44,18.44,0,0,1,143.32,51.41Zm12,26.72a19,19,0,0,0-1.22-6.27,34.66,34.66,0,0,0-3.38-6.63,33.72,33.72,0,0,0-4.85-6.05,19.16,19.16,0,0,0-5.26-3.75,11.47,11.47,0,0,0-5.41-1.07,10.81,10.81,0,0,0-5.35,1.8,10.49,10.49,0,0,0-4.09,4.51,12.34,12.34,0,0,0-1,5.69,20.44,20.44,0,0,0,1.4,6.16,37.39,37.39,0,0,0,7.93,12.3,19.17,19.17,0,0,0,5.19,3.72,11.69,11.69,0,0,0,5.44,1.22,11.68,11.68,0,0,0,9.42-6.06A11.19,11.19,0,0,0,155.34,78.13Z"/><path class="cls-2" d="M192,27.17a13,13,0,0,0-2.14,1.35,9.06,9.06,0,0,0-1.89,1.71,4.11,4.11,0,0,0-.27,3.09,31.36,31.36,0,0,0,1.58,5L200.3,66.08,198,67,162.58,45.09l7.8,19.59a26,26,0,0,0,2.43,4.9,5.06,5.06,0,0,0,2.28,2,6.62,6.62,0,0,0,3,.08,17.62,17.62,0,0,0,2.75-.47l.76,1.9L166,79.3l-.76-1.9a17,17,0,0,0,2.23-1.49,7.14,7.14,0,0,0,1.81-1.7,4.23,4.23,0,0,0,.37-2.8A29.38,29.38,0,0,0,167.9,66L160.46,47.3A8.2,8.2,0,0,0,159.05,45a4.85,4.85,0,0,0-1.91-1.44,8.77,8.77,0,0,0-3.21-.47,10,10,0,0,0-2.94.37l-.75-1.9,10.85-4.32L194,57.71l-7.19-18.06a25.07,25.07,0,0,0-2.45-4.93,4.4,4.4,0,0,0-2.18-1.88,9.66,9.66,0,0,0-2.84,0,14.51,14.51,0,0,0-2.8.49l-.75-1.9,15.44-6.15Z"/><path class="cls-2" d="M264,56.26l-16.9.85,0-2,2-.35a6.33,6.33,0,0,0,1.77-.51A2.44,2.44,0,0,0,252,53.06a3.8,3.8,0,0,0,.24-1.86L250.9,37l-19.14,1.7L233,52.91a3.92,3.92,0,0,0,.48,1.66,2.86,2.86,0,0,0,1.41,1.09,7.16,7.16,0,0,0,1.78.36,13.33,13.33,0,0,0,2,.12l.19,2-16.51,2.68-.4-2.22a31.56,31.56,0,0,0,3.48-1.13c1.74-.79,1.62-2.33,1.49-3.73l-2.61-29.39a3.86,3.86,0,0,0-.52-1.64,2.64,2.64,0,0,0-1.4-1.08,11.16,11.16,0,0,0-1.94-.49,11.31,11.31,0,0,0-1.94-.17l-.18-2,17-1.95.18,2a13.5,13.5,0,0,0-1.94.43,14.78,14.78,0,0,0-1.7.59,2.06,2.06,0,0,0-1.2,1.26,4.76,4.76,0,0,0-.18,1.78l1.07,13.07,19.14-1.7-1.18-12.92a3.74,3.74,0,0,0-.53-1.64,2.57,2.57,0,0,0-1.39-1.08,11.16,11.16,0,0,0-1.94-.49,10.38,10.38,0,0,0-1.94-.17l-.18-2,17-.93.18,2a12.44,12.44,0,0,0-1.94.44,13.34,13.34,0,0,0-1.7.58,2.05,2.05,0,0,0-1.2,1.27,4.53,4.53,0,0,0-.17,1.78l2.61,29.52a3.92,3.92,0,0,0,.48,1.66,2.81,2.81,0,0,0,1.41,1.09A7.05,7.05,0,0,0,262,54a14.46,14.46,0,0,0,2,.11Z"/><path class="cls-2" d="M285.36,56.62l-18.51-.4L266.78,54l2.25-.2a8,8,0,0,0,2.07-.36A2.84,2.84,0,0,0,273,50.8l.8-29.78a3.92,3.92,0,0,0-.27-1.69,2.59,2.59,0,0,0-1.46-1.18,15.19,15.19,0,0,0-2.16-.71,16.1,16.1,0,0,0-2.14-.42l.06-2,18.4.5,0,2.05a16.49,16.49,0,0,0-2.14.16,15,15,0,0,0-2.17.41,2.26,2.26,0,0,0-1.5,1.08A3.94,3.94,0,0,0,280,20.9l-.81,29.58a3.68,3.68,0,0,0,2,3.24,17,17,0,0,0,2,.48,13.47,13.47,0,0,0,2.32.28Z"/><path class="cls-2" d="M326.63,48.14l-1.88-.09a7.07,7.07,0,0,0-1.95.15,2.54,2.54,0,0,0-1.44,1,4.42,4.42,0,0,0-.72,1.75L320,54c-.46,2.26-.75,3.78-.88,4.58s-.23,1.45-.29,2a43.76,43.76,0,0,1-8,1.1,31.75,31.75,0,0,1-7.49-.57,20,20,0,0,1-7.12-2.92,19,19,0,0,1-5.39-5.35,20.12,20.12,0,0,1-2.95-7.38,22.74,22.74,0,0,1,.14-8.91,23.85,23.85,0,0,1,3.21-8.19,20.44,20.44,0,0,1,5.65-5.94,19.06,19.06,0,0,1,7.27-3.11,20.75,20.75,0,0,1,8.27,0,19.49,19.49,0,0,1,5.74,2,21.72,21.72,0,0,1,4,2.86l1.54-1.69L326,23,323.46,37l-2.32-.47a39.8,39.8,0,0,0-.56-4.85,16.23,16.23,0,0,0-1.45-4.48,10.68,10.68,0,0,0-2.81-3.52,10.29,10.29,0,0,0-4.55-2,11.78,11.78,0,0,0-5.65.14,12,12,0,0,0-4.86,2.84A17.48,17.48,0,0,0,297.42,30a31.23,31.23,0,0,0-2.5,7.65A27.88,27.88,0,0,0,294.4,45a18.56,18.56,0,0,0,1.5,6.37,13.08,13.08,0,0,0,3.59,4.84,12.38,12.38,0,0,0,5.68,2.63,12.89,12.89,0,0,0,4.69.15,8.35,8.35,0,0,0,3.22-1,20.64,20.64,0,0,0,.84-2.91c.21-1,.38-1.85.52-2.54l.44-2.21a6.48,6.48,0,0,0,.1-2.17,2.29,2.29,0,0,0-1.07-1.61,9.63,9.63,0,0,0-2.4-1.14c-1-.35-1.85-.61-2.45-.77l.41-2.06L327,46.08Z"/><path class="cls-2" d="M359.24,81,344,74.21l.79-1.89,1.91.61a6.08,6.08,0,0,0,1.8.37,2.43,2.43,0,0,0,1.57-.48,3.77,3.77,0,0,0,1.08-1.54l5.58-13.43L339,50.47l-5.46,13.14a3.82,3.82,0,0,0-.35,1.69,2.86,2.86,0,0,0,.74,1.63,7.9,7.9,0,0,0,1.41,1.14,13,13,0,0,0,1.72,1L336.24,71l-15.67-6.52.79-1.89,1.91.61a6.08,6.08,0,0,0,1.8.37,2.43,2.43,0,0,0,1.57-.48,3.64,3.64,0,0,0,1.08-1.54l11.33-27.23a3.81,3.81,0,0,0,.3-1.7,2.64,2.64,0,0,0-.74-1.61,10.75,10.75,0,0,0-1.49-1.33,11.33,11.33,0,0,0-1.63-1.06l.78-1.89,15.67,6.52-.78,1.89a13.32,13.32,0,0,0-1.93-.52,12.61,12.61,0,0,0-1.77-.27,2.05,2.05,0,0,0-1.65.56,4.49,4.49,0,0,0-1,1.5L340,48.1l17.74,7.38L362.46,44a3.9,3.9,0,0,0,.3-1.7,2.62,2.62,0,0,0-.74-1.6,10.75,10.75,0,0,0-1.49-1.34,10.88,10.88,0,0,0-1.63-1l.78-1.89L375.35,43l-.79,1.89a16.72,16.72,0,0,0-3.69-.79,2.06,2.06,0,0,0-1.66.56,4.71,4.71,0,0,0-1,1.49L356.91,73.35a5.1,5.1,0,0,0-.38,1.8,2.93,2.93,0,0,0,.64,1.67,7.33,7.33,0,0,0,1.33,1.23,12.57,12.57,0,0,0,1.65,1.14Z"/><path class="cls-2" d="M396.11,90.78l-7.3,9.62L360.59,81.71,361.65,80c.5.29,1.18.64,2.05,1.07a7.7,7.7,0,0,0,1.78.71,2.64,2.64,0,0,0,1.69-.23,3.74,3.74,0,0,0,1.27-1.27l16.22-24.49a4.18,4.18,0,0,0,.67-1.59,2.41,2.41,0,0,0-.45-1.72,9.34,9.34,0,0,0-1.37-1.71A16,16,0,0,0,382,49.28l1.13-1.71L409.46,65,404,73.25l-1.8-1.19a13.16,13.16,0,0,0,.49-5.25c-.16-2.08-.67-3.5-1.55-4.26-.45-.4-1-.84-1.68-1.32s-1.44-1-2.32-1.61l-5.36-3.55-9,13.55,3.84,2.54a9.31,9.31,0,0,0,2.93,1.45,4.61,4.61,0,0,0,2.28-.17A7.69,7.69,0,0,0,394,72.17,14.6,14.6,0,0,0,396,70.3l1.8,1.19-8.85,13.36-1.8-1.2a12.79,12.79,0,0,0,1.1-2.78,7.37,7.37,0,0,0,.36-2.44,4.18,4.18,0,0,0-.88-2.35,10.86,10.86,0,0,0-2.32-2l-3.85-2.54L374.76,81.8a13,13,0,0,0-1.39,2.57,2.72,2.72,0,0,0-.05,1.9A4.44,4.44,0,0,0,374.64,88a33.39,33.39,0,0,0,3,2.16l2.08,1.39q1.31.85,2.25,1.35a15.7,15.7,0,0,0,2.12.9,3.44,3.44,0,0,0,1.83.23,18.14,18.14,0,0,0,4.64-2,28.44,28.44,0,0,0,3.83-2.42Z"/><path class="cls-2" d="M418.66,128.56l-8-7.59q1.31-6.68,2.05-11.73c.49-3.37.93-6.92,1.3-10.65l-3-2.89-8.93,9.39a4.43,4.43,0,0,0-1,1.5,2.24,2.24,0,0,0,.17,1.78,8.78,8.78,0,0,0,1.06,1.52,21.69,21.69,0,0,0,1.45,1.66L402.33,113l-12.47-11.79,1.36-1.61,1.59,1.24a7.05,7.05,0,0,0,1.59,1,2.51,2.51,0,0,0,1.66.07,3.85,3.85,0,0,0,1.55-1.07L418,79.45A5.36,5.36,0,0,0,419,78a2.11,2.11,0,0,0-.17-1.79,12.28,12.28,0,0,0-1-1.64A17.76,17.76,0,0,0,416.58,73L418,71.5l13.66,13a20.86,20.86,0,0,1,3.16,3.74,13.2,13.2,0,0,1,1.81,4.08,8.69,8.69,0,0,1,0,4.15,8.84,8.84,0,0,1-2.32,4,11.43,11.43,0,0,1-3.4,2.53,8.68,8.68,0,0,1-3.71.81,12.61,12.61,0,0,1-3.73-.6,23,23,0,0,1-4-1.64q-.57,5-1,8.35c-.29,2.24-.64,5-1,8.21a13.6,13.6,0,0,0-.1,3.42,12.13,12.13,0,0,0,.55,2.37,6.83,6.83,0,0,0,1,1.71,13.42,13.42,0,0,0,1.2,1.46Zm10-32.51a7.46,7.46,0,0,0-.36-11.46l-3.54-3.37L412.7,93.9l2.74,2.61a8.92,8.92,0,0,0,13.24-.46Z"/><path class="cls-2" d="M455.62,163.23,445,168.9,427.13,140l1.74-1.07c.33.47.81,1.08,1.42,1.83a8.37,8.37,0,0,0,1.31,1.39,2.69,2.69,0,0,0,1.63.5,3.9,3.9,0,0,0,1.69-.62l25-15.45a4.21,4.21,0,0,0,1.27-1.16,2.47,2.47,0,0,0,.32-1.75,9.59,9.59,0,0,0-.54-2.13,15.11,15.11,0,0,0-.8-2l1.74-1.07,16.63,26.9-8.38,5.19L469,148.79a13.43,13.43,0,0,0,2.64-4.57c.73-1.95.85-3.45.38-4.51-.25-.55-.58-1.19-1-1.91s-.88-1.53-1.43-2.43l-3.38-5.47-13.82,8.55,2.42,3.92a9.45,9.45,0,0,0,2.06,2.54,4.42,4.42,0,0,0,2.14.79,7.46,7.46,0,0,0,2.46-.25,14,14,0,0,0,2.56-.89l1.13,1.84-13.62,8.42L450.44,153a12.27,12.27,0,0,0,2.16-2.07,7.25,7.25,0,0,0,1.35-2.07,4.12,4.12,0,0,0,.18-2.5,10.51,10.51,0,0,0-1.29-2.74l-2.42-3.92L440,146.13a13.16,13.16,0,0,0-2.34,1.75,2.73,2.73,0,0,0-.84,1.7,4.35,4.35,0,0,0,.48,2.11,31.33,31.33,0,0,0,1.8,3.22c.34.54.78,1.25,1.32,2.14s1,1.6,1.48,2.17a16,16,0,0,0,1.54,1.7,3.49,3.49,0,0,0,1.57,1,18.69,18.69,0,0,0,5,.16,27.49,27.49,0,0,0,4.49-.6Z"/><path class="cls-2" d="M478.84,199.68a19.65,19.65,0,0,1-9.15,1.42,18.62,18.62,0,0,1-7.69-2.5,22.4,22.4,0,0,1-6-5.33,27.42,27.42,0,0,1-4-7.18l-6.29-15.4,1.85-.89a19.63,19.63,0,0,0,1.08,1.89,6.59,6.59,0,0,0,1.1,1.44,2.38,2.38,0,0,0,1.54.65,3.83,3.83,0,0,0,1.72-.24L480.52,163A4.3,4.3,0,0,0,482,162a2.46,2.46,0,0,0,.68-1.66,7.35,7.35,0,0,0-.1-2,13.83,13.83,0,0,0-.4-1.76l1.91-.74,6.41,16.67a23.7,23.7,0,0,1,1.55,7.19,21.47,21.47,0,0,1-.63,6.91,17.82,17.82,0,0,1-4.24,7.68A21.88,21.88,0,0,1,478.84,199.68Zm-2.52-6.59a23.92,23.92,0,0,0,6.55-3.69,17.19,17.19,0,0,0,4.27-5.07,14.16,14.16,0,0,0,1.71-5.89,15,15,0,0,0-1.05-6.5c-.28-.73-.61-1.56-1-2.47s-.67-1.59-.86-2l-29.32,11.27c-1.63.63-2.57,1.54-2.83,2.73a8.77,8.77,0,0,0,.74,4.75,14.89,14.89,0,0,0,3.51,5.5,11.6,11.6,0,0,0,4.95,2.85,16.12,16.12,0,0,0,6.16.42A29.47,29.47,0,0,0,476.32,193.09Z"/><path class="cls-2" d="M505.09,237.9a15.76,15.76,0,0,0-.78-2.26,7.23,7.23,0,0,0-1.4-2.31,4.05,4.05,0,0,0-2.94-.83,30.05,30.05,0,0,0-5.05.58l-17.47,3.3a11.87,11.87,0,0,1-6.06-.29,12.4,12.4,0,0,1-4.74-2.89,15.79,15.79,0,0,1-3.09-4.3,19,19,0,0,1-1.56-4.61,21,21,0,0,1-.27-6.64,15,15,0,0,1,1.66-5.24,10.88,10.88,0,0,1,3.16-3.55,10.35,10.35,0,0,1,4.16-1.79l23.75-4.49a3.83,3.83,0,0,0,1.6-.63,3.17,3.17,0,0,0,1-1.55,7,7,0,0,0,.29-1.94,15,15,0,0,0,0-1.86l2-.38L502.46,213l-2,.38a14.22,14.22,0,0,0-.63-2,15.45,15.45,0,0,0-.76-1.69,2,2,0,0,0-1.38-1.07,4.44,4.44,0,0,0-1.78,0l-22.18,4.19a17.19,17.19,0,0,0-3.31,1,8.9,8.9,0,0,0-3,2,8.53,8.53,0,0,0-2,3.48,11.7,11.7,0,0,0,0,5.4,12.57,12.57,0,0,0,2,5,8.88,8.88,0,0,0,3.23,2.83,9.93,9.93,0,0,0,3.51,1,12.06,12.06,0,0,0,3.45-.16L494,230.34a24.08,24.08,0,0,0,5-1.42,4.39,4.39,0,0,0,2.37-1.82,7.76,7.76,0,0,0,.59-2.92,17.11,17.11,0,0,0,0-2.7l2-.38,3.1,16.42Z"/><path class="cls-2" d="M465.46,259.35a17.83,17.83,0,0,1,5.31-13.07,20.13,20.13,0,0,1,6.53-4.23,24.11,24.11,0,0,1,8.77-1.71,25.24,25.24,0,0,1,8.93,1.3,20.94,20.94,0,0,1,7,4,18.28,18.28,0,0,1,4.54,6.09,19.84,19.84,0,0,1,1.09,13.08,20.46,20.46,0,0,1-2,4.7l2,1.14.05,2.31-14.57.57-.05-2.36a34.5,34.5,0,0,0,4.59-1.48,18,18,0,0,0,4.18-2.25,10.54,10.54,0,0,0,3-3.35,8.3,8.3,0,0,0,1-4.36,11.14,11.14,0,0,0-1.35-5.17,11.89,11.89,0,0,0-3.75-4.08,18,18,0,0,0-6-2.49,31.87,31.87,0,0,0-8.07-.78,24.81,24.81,0,0,0-7.17,1.15,18.62,18.62,0,0,0-5.69,3,13.74,13.74,0,0,0-3.74,4.44,11.57,11.57,0,0,0-1.26,5.65,12,12,0,0,0,.83,4.27,11.35,11.35,0,0,0,2,3.35,14.82,14.82,0,0,0,2.94,2.47,15.52,15.52,0,0,0,3.55,1.71l-1,2.19Q471,273,468.27,269A17.75,17.75,0,0,1,465.46,259.35Z"/><path class="cls-2" d="M460.12,313.76l3.25-16,2,.32a16.83,16.83,0,0,0,0,3.77c.13,1,.4,1.57.82,1.63a3.82,3.82,0,0,0,.64,0,2.84,2.84,0,0,0,.68-.07l9.57-1.94,2.2-14.18c-1.24-.73-2.33-1.35-3.27-1.83s-1.8-.93-2.59-1.32-1.42-.65-1.91-.83a7.51,7.51,0,0,0-1.24-.33c-.75-.12-1.44.38-2,1.51a14.76,14.76,0,0,0-1.37,3.93l-2-.31,2.37-15.21,2,.31a11.43,11.43,0,0,0,0,1.9,5.91,5.91,0,0,0,.44,1.93,7.22,7.22,0,0,0,1.33,2,11.08,11.08,0,0,0,2.13,1.58q7.14,4.23,16,9.38t15.86,9.17l-.35,2.28-36.94,8.05a12.61,12.61,0,0,0-2,.66,6.46,6.46,0,0,0-1.74,1.07,6.06,6.06,0,0,0-1.15,1.45,9.32,9.32,0,0,0-.81,1.62Zm19.67-12.9,16.63-3.68-14.74-8.47Z"/><path class="cls-2" d="M479.09,351.91l.62-1.89a13.92,13.92,0,0,0,2.63-.12,22.26,22.26,0,0,0,3-.61,13.46,13.46,0,0,0,2.8-1.07,3.66,3.66,0,0,0,1.69-1.53c.26-.54.55-1.24.87-2.08s.6-1.64.83-2.37l.52-1.59L461,330.48a3.76,3.76,0,0,0-1.78-.16,2.7,2.7,0,0,0-1.61,1,17.61,17.61,0,0,0-1.19,1.89,16.39,16.39,0,0,0-1.16,2.34l-1.94-.64,6-18.34,1.94.63c-.13.53-.31,1.33-.54,2.42a9.39,9.39,0,0,0-.31,2.31,2.76,2.76,0,0,0,.6,1.66,3.4,3.4,0,0,0,1.65,1L494,334.81l.52-1.58c.19-.57.4-1.28.65-2.13s.45-1.67.61-2.46a3.45,3.45,0,0,0-.47-2.23,15,15,0,0,0-1.61-2.52,20.2,20.2,0,0,0-2.14-2.31,16.94,16.94,0,0,0-2-1.62l.63-1.92,10.54,3.45-11.09,33.87Z"/><path class="cls-2" d="M442.34,358.88l8-16.59,1.85.88c-.19.49-.46,1.19-.82,2.1a8.88,8.88,0,0,0-.59,2,2.8,2.8,0,0,0,.33,1.69,3.15,3.15,0,0,0,1.43,1.17L479.2,363a3.35,3.35,0,0,0,3.88-.52,19.39,19.39,0,0,0,1.59-1.63A14.84,14.84,0,0,0,486,359.1l1.81.94-8.61,16.55-1.84-.89a19.08,19.08,0,0,0,.73-2,16.72,16.72,0,0,0,.51-2.15,2.29,2.29,0,0,0-.38-1.82,3.92,3.92,0,0,0-1.4-1.08l-26.66-12.82a3.38,3.38,0,0,0-1.7-.35,2.87,2.87,0,0,0-1.67.78,12.8,12.8,0,0,0-1.31,1.56,13.63,13.63,0,0,0-1.28,2Z"/><path class="cls-2" d="M455.26,405.9a19.8,19.8,0,0,1-8-.21,24.44,24.44,0,0,1-8.22-3.58,24.16,24.16,0,0,1-6.53-6.16,19.86,19.86,0,0,1-3.28-7.33,18.82,18.82,0,0,1-.13-7.55,20,20,0,0,1,8.56-12.82,18.32,18.32,0,0,1,7.14-2.74,20.06,20.06,0,0,1,7.9.33,24,24,0,0,1,7.95,3.45,23.76,23.76,0,0,1,6.57,6.19,20.7,20.7,0,0,1,3.28,7.3,18.56,18.56,0,0,1,.15,7.64,19.79,19.79,0,0,1-8.37,12.65A18.28,18.28,0,0,1,455.26,405.9Zm-21.85-19.52a19.2,19.2,0,0,0,3.67,5.23,37.27,37.27,0,0,0,12.68,8.24,19.25,19.25,0,0,0,6.33,1.29,11.58,11.58,0,0,0,5.37-1.22,10.86,10.86,0,0,0,4.15-3.82,10.47,10.47,0,0,0,1.91-5.78,12.32,12.32,0,0,0-1.36-5.63,20.42,20.42,0,0,0-3.78-5.05,37.29,37.29,0,0,0-12.25-8,18.87,18.87,0,0,0-6.25-1.29,11.62,11.62,0,0,0-5.47,1.1,10.65,10.65,0,0,0-4.29,3.93,10.89,10.89,0,0,0-1.86,5.43A11.39,11.39,0,0,0,433.41,386.38Z"/><path class="cls-2" d="M421.79,446.92a12.56,12.56,0,0,0,1.38-2.1,8.62,8.62,0,0,0,1-2.34,4.09,4.09,0,0,0-1-2.93,29.86,29.86,0,0,0-3.48-3.85l-21.56-20.76,1.73-1.81,41.28,5.35-15.19-14.62a25.47,25.47,0,0,0-4.23-3.46,5.09,5.09,0,0,0-2.9-.89,6.68,6.68,0,0,0-2.75,1.15,17,17,0,0,0-2.31,1.57l-1.48-1.42,11.63-12.07,1.47,1.41a16.3,16.3,0,0,0-1.41,2.28,6.93,6.93,0,0,0-.94,2.29,4.23,4.23,0,0,0,.81,2.71,29.61,29.61,0,0,0,3.82,4.19l14.51,14a7.94,7.94,0,0,0,2.23,1.5,4.83,4.83,0,0,0,2.33.53,8.92,8.92,0,0,0,3.12-.89,10.26,10.26,0,0,0,2.52-1.56l1.47,1.42-8.1,8.41-38.39-5.06,14,13.49a25.1,25.1,0,0,0,4.27,3.47,4.39,4.39,0,0,0,2.76.81,9.46,9.46,0,0,0,2.59-1.16,14.5,14.5,0,0,0,2.35-1.6l1.47,1.42-11.53,12Z"/></g></g></svg>