<svg xmlns="http://www.w3.org/2000/svg" viewBox="0 0 2562.39 499.85"><defs><style>.cls-1{fill:#fff;}.cls-2{fill:#034592;}.cls-3{fill:#041019;}.cls-4{fill:#ffe934;}.cls-5{fill:#e11837;}.cls-6{fill:#231f20;}</style></defs><g id="Layer_2" data-name="Layer 2"><g id="Layer_1-2" data-name="Layer 1"><path class="cls-1" d="M250,497.45h-.09C113.5,497.45,2.45,386.5,2.4,250.13A247.48,247.48,0,0,1,249.82,2.4c136.54,0,247.58,111,247.63,247.32C497.5,386.35,386.52,497.38,250,497.45"/><path class="cls-2" d="M249.92,425.38c-96.78,0-175.54-78.64-175.58-175.45A175.47,175.47,0,0,1,249.93,74.47c96.78,0,175.54,78.64,175.57,175.46S346.81,425.33,250,425.38"/><path class="cls-3" d="M250,499.85h-.09C112.17,499.85.06,387.82,0,250.13A249.87,249.87,0,0,1,249.82,0c137.86,0,250,112,250,249.72,0,138-112,250.06-249.83,250.13m-.1-495.26A245.36,245.36,0,0,0,4.46,249.93c0,135.37,110.18,245.34,245.47,245.34v3.33l.09-3.33c135.35-.08,245.43-110.14,245.37-245.34C495.34,114.55,385.22,4.59,249.92,4.59"/><path class="cls-2" d="M249.84,63.67C147,63.72,63.63,147.1,63.67,249.92v.16c0,102.81,83.46,186.13,186.33,186.09s186.21-83.43,186.18-186.25v-.15C436.13,147,352.71,63.63,249.84,63.67ZM250,431.73h-.07c-100.2,0-181.76-81.5-181.8-181.66A181.76,181.76,0,0,1,249.85,68.13c100.29,0,181.84,81.48,181.87,181.64C431.76,350.11,350.25,431.68,250,431.73Z"/><path class="cls-1" d="M228,410.93h-4v-15.2a13.87,13.87,0,0,1-5.21,3.06v-3.67a11.39,11.39,0,0,0,3.42-1.95,7.37,7.37,0,0,0,2.54-3.37H228Zm15.25-13.68a4,4,0,0,1-.8,2.7,2.5,2.5,0,0,1-2,.92,2.55,2.55,0,0,1-2-.95,4.66,4.66,0,0,1-.8-3,4.53,4.53,0,0,1,.74-2.9,2.34,2.34,0,0,1,1.86-.87,2.74,2.74,0,0,1,2.08,1,4.71,4.71,0,0,1,.89,3M236,410a5.9,5.9,0,0,0,4,1.31,6.89,6.89,0,0,0,5.56-2.55q2.14-2.55,2.14-8.31c0-3.78-.68-6.49-2.05-8.15a6.87,6.87,0,0,0-10.1-.51,7.86,7.86,0,0,0-.1,10.13,5.68,5.68,0,0,0,4.28,1.92,4.8,4.8,0,0,0,3.81-1.76c-.17,2.4-.54,4-1.12,4.76a2.6,2.6,0,0,1-2.12,1.16,2.31,2.31,0,0,1-1.6-.58,2.84,2.84,0,0,1-.74-1.77l-3.91.43a6.38,6.38,0,0,0,2,3.92m23.54-12.73a4,4,0,0,1-.8,2.7,2.49,2.49,0,0,1-1.95.92,2.54,2.54,0,0,1-2-.95,4.66,4.66,0,0,1-.8-3,4.53,4.53,0,0,1,.74-2.9,2.36,2.36,0,0,1,1.86-.87,2.67,2.67,0,0,1,2.07,1,4.65,4.65,0,0,1,.9,3m-9.13,8.81a6.27,6.27,0,0,0,1.95,3.92,5.9,5.9,0,0,0,4,1.31,7,7,0,0,0,5.57-2.55q2.13-2.55,2.13-8.31c0-3.78-.68-6.49-2.05-8.15a6.53,6.53,0,0,0-5.26-2.48,6.47,6.47,0,0,0-4.83,2,7.84,7.84,0,0,0-.11,10.13,5.68,5.68,0,0,0,4.29,1.92,4.82,4.82,0,0,0,3.8-1.76c-.16,2.4-.54,4-1.12,4.76a2.6,2.6,0,0,1-2.13,1.16,2.28,2.28,0,0,1-1.59-.58,2.9,2.9,0,0,1-.75-1.77l-3.9.43m19.35-2.91,4.83-7.2v7.2Zm8.74,7.78v-4.24h2.61v-3.54h-2.61V389.8h-3.39L266,403.16v3.53h8.61v4.24Z"/><path class="cls-4" d="M249.9,203.1a44.21,44.21,0,0,0-44.2,44.22v0a44.22,44.22,0,0,0,88.44,0v0A44.21,44.21,0,0,0,249.9,203.1"/><polygon class="cls-4" points="242.67 203.72 231.31 207.2 192.4 111.34 202.25 92.12 221.18 102.52 242.67 203.72"/><polygon class="cls-4" points="255.87 203.5 243.98 203.5 249.92 110.77 255.87 203.5"/><polygon class="cls-4" points="219.32 215.6 211.85 224.84 125.99 167.12 123.41 145.68 144.92 143.72 219.32 215.6"/><polygon class="cls-4" points="206.82 238.37 205.8 250.21 102.34 250.46 88.2 234.13 104.92 220.47 206.82 238.37"/><polygon class="cls-4" points="209.1 263.92 214.88 274.3 129.29 332.42 108.44 326.81 114.64 306.13 209.1 263.92"/><polygon class="cls-4" points="230.08 207.9 220.24 214.55 173.2 134.41 230.08 207.9"/><polygon class="cls-4" points="211.32 226.07 206.89 237.1 123.06 197 211.32 226.07"/><polygon class="cls-4" points="206.08 251.38 208.56 263 116.64 276.61 206.08 251.38"/><polygon class="cls-4" points="257.18 203.72 268.54 207.2 307.44 111.34 297.59 92.12 278.66 102.52 257.18 203.72"/><polygon class="cls-4" points="280.52 215.6 288 224.84 373.86 167.12 376.44 145.68 354.93 143.72 280.52 215.6"/><polygon class="cls-4" points="293.02 238.37 294.04 250.21 397.5 250.46 411.64 234.13 394.92 220.47 293.02 238.37"/><polygon class="cls-4" points="290.75 263.92 284.96 274.3 370.55 332.42 391.41 326.81 385.2 306.13 290.75 263.92"/><polygon class="cls-4" points="269.77 207.9 279.61 214.55 326.64 134.41 269.77 207.9"/><polygon class="cls-4" points="288.52 226.07 292.95 237.1 376.78 197 288.52 226.07"/><polygon class="cls-4" points="293.77 251.38 291.28 263 383.2 276.61 293.77 251.38"/><path class="cls-5" d="M228.06,359.5v0a21.87,21.87,0,0,1,43.73,0h0a21.8,21.8,0,0,1-7,16h90.78L249.92,285.16,144.28,375.51h90.77A21.8,21.8,0,0,1,228.06,359.5Z"/><path class="cls-3" d="M142.68,417.09c1.45.92,4.88,4,1.59,9.15s-7.51,3.35-9,2.42-4.88-4-1.59-9.15S141.22,416.16,142.68,417.09Zm-6.14,9.63c1.24.79,3.47,1.13,5.44-1.94s.7-5-.54-5.75S138,417.89,136,421,135.3,425.93,136.54,426.72Z"/><path class="cls-3" d="M145.57,434.41l-2.38-1.32,6.3-11.41,8.13,4.48-1.12,2L150.76,425l-1.42,2.58,5,2.77-1.11,2-5-2.77Z"/><path class="cls-3" d="M155.77,439.78l-2.45-1.19L159,426.85l8.35,4-1,2.08-5.9-2.85-1.28,2.65,5.16,2.49-1,2.08-5.17-2.5Z"/><path class="cls-3" d="M166.05,444.5l-2.5-1.08,5.21-12,2.49,1.09Z"/><path class="cls-3" d="M179.81,440.55a2.66,2.66,0,0,0-1.89-3.14c-1.23-.47-3.34-.34-4.65,3.1-.84,2.19-.73,4.49,1.43,5.31a2.78,2.78,0,0,0,3.57-1.25l2.54,1a5.43,5.43,0,0,1-7,2.47c-3.24-1.24-4.72-4.32-3.11-8.52s4.91-5.49,8.05-4.29c3.65,1.39,4.16,4.47,3.61,6.32Z"/><path class="cls-3" d="M194.07,443.16l-6.6-2.07-.82,2.62,6.06,1.89-.68,2.2L186,445.91l-1,3.22,6.89,2.16-.69,2.2-9.44-2.95,3.89-12.44,9.15,2.86Z"/><path class="cls-3" d="M207.62,443.75c1.68.37,6,2.05,4.67,8s-5.88,5.75-7.56,5.39-6-2-4.68-8S205.93,443.39,207.62,443.75Zm-2.41,11.17c1.44.31,3.65-.15,4.42-3.71s-1.06-4.89-2.5-5.2-3.65.14-4.42,3.71S203.77,454.61,205.21,454.92Z"/><path class="cls-3" d="M216.37,459l-2.7-.41,2-12.89,9.18,1.39-.35,2.28-6.48-1-.44,2.9,5.67.86-.34,2.28-5.67-.86Z"/><path class="cls-3" d="M236.16,461.18l-2.71-.19.75-10.7-3.93-.28.16-2.3,10.57.74-.16,2.3-3.93-.27Z"/><path class="cls-3" d="M245,455.71l-.1,5.85-2.72-.05.21-13,2.72,0-.08,4.94,5.09.08.08-4.94,2.72,0-.21,13-2.72,0,.09-5.85Z"/><path class="cls-3" d="M265.09,450.38l-6.91.34.13,2.74,6.35-.31.12,2.3-6.35.32.17,3.37,7.22-.36.11,2.31-9.89.49-.65-13,9.58-.47Z"/><path class="cls-3" d="M276.88,459.94l-2.7.36-1.75-12.92,5.9-.8c2.5-.34,4.23,1.06,4.58,3.6a4,4,0,0,1-3.57,4.68l-3.09.41Zm1.57-7.24a1.77,1.77,0,0,0,1.74-2.28c-.17-1.26-.94-1.69-2.62-1.46l-2.14.29L276,453Z"/><path class="cls-3" d="M284,445.77l6.46-1.28c3.4-.68,4.52,1.71,4.74,2.81a3.11,3.11,0,0,1-1.37,3.44c1.14.25,1.79.53,2.26,2.92.37,1.87.46,2.33,1.08,2.43l.06.34-2.95.59a8.58,8.58,0,0,1-.8-2.53c-.34-1.74-.59-2.4-2.56-2l-2.76.55,1,5-2.62.52Zm6.86,4.48c1.39-.27,2-.89,1.72-2.15-.13-.68-.63-1.61-2.2-1.3l-3.33.66.68,3.41Z"/><path class="cls-3" d="M306.47,443l-6.69,1.76.7,2.65,6.15-1.62.58,2.23-6.14,1.62.86,3.27,7-1.84.58,2.23-9.57,2.52-3.32-12.61,9.28-2.44Z"/><path class="cls-3" d="M312.68,448.05c.24.69,1,1.89,3.28,1.15,1.22-.41,2.49-1.15,2.06-2.46-.32-1-1.33-.92-2.75-.8l-1.43.13c-2.15.19-4.23.37-5.12-2.35-.46-1.38-.51-4.06,3.51-5.38,3.79-1.24,5.63.91,6.14,2.42l-2.48.82c-.25-.53-.89-1.78-3.15-1-1,.33-2,1.07-1.67,2.2.32,1,1.18.91,1.73.86l3.27-.25c1.82-.14,3.6,0,4.33,2.27,1.22,3.72-2.46,5.3-3.55,5.65-4.52,1.49-6.15-.86-6.65-2.4Z"/><path class="cls-3" d="M326.47,447.48l-2.55,1-4.6-12.2,2.55-1Z"/><path class="cls-3" d="M324.21,434.43l5.28-2.28c4-1.73,6.35,1.34,7.33,3.61,1.11,2.57,1.68,6.71-2.27,8.42l-5.19,2.23Zm6.71,8.85,2.44-1c2-.88,1.83-3.23,1-5.19-1.52-3.54-3.33-3.1-4.4-2.64l-2.4,1Z"/><path class="cls-3" d="M345.68,427l-6.17,3.12,1.24,2.45,5.67-2.87,1,2.06-5.67,2.86,1.52,3,6.45-3.26,1,2.05L342,440.85l-5.88-11.63,8.55-4.33Z"/><path class="cls-3" d="M353.57,419.75l2.19-1.29,6.6,11.24L360,431.08l-9.29-5.32h0l4.71,8-2.19,1.29-6.6-11.25,2.47-1.45,9.06,5.22,0,0Z"/><path class="cls-3" d="M369.7,424.86l-2.26,1.52-6-8.92-3.27,2.2-1.28-1.92,8.8-5.9,1.29,1.92L363.72,416Z"/><path class="cls-3" d="M167.77,451.64c1.6.65,5.53,3,3.24,8.72s-6.79,4.65-8.38,4-5.53-3-3.24-8.71S166.18,451,167.77,451.64Zm-4.28,10.59c1.36.55,3.62.49,5-2.9s-.21-5-1.57-5.55-3.62-.48-5,2.9S162.13,461.68,163.49,462.23Z"/><path class="cls-3" d="M173.75,468.17l-2.58-.87L175.36,455l8.78,3-.74,2.18-6.21-2.1-.94,2.78,5.43,1.85-.74,2.18L175.51,463Z"/><path class="cls-3" d="M192.78,473.86l-2.63-.68,2.68-10.39-3.81-1,.58-2.23,10.26,2.66-.58,2.23-3.81-1Z"/><path class="cls-3" d="M202.5,470.12l-1.15,5.74-2.67-.54,2.57-12.78,2.67.53-1,4.85,5,1,1-4.85,2.67.54L209,477.39l-2.67-.53,1.15-5.74Z"/><path class="cls-3" d="M223.23,468.65l-6.85-1-.39,2.71,6.3.9-.33,2.28-6.29-.89-.48,3.34,7.16,1-.32,2.28-9.8-1.39L214.06,465l9.49,1.35Z"/><path class="cls-3" d="M232.94,480.32l-2.72-.17.82-13,6,.38a3.81,3.81,0,0,1,3.78,4.42,4,4,0,0,1-4.42,3.89l-3.11-.2Zm3-6.78a1.78,1.78,0,0,0,2.16-1.91c.08-1.26-.6-1.84-2.28-1.94l-2.16-.14-.24,3.83Z"/><path class="cls-3" d="M245.27,475l-.1,5.85-2.72-.05.21-13,2.72,0-.08,4.94,5.09.08.07-4.94,2.73,0L253,481l-2.72,0,.09-5.85Z"/><path class="cls-3" d="M258.76,480.76l-2.72.09-.41-13,2.72-.09Z"/><path class="cls-3" d="M264.33,478.12l6.47-.43L271,480l-9.18.62-.88-13,2.71-.19Z"/><path class="cls-3" d="M275.71,479.51l-2.71.29-1.35-13,2.71-.28Z"/><path class="cls-3" d="M281.44,478.81l-2.69.39-1.86-12.9,5.9-.85a3.82,3.82,0,0,1,4.6,3.56,4,4,0,0,1-3.53,4.71l-3.09.44Zm1.51-7.24a1.77,1.77,0,0,0,1.72-2.3c-.18-1.25-.95-1.68-2.62-1.44l-2.14.31.54,3.79Z"/><path class="cls-3" d="M293.67,476.82l-2.68.54-2.54-12.79,5.84-1.16a3.81,3.81,0,0,1,4.79,3.3,4,4,0,0,1-3.27,4.89l-3.06.61Zm1.11-7.31a1.77,1.77,0,0,0,1.6-2.39c-.25-1.25-1-1.62-2.7-1.29l-2.12.42.75,3.75Z"/><path class="cls-3" d="M305.56,474.23l-2.65.63-3-12.68,2.65-.63Z"/><path class="cls-3" d="M312.7,458.8l2.45-.69,3.56,12.54-2.62.75-7.66-7.5h0l2.54,8.95-2.45.69L304.93,461l2.76-.78,7.46,7.32h0Z"/><path class="cls-3" d="M327.33,456.38l-6.54,2.27.9,2.59,6-2.08.75,2.18-6,2.08,1.1,3.19,6.83-2.37.76,2.18-9.35,3.24-4.27-12.31,9.05-3.14Z"/><path class="cls-3" d="M333.93,461c.29.66,1.14,1.8,3.34.9,1.2-.48,2.41-1.31,1.89-2.59-.39-.94-1.4-.82-2.8-.6l-1.42.22c-2.13.35-4.19.68-5.28-2-.55-1.35-.79-4,3.12-5.61,3.7-1.51,5.68.5,6.3,2l-2.42,1c-.29-.51-1-1.7-3.21-.8-1,.39-2,1.21-1.51,2.3s1.24.83,1.79.74l3.24-.48c1.81-.27,3.6-.22,4.48,1.95,1.49,3.63-2.08,5.46-3.14,5.89-4.4,1.8-6.19-.43-6.8-1.92Z"/><path class="cls-3" d="M113,389.1a16.7,16.7,0,0,1,3.85,5.65,17,17,0,0,1,1.32,6.8,19.35,19.35,0,0,1-1.59,7.26,23.16,23.16,0,0,1-4.81,7.06,24.11,24.11,0,0,1-7,5.11,19.83,19.83,0,0,1-7.41,2,17.24,17.24,0,0,1-7.18-1.08,17.91,17.91,0,0,1-6.27-4,17.67,17.67,0,0,1-3.26-4.15,19.19,19.19,0,0,1-1.8-4.54l-2.11.56-1.59-1.54L84.74,398l1.62,1.57a32.91,32.91,0,0,0-2.12,4.09A16.84,16.84,0,0,0,82.91,408a9.92,9.92,0,0,0,.21,4.29,8.13,8.13,0,0,0,2.25,3.65,10.61,10.61,0,0,0,4.39,2.6,11.24,11.24,0,0,0,5.28.25,17.22,17.22,0,0,0,5.75-2.33,30.41,30.41,0,0,0,6-4.89,23.44,23.44,0,0,0,4.1-5.6,17.57,17.57,0,0,0,1.88-5.83,12.93,12.93,0,0,0-.44-5.53,11,11,0,0,0-2.94-4.69,11.48,11.48,0,0,0-3.43-2.35,11.18,11.18,0,0,0-3.63-.93,14.53,14.53,0,0,0-3.65.3,15.31,15.31,0,0,0-3.56,1.22l-.8-2.14q5.75-2.53,10.29-1.6A17,17,0,0,1,113,389.1Z"/><path class="cls-3" d="M54.78,373.41a19.21,19.21,0,0,1,2.94-7.08,23.51,23.51,0,0,1,6-6.1,23.11,23.11,0,0,1,7.74-3.71,18.86,18.86,0,0,1,7.66-.4,17.86,17.86,0,0,1,6.78,2.46,19.16,19.16,0,0,1,8.5,12.05,17.44,17.44,0,0,1,0,7.3,19.31,19.31,0,0,1-3,6.94,23.27,23.27,0,0,1-5.81,5.91,23,23,0,0,1-7.78,3.73,19.79,19.79,0,0,1-7.63.42,17.77,17.77,0,0,1-6.86-2.49,18.31,18.31,0,0,1-5.34-5,18.61,18.61,0,0,1-3.08-6.81A17.58,17.58,0,0,1,54.78,373.41ZM79.7,360.63a18.57,18.57,0,0,0-5.92,1.47,35.5,35.5,0,0,0-11.71,8.48,18.3,18.3,0,0,0-3.32,5.2A11,11,0,0,0,58,381a10.37,10.37,0,0,0,2,5,10.05,10.05,0,0,0,4.5,3.69,11.76,11.76,0,0,0,5.49.71,19.06,19.06,0,0,0,5.8-1.63,35.42,35.42,0,0,0,11.36-8.17,18.38,18.38,0,0,0,3.3-5.14,11.25,11.25,0,0,0,.9-5.24,11.18,11.18,0,0,0-6.25-8.71A10.79,10.79,0,0,0,79.7,360.63Z"/><path class="cls-3" d="M60.75,306.5l6.86,15.85-1.79.77c-.27-.56-.64-1.27-1.14-2.13a5.93,5.93,0,0,0-1.23-1.67,3.6,3.6,0,0,0-1.6-.68,3.32,3.32,0,0,0-1.71.31l-26.07,11.3.16.38,35.85-1,.54,1.26L44.5,356l.14.33L66,347.09a23.29,23.29,0,0,0,4.55-2.43,4.77,4.77,0,0,0,1.8-2.21,6.28,6.28,0,0,0,0-2.74,14.32,14.32,0,0,0-.48-2.49l1.79-.78L80,350.92l-1.8.77a19.38,19.38,0,0,0-1.41-2.22,5.13,5.13,0,0,0-1.67-1.57,4,4,0,0,0-2.7-.27,27.32,27.32,0,0,0-5,1.79L49,357.37a8.2,8.2,0,0,0-2.43,1.51,4.25,4.25,0,0,0-1.17,1.8,5.4,5.4,0,0,0-.18,2.36,11,11,0,0,0,.59,2.41l-1.79.78L38.75,354l22.46-21.93-26.31,1a25.43,25.43,0,0,0-2.95.3,14.58,14.58,0,0,0-2,.42l-5.07-11.69,1.8-.78a12.39,12.39,0,0,0,1,1.71,12.07,12.07,0,0,0,1.07,1.44,2,2,0,0,0,1.51.73,4.43,4.43,0,0,0,1.68-.37l25.84-11.2a3.55,3.55,0,0,0,1.36-.95,2.84,2.84,0,0,0,.56-1.62,6.46,6.46,0,0,0-.24-1.82,14.15,14.15,0,0,0-.56-2Z"/><path class="cls-3" d="M53.92,256.59l1.4,17-1.93.3c-.11-.62-.3-1.4-.55-2.36a6.15,6.15,0,0,0-.77-1.93,3.59,3.59,0,0,0-1.37-1.06,3.34,3.34,0,0,0-1.73-.14l-28.1,4.24.06.41,34.91,8.21.2,1.36-31.7,17.62.06.36,23.06-3.49a22.73,22.73,0,0,0,5-1.19,4.72,4.72,0,0,0,2.31-1.67,6.38,6.38,0,0,0,.72-2.64,15.52,15.52,0,0,0,.17-2.53l1.93-.29L60,304.36l-1.93.29a19.58,19.58,0,0,0-.8-2.51A5.14,5.14,0,0,0,56,300.19a4,4,0,0,0-2.54-.95,27.51,27.51,0,0,0-5.34.44l-19.76,3a8.07,8.07,0,0,0-2.74.84,4.47,4.47,0,0,0-1.6,1.43,5.52,5.52,0,0,0-.77,2.24,10.34,10.34,0,0,0-.05,2.48l-1.93.29-2-13.17,27.33-15.44L21,275.54a24.87,24.87,0,0,0-2.93-.46,13.16,13.16,0,0,0-2-.1l-1.9-12.6,1.93-.29a15.6,15.6,0,0,0,.54,1.91,14.37,14.37,0,0,0,.67,1.67,2.06,2.06,0,0,0,1.28,1.09,4.25,4.25,0,0,0,1.71.07l27.85-4.2a9.54,9.54,0,0,0,2.38-.69,2.79,2.79,0,0,0,1-1.36,6.16,6.16,0,0,0,.36-1.8,12.9,12.9,0,0,0,.09-2Z"/><path class="cls-3" d="M54.33,236.67l-.43,17.59-1.95,0c0-.5-.06-1.21-.11-2.15a7.73,7.73,0,0,0-.29-2,2.71,2.71,0,0,0-.94-1.35,3.16,3.16,0,0,0-1.71-.45l-28.3-.69a3.7,3.7,0,0,0-1.61.26,2.49,2.49,0,0,0-1.13,1.4,16.36,16.36,0,0,0-.67,2.07,14.09,14.09,0,0,0-.39,2l-2,0,.43-17.59,2,0a16.82,16.82,0,0,0,.16,2,14,14,0,0,0,.4,2.08,2.17,2.17,0,0,0,1,1.43,3.85,3.85,0,0,0,1.64.4l28.27.69a3.28,3.28,0,0,0,1.62-.36,2.76,2.76,0,0,0,1.15-1.34,16.93,16.93,0,0,0,.87-4.08Z"/><path class="cls-3" d="M39.92,208.52a9,9,0,0,1,3.25-1.38,11.24,11.24,0,0,1,3.86,0,10.9,10.9,0,0,1,7.9,5,13.89,13.89,0,0,1,2,9.88A17.39,17.39,0,0,1,55.35,227a20,20,0,0,1-2.59,4.19l1.82,1.46-.31,2.18L41,233.34l.31-2.2a29.43,29.43,0,0,0,4.66-1,15.75,15.75,0,0,0,4-1.88,11.06,11.06,0,0,0,3-2.94,9.71,9.71,0,0,0,1.59-4.27,10.1,10.1,0,0,0,0-3.35,5.53,5.53,0,0,0-3-4.08,8.74,8.74,0,0,0-2.74-.82,7.86,7.86,0,0,0-4.51.68A8.21,8.21,0,0,0,40.74,217c-.64,1.12-1.35,2.39-2.14,3.84s-1.52,2.68-2.18,3.72a12.92,12.92,0,0,1-4.59,4.52,10.12,10.12,0,0,1-6.49.92,9.59,9.59,0,0,1-4-1.49,10.9,10.9,0,0,1-3-3.05,11.77,11.77,0,0,1-1.68-4.06,13,13,0,0,1-.16-4.61A13.37,13.37,0,0,1,18,212.1a24,24,0,0,1,2.46-3.58l-1.69-1.38.31-2.18,12.87,1.63-.32,2.21c-1.53.19-3,.43-4.42.74A15.08,15.08,0,0,0,23.27,211a9.06,9.06,0,0,0-2.93,2.5,8.55,8.55,0,0,0-1.54,4,6.4,6.4,0,0,0,1,4.65,5.32,5.32,0,0,0,3.8,2.41A7.08,7.08,0,0,0,28,224a8.7,8.7,0,0,0,3.2-3,42.7,42.7,0,0,0,2.22-3.67c.64-1.22,1.32-2.38,2-3.51a27.24,27.24,0,0,1,2.06-2.91A11.77,11.77,0,0,1,39.92,208.52Z"/><path class="cls-3" d="M48.22,178.43a9.13,9.13,0,0,1,3.41-.89,11.19,11.19,0,0,1,3.82.52,10.87,10.87,0,0,1,7.09,6.11,13.86,13.86,0,0,1,.5,10.06A17.28,17.28,0,0,1,60.77,199a20.47,20.47,0,0,1-3.18,3.77l1.59,1.71-.63,2.11-12.93-3.46.64-2.14a28.47,28.47,0,0,0,4.74-.26,15.49,15.49,0,0,0,4.27-1.27A10.86,10.86,0,0,0,58.71,197a9.7,9.7,0,0,0,2.19-4,10.05,10.05,0,0,0,.48-3.32,5.93,5.93,0,0,0-.69-2.61A5.74,5.74,0,0,0,59,185.23,8.58,8.58,0,0,0,56.43,184a7.91,7.91,0,0,0-4.57,0,8.14,8.14,0,0,0-4.07,2.89q-1.2,1.52-2.68,3.49c-1,1.31-1.9,2.43-2.71,3.36a13,13,0,0,1-5.2,3.8,10,10,0,0,1-6.55,0,9.57,9.57,0,0,1-3.72-2.06A10.76,10.76,0,0,1,24.37,192a11.62,11.62,0,0,1-1.07-4.26,13,13,0,0,1,.52-4.58,13.41,13.41,0,0,1,2.17-4.4,23.87,23.87,0,0,1,3-3.18L27.48,174l.63-2.11,12.49,3.5L40,177.49c-1.54,0-3,0-4.48.09a15.31,15.31,0,0,0-4.1.83,9.16,9.16,0,0,0-3.26,2.05A8.47,8.47,0,0,0,26,184.2a6.38,6.38,0,0,0,.34,4.75,5.31,5.31,0,0,0,3.4,2.94,7.15,7.15,0,0,0,4.36.07,8.63,8.63,0,0,0,3.61-2.52,42.27,42.27,0,0,0,2.73-3.31C41.27,185,42.1,184,43,183a27.48,27.48,0,0,1,2.47-2.59A12,12,0,0,1,48.22,178.43Z"/><path class="cls-3" d="M73.46,164.79l-7,16.15-1.8-.77c.17-.47.4-1.15.7-2a7.34,7.34,0,0,0,.48-1.95,2.65,2.65,0,0,0-.37-1.6,3,3,0,0,0-1.42-1.06l-26-11.21a3.93,3.93,0,0,0-1.6-.36,2.49,2.49,0,0,0-1.56.89,13.86,13.86,0,0,0-1.39,1.66,12.66,12.66,0,0,0-1.13,1.75l-1.8-.78,7-16.15,1.79.77a17,17,0,0,0-.61,1.95,12.94,12.94,0,0,0-.4,2.08,2.1,2.1,0,0,0,.43,1.71,3.67,3.67,0,0,0,1.37,1l26,11.19a3.16,3.16,0,0,0,1.63.27,2.75,2.75,0,0,0,1.57-.81,12.86,12.86,0,0,0,1.19-1.54A14.42,14.42,0,0,0,71.66,164Z"/><path class="cls-3" d="M58.91,120.93a19.15,19.15,0,0,1,7.67-.13,23.32,23.32,0,0,1,8,3.08,22.94,22.94,0,0,1,6.49,5.61,18.72,18.72,0,0,1,3.44,6.86,17.85,17.85,0,0,1,.45,7.2,18.52,18.52,0,0,1-2.47,6.92,18.31,18.31,0,0,1-5.18,5.68,17.28,17.28,0,0,1-6.69,2.91,19.07,19.07,0,0,1-7.57,0,23.08,23.08,0,0,1-7.73-3,22.62,22.62,0,0,1-6.53-5.63,19.91,19.91,0,0,1-3.44-6.83,17.79,17.79,0,0,1-.46-7.29,18.37,18.37,0,0,1,2.45-6.89,18.65,18.65,0,0,1,5-5.54A17.5,17.5,0,0,1,58.91,120.93Zm21.67,17.73a18,18,0,0,0-3.71-4.83,32,32,0,0,0-5.72-4.23,32.2,32.2,0,0,0-6.73-3.12,18.21,18.21,0,0,0-6.1-1,11,11,0,0,0-5.08,1.39,10.34,10.34,0,0,0-3.81,3.82,10.08,10.08,0,0,0-1.58,5.6,11.81,11.81,0,0,0,1.54,5.31,19.48,19.48,0,0,0,3.82,4.67,33.49,33.49,0,0,0,5.51,4.08,32.36,32.36,0,0,0,6.52,3.06,18.07,18.07,0,0,0,6,1,11,11,0,0,0,5.17-1.27,10.24,10.24,0,0,0,3.94-3.93A10.45,10.45,0,0,0,81.92,144,10.81,10.81,0,0,0,80.58,138.66Z"/><path class="cls-3" d="M89.18,80.37a12.17,12.17,0,0,0-1.24,2.06,8.22,8.22,0,0,0-.87,2.28,3.83,3.83,0,0,0,1.1,2.75A28.22,28.22,0,0,0,91.65,91l21.45,18.93-1.58,1.79-39.64-3.39L87,121.66a23.81,23.81,0,0,0,4.18,3.13,4.9,4.9,0,0,0,2.81.73,6.44,6.44,0,0,0,2.57-1.22,17.11,17.11,0,0,0,2.15-1.59l1.46,1.29-10.6,12-1.46-1.3a15.67,15.67,0,0,0,1.25-2.23,6.55,6.55,0,0,0,.81-2.23,4.06,4.06,0,0,0-.89-2.55,28.55,28.55,0,0,0-3.82-3.84L71,111.13a7.77,7.77,0,0,0-2.2-1.34,4.64,4.64,0,0,0-2.24-.41,8.27,8.27,0,0,0-3,1A9.53,9.53,0,0,0,61.3,112l-1.46-1.3,7.38-8.37,36.87,3.24L90.15,93.24a23.47,23.47,0,0,0-4.22-3.14,4.11,4.11,0,0,0-2.66-.66,8.94,8.94,0,0,0-2.43,1.21,14.23,14.23,0,0,0-2.18,1.63L77.2,91,87.71,79.07Z"/><path class="cls-3" d="M137,49.13a19.4,19.4,0,0,1,6.92,3.3,23.4,23.4,0,0,1,5.78,6.32A23,23,0,0,1,153,66.67a18.92,18.92,0,0,1,0,7.68A17.83,17.83,0,0,1,150.19,81a18.15,18.15,0,0,1-5.3,5.09,18.36,18.36,0,0,1-7.16,2.78,17.52,17.52,0,0,1-7.29-.38,19.37,19.37,0,0,1-6.78-3.36,24.61,24.61,0,0,1-8.93-14.06,19.7,19.7,0,0,1,0-7.65,17.65,17.65,0,0,1,2.84-6.72,18.32,18.32,0,0,1,5.26-5.08,18.7,18.7,0,0,1,7-2.72A17.54,17.54,0,0,1,137,49.13Zm11.49,25.54a18.55,18.55,0,0,0-1.17-6,32.7,32.7,0,0,0-3.23-6.33,32.32,32.32,0,0,0-4.64-5.79,18.1,18.1,0,0,0-5-3.58,11.09,11.09,0,0,0-5.17-1,10.41,10.41,0,0,0-5.11,1.73,10,10,0,0,0-3.91,4.3,11.84,11.84,0,0,0-1,5.44,19.47,19.47,0,0,0,1.33,5.89,35.73,35.73,0,0,0,7.58,11.75,18.29,18.29,0,0,0,5,3.56,11.09,11.09,0,0,0,5.19,1.16A10.16,10.16,0,0,0,143.57,84a10.35,10.35,0,0,0,3.73-4A10.77,10.77,0,0,0,148.47,74.67Z"/><path class="cls-3" d="M183.45,26a11.85,11.85,0,0,0-2,1.28,8.54,8.54,0,0,0-1.81,1.64,3.91,3.91,0,0,0-.26,2.95,29.36,29.36,0,0,0,1.51,4.73l10.58,26.58-2.22.89L155.39,43.1l7.45,18.72a24.57,24.57,0,0,0,2.32,4.68,4.84,4.84,0,0,0,2.17,1.92,6.53,6.53,0,0,0,2.85.08,15.37,15.37,0,0,0,2.64-.46l.72,1.82-14.89,5.93L157.93,74a16,16,0,0,0,2.13-1.42,6.94,6.94,0,0,0,1.72-1.62,4,4,0,0,0,.36-2.68,27.56,27.56,0,0,0-1.67-5.16l-7.12-17.88A7.69,7.69,0,0,0,152,43a4.71,4.71,0,0,0-1.83-1.38,8.22,8.22,0,0,0-3.07-.45,9.81,9.81,0,0,0-2.8.36l-.72-1.82L154,35.6l31.42,19.55L178.5,37.89a24.26,24.26,0,0,0-2.34-4.71,4.2,4.2,0,0,0-2.08-1.79,9.13,9.13,0,0,0-2.72,0,14,14,0,0,0-2.67.47L168,30l14.77-5.88Z"/><path class="cls-3" d="M252.28,53.77l-16.15.82,0-2L238,52.3a5.31,5.31,0,0,0,1.68-.48,2.28,2.28,0,0,0,1.12-1.11,3.48,3.48,0,0,0,.23-1.77l-1.23-13.55L221.5,37l1.2,13.55a3.77,3.77,0,0,0,.46,1.59,2.77,2.77,0,0,0,1.35,1,7.24,7.24,0,0,0,1.7.34,12,12,0,0,0,1.91.11l.17,2-15.77,2.55L212.14,56A28.07,28.07,0,0,0,215.46,55c1.66-.75,1.55-2.22,1.43-3.56l-2.5-28.09a3.63,3.63,0,0,0-.5-1.57,2.55,2.55,0,0,0-1.34-1,10.13,10.13,0,0,0-1.85-.47,10.25,10.25,0,0,0-1.85-.16l-.18-1.95,16.21-1.86.18,1.95a12.1,12.1,0,0,0-1.86.41,12.41,12.41,0,0,0-1.62.56,2,2,0,0,0-1.15,1.21,4.35,4.35,0,0,0-.17,1.7l1,12.49L239.57,33l-1.13-12.34a3.55,3.55,0,0,0-.5-1.57,2.43,2.43,0,0,0-1.33-1,9.67,9.67,0,0,0-1.86-.47,10.3,10.3,0,0,0-1.85-.17l-.17-2L249,14.53l.17,2a11.76,11.76,0,0,0-1.85.41,15.21,15.21,0,0,0-1.63.56,2,2,0,0,0-1.15,1.21,4.35,4.35,0,0,0-.16,1.7l2.5,28.22a3.78,3.78,0,0,0,.45,1.59,2.7,2.7,0,0,0,1.36,1,7,7,0,0,0,1.7.35,11.68,11.68,0,0,0,1.9.1Z"/><path class="cls-3" d="M272.73,54.11,255,53.73,255,51.65l2.15-.19a7.8,7.8,0,0,0,2-.35A2.71,2.71,0,0,0,261,48.55l.77-28.46a3.78,3.78,0,0,0-.26-1.62,2.48,2.48,0,0,0-1.4-1.12,14.6,14.6,0,0,0-2.06-.68,13,13,0,0,0-2-.4l0-1.95,17.59.48-.06,1.95q-.85,0-2,.15a13.85,13.85,0,0,0-2.07.4,2.17,2.17,0,0,0-1.44,1,3.78,3.78,0,0,0-.4,1.64l-.78,28.26a3.52,3.52,0,0,0,1.92,3.1,14.06,14.06,0,0,0,1.89.46,13,13,0,0,0,2.22.27Z"/><path class="cls-3" d="M312.17,46l-1.79-.09a6.48,6.48,0,0,0-1.87.15,2.44,2.44,0,0,0-1.38.91,4.43,4.43,0,0,0-.69,1.68l-.59,3c-.43,2.16-.71,3.63-.84,4.39s-.21,1.38-.28,1.88a41.57,41.57,0,0,1-7.65,1,30,30,0,0,1-7.16-.54,18.88,18.88,0,0,1-6.8-2.8A17.91,17.91,0,0,1,278,50.49a19.18,19.18,0,0,1-2.83-7.05,21.73,21.73,0,0,1,.14-8.52,22.73,22.73,0,0,1,3.07-7.83,19.61,19.61,0,0,1,5.39-5.67,18.36,18.36,0,0,1,7-3,19.83,19.83,0,0,1,7.9,0,18.51,18.51,0,0,1,5.48,1.91,20.6,20.6,0,0,1,3.86,2.74l1.48-1.61,2.16.43-2.44,13.44-2.22-.44a38.48,38.48,0,0,0-.53-4.65A15.35,15.35,0,0,0,305,26a10.3,10.3,0,0,0-2.68-3.36A9.76,9.76,0,0,0,298,20.73a11.21,11.21,0,0,0-5.39.14,11.53,11.53,0,0,0-4.65,2.7,16.83,16.83,0,0,0-3.66,5.09,29.65,29.65,0,0,0-2.4,7.3,27.09,27.09,0,0,0-.5,7,17.91,17.91,0,0,0,1.44,6.09,12.44,12.44,0,0,0,3.43,4.63,12,12,0,0,0,5.43,2.52,12.62,12.62,0,0,0,4.48.14,8,8,0,0,0,3.08-1,20.67,20.67,0,0,0,.8-2.79c.2-.95.37-1.76.5-2.43l.42-2.1A6.22,6.22,0,0,0,301,46a2.23,2.23,0,0,0-1-1.54,8.92,8.92,0,0,0-2.29-1.09c-1-.34-1.77-.58-2.34-.73l.39-2L312.57,44Z"/><path class="cls-3" d="M343.33,77.43l-14.58-6.51.75-1.8,1.83.58a5.65,5.65,0,0,0,1.72.35,2.29,2.29,0,0,0,1.5-.46,3.4,3.4,0,0,0,1-1.46l5.34-12.84-17-7.06-5.22,12.56a3.66,3.66,0,0,0-.33,1.62,2.66,2.66,0,0,0,.71,1.55,7.05,7.05,0,0,0,1.35,1.1,11.55,11.55,0,0,0,1.64,1l-.76,1.8-15-6.23.75-1.8,1.83.58a5.75,5.75,0,0,0,1.72.36,2.35,2.35,0,0,0,1.5-.46,3.59,3.59,0,0,0,1-1.47l10.83-26a3.76,3.76,0,0,0,.29-1.63,2.51,2.51,0,0,0-.71-1.53,9.71,9.71,0,0,0-1.42-1.27,9.58,9.58,0,0,0-1.56-1l.75-1.81,15,6.23-.75,1.81a12,12,0,0,0-1.84-.5,12.87,12.87,0,0,0-1.69-.26,1.92,1.92,0,0,0-1.58.54,4.19,4.19,0,0,0-.94,1.43L324.91,46,341.86,53l4.55-10.93a3.71,3.71,0,0,0,.29-1.62,2.51,2.51,0,0,0-.71-1.53,9.72,9.72,0,0,0-1.42-1.28,10.31,10.31,0,0,0-1.56-1l.75-1.8,15,6.23-.75,1.8a13.33,13.33,0,0,0-1.84-.5,14.35,14.35,0,0,0-1.69-.25,2,2,0,0,0-1.58.53,4.45,4.45,0,0,0-.94,1.43l-10.82,26a4.82,4.82,0,0,0-.36,1.72,2.75,2.75,0,0,0,.61,1.6,7.34,7.34,0,0,0,1.27,1.18,13.34,13.34,0,0,0,1.57,1.08Z"/><path class="cls-3" d="M378.57,86.77l-7,9.18-27-17.86,1-1.68c.47.28,1.13.62,2,1a7.14,7.14,0,0,0,1.7.68,2.47,2.47,0,0,0,1.61-.22,3.59,3.59,0,0,0,1.22-1.21l15.5-23.41a4,4,0,0,0,.64-1.51,2.34,2.34,0,0,0-.42-1.65,9.53,9.53,0,0,0-1.32-1.64,14.55,14.55,0,0,0-1.48-1.37l1.08-1.63,25.2,16.69L386.13,70l-1.72-1.14a12.61,12.61,0,0,0,.47-5c-.15-2-.64-3.34-1.48-4.07-.43-.38-1-.8-1.61-1.26s-1.38-1-2.22-1.54l-5.12-3.39-8.57,13L369.55,69a8.91,8.91,0,0,0,2.81,1.38,4.29,4.29,0,0,0,2.17-.17,7,7,0,0,0,2-1.21,13.27,13.27,0,0,0,1.86-1.78l1.72,1.14L371.7,81.09,370,80a12.39,12.39,0,0,0,1-2.66,7.21,7.21,0,0,0,.35-2.33,3.91,3.91,0,0,0-.85-2.24,10,10,0,0,0-2.21-1.87l-3.68-2.43-6.46,9.76a12.59,12.59,0,0,0-1.33,2.45,2.61,2.61,0,0,0,0,1.82,4.23,4.23,0,0,0,1.26,1.64,32.21,32.21,0,0,0,2.86,2.07l2,1.33c.83.54,1.55,1,2.15,1.29a15.67,15.67,0,0,0,2,.86,3.32,3.32,0,0,0,1.75.22A17.72,17.72,0,0,0,373.26,88a27.17,27.17,0,0,0,3.66-2.31Z"/><path class="cls-3" d="M400.12,122.87l-7.62-7.25q1.25-6.37,2-11.22t1.24-10.18l-2.9-2.76-8.54,9a4.25,4.25,0,0,0-.95,1.43,2.13,2.13,0,0,0,.17,1.7,8.66,8.66,0,0,0,1,1.46c.52.65,1,1.17,1.38,1.58L384.52,108,372.6,96.75l1.3-1.53c.35.28.85.67,1.52,1.18a6.62,6.62,0,0,0,1.52.95,2.4,2.4,0,0,0,1.58.07,3.76,3.76,0,0,0,1.49-1l19.47-20.46a4.69,4.69,0,0,0,1-1.43,2,2,0,0,0-.16-1.71,13.64,13.64,0,0,0-1-1.56,17.75,17.75,0,0,0-1.18-1.48l1.35-1.41,13.06,12.43a20.17,20.17,0,0,1,3,3.57,12.69,12.69,0,0,1,1.73,3.91A8,8,0,0,1,415.07,96a10.66,10.66,0,0,1-3.25,2.42,8.22,8.22,0,0,1-3.54.77,12.49,12.49,0,0,1-3.57-.56,22.65,22.65,0,0,1-3.79-1.58q-.54,4.77-1,8c-.28,2.15-.61,4.76-1,7.85a12.88,12.88,0,0,0-.1,3.27,11.45,11.45,0,0,0,.53,2.27,6.65,6.65,0,0,0,.91,1.63,11.94,11.94,0,0,0,1.15,1.39Zm9.58-31.08a7.11,7.11,0,0,0-.34-10.94L406,77.62,394.43,89.75,397,92.23a8.51,8.51,0,0,0,12.66-.44Z"/><path class="cls-3" d="M435.45,156l-10.18,5.42-17-27.59,1.66-1c.32.45.77,1,1.36,1.75a6.87,6.87,0,0,0,1.26,1.33,2.44,2.44,0,0,0,1.55.48,3.62,3.62,0,0,0,1.61-.59L439.55,121a3.93,3.93,0,0,0,1.21-1.1,2.35,2.35,0,0,0,.31-1.68,9.65,9.65,0,0,0-.51-2,15.69,15.69,0,0,0-.77-1.87l1.66-1L457.35,139l-8,5-1.09-1.76a12.76,12.76,0,0,0,2.53-4.36q1-2.81.36-4.32c-.24-.52-.55-1.13-.93-1.82s-.84-1.47-1.37-2.32l-3.23-5.23-13.21,8.17,2.32,3.74a8.76,8.76,0,0,0,2,2.43,4.26,4.26,0,0,0,2,.76,7.08,7.08,0,0,0,2.36-.24,13.38,13.38,0,0,0,2.44-.85l1.09,1.76-13,8.05-1.09-1.76a12.22,12.22,0,0,0,2.07-2,7.19,7.19,0,0,0,1.28-2,4,4,0,0,0,.18-2.39,10.78,10.78,0,0,0-1.23-2.62l-2.32-3.75-10,6.16a12.65,12.65,0,0,0-2.23,1.67,2.55,2.55,0,0,0-.8,1.63,4.07,4.07,0,0,0,.45,2,32.55,32.55,0,0,0,1.72,3.08l1.26,2a22.9,22.9,0,0,0,1.41,2.08,16.92,16.92,0,0,0,1.48,1.63,3.28,3.28,0,0,0,1.5.93,17.48,17.48,0,0,0,4.8.15,27.52,27.52,0,0,0,4.3-.56Z"/><path class="cls-3" d="M457.64,190.84a18.77,18.77,0,0,1-8.74,1.36,17.63,17.63,0,0,1-7.35-2.4,21.09,21.09,0,0,1-5.71-5.09,26.45,26.45,0,0,1-3.87-6.86l-6-14.72,1.76-.85a20.15,20.15,0,0,0,1,1.81,6.24,6.24,0,0,0,1.05,1.38,2.35,2.35,0,0,0,1.47.62,3.81,3.81,0,0,0,1.65-.23l26.31-10.12a4.11,4.11,0,0,0,1.46-.9,2.35,2.35,0,0,0,.65-1.59,7.49,7.49,0,0,0-.09-1.94c-.12-.66-.25-1.23-.38-1.68l1.82-.71,6.13,15.94a22.79,22.79,0,0,1,1.47,6.86,20.77,20.77,0,0,1-.6,6.61,17,17,0,0,1-4.05,7.34A20.89,20.89,0,0,1,457.64,190.84Zm-2.41-6.3a22.52,22.52,0,0,0,6.26-3.53,16.24,16.24,0,0,0,4.08-4.84,13.42,13.42,0,0,0,1.64-5.63,14.42,14.42,0,0,0-1-6.21c-.27-.7-.59-1.49-1-2.36s-.64-1.52-.82-1.94l-28,10.77a3.84,3.84,0,0,0-2.71,2.61,8.3,8.3,0,0,0,.71,4.53,14.09,14.09,0,0,0,3.35,5.26,11.12,11.12,0,0,0,4.73,2.73,15.54,15.54,0,0,0,5.89.4A28.46,28.46,0,0,0,455.23,184.54Z"/><path class="cls-3" d="M482.73,227.37a14.6,14.6,0,0,0-.74-2.16,6.9,6.9,0,0,0-1.35-2.21,3.83,3.83,0,0,0-2.81-.79,27.12,27.12,0,0,0-4.82.55l-16.7,3.15a11.39,11.39,0,0,1-5.79-.27,11.83,11.83,0,0,1-4.53-2.76,14.76,14.76,0,0,1-2.95-4.11,17.8,17.8,0,0,1-1.49-4.41,19.73,19.73,0,0,1-.26-6.34,13.93,13.93,0,0,1,1.59-5,10.46,10.46,0,0,1,3-3.4,10.15,10.15,0,0,1,4-1.71l22.7-4.28a3.72,3.72,0,0,0,1.52-.61,3,3,0,0,0,.94-1.48,6.71,6.71,0,0,0,.29-1.85,13.63,13.63,0,0,0-.05-1.79l1.92-.36,3,16-1.92.36a12.91,12.91,0,0,0-.6-1.86,11.58,11.58,0,0,0-.73-1.61,1.94,1.94,0,0,0-1.31-1,4.47,4.47,0,0,0-1.71,0l-21.19,4a18,18,0,0,0-3.17,1,8.61,8.61,0,0,0-2.89,1.94,8,8,0,0,0-1.89,3.33,10.91,10.91,0,0,0,0,5.15,11.81,11.81,0,0,0,1.89,4.82,8.38,8.38,0,0,0,3.09,2.7,9.46,9.46,0,0,0,3.35,1,12.12,12.12,0,0,0,3.3-.15l15.73-3a24,24,0,0,0,4.83-1.36,4.15,4.15,0,0,0,2.26-1.75,7.49,7.49,0,0,0,.57-2.78,18.42,18.42,0,0,0,0-2.59l1.92-.36,3,15.69Z"/><path class="cls-3" d="M444.85,247.87a16.69,16.69,0,0,1,1.24-6.73,17,17,0,0,1,3.84-5.76,19.35,19.35,0,0,1,6.24-4,22.94,22.94,0,0,1,8.38-1.63,23.93,23.93,0,0,1,8.53,1.25,19.78,19.78,0,0,1,6.66,3.82,17.32,17.32,0,0,1,4.34,5.82,19,19,0,0,1,1,12.49,19.37,19.37,0,0,1-1.92,4.5l1.9,1.09,0,2.2-13.93.55-.05-2.26a32,32,0,0,0,4.39-1.41,17,17,0,0,0,4-2.15,10,10,0,0,0,2.87-3.2,8.09,8.09,0,0,0,1-4.17,10.71,10.71,0,0,0-1.29-4.94,11.35,11.35,0,0,0-3.59-3.9,17.41,17.41,0,0,0-5.72-2.38,30.51,30.51,0,0,0-7.71-.74,23.69,23.69,0,0,0-6.85,1.09,17.77,17.77,0,0,0-5.44,2.83,13.11,13.11,0,0,0-3.58,4.24,11,11,0,0,0-1.2,5.41,11.44,11.44,0,0,0,.79,4.08,10.81,10.81,0,0,0,1.92,3.2,14.48,14.48,0,0,0,2.81,2.36,15.19,15.19,0,0,0,3.39,1.64L456,263.2q-5.87-2.24-8.44-6.09A17,17,0,0,1,444.85,247.87Z"/><path class="cls-3" d="M439.75,299.86l3.1-15.29,1.93.3a18,18,0,0,0,0,3.61c.13,1,.39,1.49.79,1.56l.61,0a3.16,3.16,0,0,0,.65-.07l9.15-1.85,2.1-13.56c-1.19-.7-2.23-1.29-3.12-1.75s-1.72-.89-2.48-1.26a18.31,18.31,0,0,0-1.83-.79,6.08,6.08,0,0,0-1.18-.32c-.72-.12-1.37.37-2,1.45a14,14,0,0,0-1.31,3.75l-1.93-.3,2.26-14.54,1.93.3a13,13,0,0,0,0,1.82,5.8,5.8,0,0,0,.42,1.85,7,7,0,0,0,1.28,1.92,9.79,9.79,0,0,0,2,1.52q6.81,4,15.32,9L482.73,286l-.34,2.18-35.3,7.69a11.46,11.46,0,0,0-1.93.64,6.16,6.16,0,0,0-1.66,1,6.33,6.33,0,0,0-1.11,1.4,8.43,8.43,0,0,0-.77,1.54Zm18.8-12.32L474.44,284l-14.08-8.09Z"/><path class="cls-3" d="M457.88,336.33l.59-1.8a12.8,12.8,0,0,0,2.52-.12,21,21,0,0,0,2.9-.58,12.37,12.37,0,0,0,2.66-1,3.59,3.59,0,0,0,1.63-1.46c.24-.52.52-1.18.82-2s.57-1.57.8-2.27l.5-1.52-29.7-9.72a3.82,3.82,0,0,0-1.7-.15,2.65,2.65,0,0,0-1.54.92,18.89,18.89,0,0,0-1.14,1.81,15.5,15.5,0,0,0-1.11,2.23l-1.85-.6L439,302.51l1.86.61c-.12.5-.3,1.27-.52,2.31a9.35,9.35,0,0,0-.29,2.21,2.68,2.68,0,0,0,.57,1.59,3.28,3.28,0,0,0,1.58,1l29.93,9.8.5-1.52c.18-.54.38-1.21.62-2s.43-1.59.58-2.35a3.37,3.37,0,0,0-.44-2.13,14,14,0,0,0-1.55-2.41,18.34,18.34,0,0,0-2-2.2,14.94,14.94,0,0,0-1.92-1.55l.6-1.84,10.08,3.3L468,339.63Z"/><path class="cls-3" d="M422.76,343l7.62-15.86,1.76.85-.78,2a7.67,7.67,0,0,0-.56,1.93,2.63,2.63,0,0,0,.31,1.61,3.06,3.06,0,0,0,1.37,1.12L458,346.91a3.2,3.2,0,0,0,3.71-.5,17.51,17.51,0,0,0,1.51-1.55,13.48,13.48,0,0,0,1.25-1.66l1.74.9L458,359.92l-1.76-.85a17,17,0,0,0,.69-1.92,13.68,13.68,0,0,0,.49-2.06,2.19,2.19,0,0,0-.36-1.73,3.74,3.74,0,0,0-1.33-1l-25.49-12.25a3.1,3.1,0,0,0-1.62-.34,2.75,2.75,0,0,0-1.6.74,13.35,13.35,0,0,0-1.25,1.5,13.21,13.21,0,0,0-1.22,1.87Z"/><path class="cls-3" d="M435.1,387.93a19.11,19.11,0,0,1-7.66-.2,24.92,24.92,0,0,1-14.09-9.31,18.72,18.72,0,0,1-3.14-7,18,18,0,0,1-.13-7.21,19.1,19.1,0,0,1,8.19-12.26,17.52,17.52,0,0,1,6.82-2.61,19.23,19.23,0,0,1,7.55.31,23.1,23.1,0,0,1,7.6,3.31,22.65,22.65,0,0,1,6.28,5.91,19.6,19.6,0,0,1,3.13,7,17.74,17.74,0,0,1,.15,7.29,18.86,18.86,0,0,1-8,12.09A17.43,17.43,0,0,1,435.1,387.93Zm-20.88-18.66a18.18,18.18,0,0,0,3.51,5,35.33,35.33,0,0,0,12.12,7.88,18.47,18.47,0,0,0,6,1.23,11.13,11.13,0,0,0,5.14-1.17,10.3,10.3,0,0,0,4-3.65,10,10,0,0,0,1.82-5.52,11.75,11.75,0,0,0-1.3-5.38,19.55,19.55,0,0,0-3.61-4.83,33.27,33.27,0,0,0-5.33-4.32,32.75,32.75,0,0,0-6.38-3.34,18.19,18.19,0,0,0-6-1.23,11.12,11.12,0,0,0-5.23,1,11.16,11.16,0,0,0-5.87,9A10.68,10.68,0,0,0,414.22,369.27Z"/><path class="cls-3" d="M403.11,427.14a12.48,12.48,0,0,0,1.33-2,8.65,8.65,0,0,0,1-2.24,3.89,3.89,0,0,0-1-2.8,29.63,29.63,0,0,0-3.33-3.68l-20.61-19.84,1.66-1.73L421.6,400l-14.52-14a24.07,24.07,0,0,0-4-3.31,4.85,4.85,0,0,0-2.77-.85,6.36,6.36,0,0,0-2.63,1.1,14.6,14.6,0,0,0-2.21,1.51L394,383.07l11.11-11.55,1.41,1.36a14.75,14.75,0,0,0-1.35,2.18,6.75,6.75,0,0,0-.9,2.19,4,4,0,0,0,.78,2.58,27.78,27.78,0,0,0,3.65,4l13.86,13.35a8,8,0,0,0,2.13,1.44,4.76,4.76,0,0,0,2.23.5,8.44,8.44,0,0,0,3-.85,9.56,9.56,0,0,0,2.41-1.49l1.41,1.36-7.74,8-36.69-4.84,13.38,12.89a24.09,24.09,0,0,0,4.09,3.32,4.15,4.15,0,0,0,2.63.77,8.78,8.78,0,0,0,2.48-1.1,13.89,13.89,0,0,0,2.24-1.54l1.41,1.36-11,11.44Z"/><path class="cls-6" d="M647.14,134.38H631.6q-5.16-8.1-9.32-14t-9-12.16h-5.91v18.31a6.48,6.48,0,0,0,.45,2.5,3.15,3.15,0,0,0,1.91,1.64,12.35,12.35,0,0,0,2.56.53,30.56,30.56,0,0,0,3.1.29v2.89H590.93v-2.89c.65-.06,1.59-.15,2.83-.29a9.41,9.41,0,0,0,2.58-.53,3.51,3.51,0,0,0,1.77-1.54,5.42,5.42,0,0,0,.55-2.6V84.79a7.24,7.24,0,0,0-.41-2.52,3,3,0,0,0-1.91-1.67,17.86,17.86,0,0,0-2.64-.67,27.94,27.94,0,0,0-2.77-.39V76.66h26.64a30.29,30.29,0,0,1,6.88.75,18.45,18.45,0,0,1,5.81,2.42,12.07,12.07,0,0,1,4,4.25,12.55,12.55,0,0,1,1.51,6.32,15.86,15.86,0,0,1-1,5.9,12.2,12.2,0,0,1-3,4.44,18.33,18.33,0,0,1-4.39,3,33.32,33.32,0,0,1-5.66,2.17q4.28,5.66,7.1,9.52t6.94,9.4a19.79,19.79,0,0,0,3.23,3.6,17.26,17.26,0,0,0,2.87,1.89,9.82,9.82,0,0,0,2.64.81,20.47,20.47,0,0,0,2.64.33Zm-21.39-43a11.31,11.31,0,0,0-3-8.3c-2-2-4.84-3.07-8.5-3.07h-6.92v24.73h5.33a13,13,0,0,0,9.36-3.59Q625.75,97.53,625.75,91.36Z"/><path class="cls-6" d="M684,124.94a20.57,20.57,0,0,1-6.76,7.65,17.05,17.05,0,0,1-9.72,2.84,19.78,19.78,0,0,1-8.48-1.71,16.52,16.52,0,0,1-6-4.63,19.82,19.82,0,0,1-3.52-6.84,28.91,28.91,0,0,1-1.16-8.25,24.53,24.53,0,0,1,1.24-7.67,21.61,21.61,0,0,1,3.65-6.77A17.5,17.5,0,0,1,659,94.9a16.58,16.58,0,0,1,7.71-1.77,18.53,18.53,0,0,1,7.52,1.38,13.38,13.38,0,0,1,5.09,3.79,14.91,14.91,0,0,1,2.78,5.37,23.16,23.16,0,0,1,.92,6.71v2.68H656.42a31.57,31.57,0,0,0,.75,7.17,17.25,17.25,0,0,0,2.38,5.67,11.41,11.41,0,0,0,4.15,3.74,12.8,12.8,0,0,0,6.1,1.36,11.15,11.15,0,0,0,6.24-1.7,16.82,16.82,0,0,0,5.07-6.11Zm-9-15.3a32.8,32.8,0,0,0-.39-4.86,14.93,14.93,0,0,0-1.24-4.34,8.24,8.24,0,0,0-2.56-3,7,7,0,0,0-4.19-1.18,8.7,8.7,0,0,0-7.1,3.55c-1.89,2.36-2.91,5.66-3.07,9.87Z"/><path class="cls-6" d="M725.24,99a20.86,20.86,0,0,1,3.72,6.61,25.63,25.63,0,0,1,1.33,8.6,23,23,0,0,1-1.59,8.69,21.37,21.37,0,0,1-4.19,6.69,19.93,19.93,0,0,1-6.06,4.31,17,17,0,0,1-7.08,1.5,18.35,18.35,0,0,1-5.94-.81,14.17,14.17,0,0,1-3.78-1.91h-.32v12.07a4.76,4.76,0,0,0,.56,2.44,3.34,3.34,0,0,0,1.75,1.43,17.23,17.23,0,0,0,2.79.71,19.48,19.48,0,0,0,3,.39v2.69H687v-2.69c.84-.05,1.65-.12,2.44-.2a11.12,11.12,0,0,0,2.11-.41,2.71,2.71,0,0,0,1.71-1.42,5.44,5.44,0,0,0,.49-2.4V102.65a4.88,4.88,0,0,0-.61-2.36,5.25,5.25,0,0,0-1.59-1.83,5.53,5.53,0,0,0-2-.75,17.92,17.92,0,0,0-2.52-.35V94.68l13.66-.9.57.49v4.51l.33.09a17.43,17.43,0,0,1,5.25-4.07A13.32,13.32,0,0,1,713,93.17a14.83,14.83,0,0,1,6.85,1.59A16.68,16.68,0,0,1,725.24,99Zm-6.63,28.84A18.15,18.15,0,0,0,721,122a32.68,32.68,0,0,0,.78-7.44,29.8,29.8,0,0,0-.66-6.15,17.59,17.59,0,0,0-2-5.45,11.42,11.42,0,0,0-3.62-3.82A10.6,10.6,0,0,0,705,99a15.47,15.47,0,0,0-3.66,3.15v23.71a8.39,8.39,0,0,0,1.2,2.28,10.4,10.4,0,0,0,1.85,2,11.8,11.8,0,0,0,2.72,1.64,9.07,9.07,0,0,0,3.58.63,8.77,8.77,0,0,0,4.39-1.2A10.22,10.22,0,0,0,718.61,127.87Z"/><path class="cls-6" d="M779.18,133.64l-13.1.9-.61-.57v-5.09h-.24c-.65.68-1.39,1.41-2.19,2.18a16.07,16.07,0,0,1-2.81,2.1,17.7,17.7,0,0,1-3.53,1.66,16,16,0,0,1-4.83.57q-5.32,0-8.11-3.47T741,121.82V102.64a4.93,4.93,0,0,0-.55-2.45,5.08,5.08,0,0,0-1.61-1.73,5.18,5.18,0,0,0-1.85-.71,18.47,18.47,0,0,0-2.33-.31V94.76l13.38-1,.61.57v27.86q0,4.37,2,6.55a6,6,0,0,0,4.68,2.2,10.84,10.84,0,0,0,4-.69,11.75,11.75,0,0,0,2.93-1.63,13.92,13.92,0,0,0,1.93-1.8,11,11,0,0,0,1.28-1.77V102.36a4.84,4.84,0,0,0-.57-2.38,5.35,5.35,0,0,0-1.59-1.77,4.58,4.58,0,0,0-2.17-.59l-3.24-.18V94.76l14.61-1,.61.57v31.82a4.57,4.57,0,0,0,.57,2.35,5.33,5.33,0,0,0,1.58,1.67,4.76,4.76,0,0,0,1.75.59c.68.09,1.43.15,2.24.18Z"/><path class="cls-6" d="M824.82,114.28a21.45,21.45,0,0,1-5.7,15.17q-5.68,6.15-13.22,6.15a21.14,21.14,0,0,1-6.48-1,27.62,27.62,0,0,1-6-2.73l-3,4.68-2.53-.57c.14-2,.23-4.42.29-7.25s.08-5.54.08-8.18V80.81a6.64,6.64,0,0,0-.63-2.77,4.39,4.39,0,0,0-1.61-2,6.3,6.3,0,0,0-2.58-.8c-1.21-.17-2.18-.29-2.91-.34V72.3l14.73-.89.57.61V98.46l.28.08a17.39,17.39,0,0,1,5.51-4,14.37,14.37,0,0,1,5.88-1.34A15.55,15.55,0,0,1,819.86,99Q824.81,104.88,824.82,114.28Zm-8.5.29a30.48,30.48,0,0,0-.65-6.15,17.85,17.85,0,0,0-2-5.45A11.42,11.42,0,0,0,810,99.15a9.55,9.55,0,0,0-5.37-1.46,10.63,10.63,0,0,0-5,1.11,13.67,13.67,0,0,0-3.84,3v23.35a10,10,0,0,0,.95,2.28,10.14,10.14,0,0,0,4.7,4.33,8.92,8.92,0,0,0,3.78.71q5,0,8-4.8T816.32,114.57Z"/><path class="cls-6" d="M849.55,134.38H830v-2.69l2-.18a9.44,9.44,0,0,0,1.75-.31,3,3,0,0,0,1.7-1.28,4.44,4.44,0,0,0,.57-2.38V81.06a6.21,6.21,0,0,0-.63-2.76,5.4,5.4,0,0,0-1.64-2A8.32,8.32,0,0,0,831,75.4a22.21,22.21,0,0,0-3.13-.49V72.3L843,71.41l.57.61v55a4.66,4.66,0,0,0,.53,2.34,3.39,3.39,0,0,0,1.71,1.41,9.53,9.53,0,0,0,1.77.61,13.14,13.14,0,0,0,2,.28Z"/><path class="cls-6" d="M874,134.38H854.67v-2.69l1.94-.16a7.39,7.39,0,0,0,1.73-.33,2.9,2.9,0,0,0,1.68-1.28,4.5,4.5,0,0,0,.55-2.37V102.8a4.83,4.83,0,0,0-.59-2.38,5.31,5.31,0,0,0-1.64-1.8,7.83,7.83,0,0,0-2.24-.83,16.21,16.21,0,0,0-2.69-.43V94.68l14.16-.9.57.57v32.7a4.66,4.66,0,0,0,.54,2.36,3.26,3.26,0,0,0,1.72,1.39,14.29,14.29,0,0,0,1.74.59,10.23,10.23,0,0,0,1.9.3ZM869,78a5.94,5.94,0,0,1-1.52,4,4.87,4.87,0,0,1-7.37.09,5.43,5.43,0,0,1-1.52-3.77,5.61,5.61,0,0,1,1.52-3.9,4.75,4.75,0,0,1,3.6-1.67,5,5,0,0,1,3.81,1.57A5.1,5.1,0,0,1,869,78Z"/><path class="cls-6" d="M897.55,135.43q-8.71,0-13.63-5.77T879,114.16a23.24,23.24,0,0,1,1.32-7.91,21.67,21.67,0,0,1,3.84-6.69,18.06,18.06,0,0,1,13.92-6.43,15.36,15.36,0,0,1,9.6,2.83,9.19,9.19,0,0,1,3.7,7.71,6.64,6.64,0,0,1-1,3.59,3.48,3.48,0,0,1-3.21,1.57,5.34,5.34,0,0,1-3.72-1.21,3.63,3.63,0,0,1-1.33-2.72,15.45,15.45,0,0,1,.49-3.75,19.33,19.33,0,0,0,.57-2.82A3.57,3.57,0,0,0,901,96.65a10.7,10.7,0,0,0-3.1-.43,8.57,8.57,0,0,0-3.72.84,9.4,9.4,0,0,0-3.42,3.07,16.13,16.13,0,0,0-2.44,5.49,32,32,0,0,0-.93,8.25q0,7.57,3.35,12.35a10.27,10.27,0,0,0,8.79,4.78,10.9,10.9,0,0,0,6.6-1.93,18.72,18.72,0,0,0,4.94-5.76l2.6,1.71a21,21,0,0,1-7.08,7.61A16.63,16.63,0,0,1,897.55,135.43Z"/><path class="cls-6" d="M976.05,113.92a26.57,26.57,0,0,1-1.34,8.31,19.82,19.82,0,0,1-3.83,6.94,17.75,17.75,0,0,1-6.52,4.84,20.82,20.82,0,0,1-8.3,1.59,18.78,18.78,0,0,1-7.29-1.45,18.2,18.2,0,0,1-6.15-4.21,20,20,0,0,1-4.21-6.65,23.48,23.48,0,0,1-1.57-8.81q0-9.39,5.48-15.37t14.35-6a18.47,18.47,0,0,1,13.9,5.67Q976.06,104.49,976.05,113.92Zm-8.42.08a36.15,36.15,0,0,0-.61-6.45,20.12,20.12,0,0,0-1.83-5.76,11.13,11.13,0,0,0-3.43-4,8.58,8.58,0,0,0-5.17-1.53,9.14,9.14,0,0,0-5.36,1.55,11.35,11.35,0,0,0-3.6,4.23,18.31,18.31,0,0,0-1.84,5.65,37.65,37.65,0,0,0-.53,6.14,38.67,38.67,0,0,0,.63,7.22,20.55,20.55,0,0,0,2,5.92A11.36,11.36,0,0,0,951.4,131a8.72,8.72,0,0,0,5.19,1.48q5.1,0,8.07-4.92T967.63,114Z"/><path class="cls-6" d="M1011.68,76.29a4.89,4.89,0,0,1-1,3.09,3.52,3.52,0,0,1-3,1.26,4.45,4.45,0,0,1-2.22-.53,7,7,0,0,1-1.77-1.42,13.34,13.34,0,0,1-1.5-2c-.46-.76-.86-1.37-1.18-1.83q-2.73.12-4.21,3.79t-1.49,11.71v4.1h10.34v3.91H995.37v28.8a4.41,4.41,0,0,0,.55,2.31,3.37,3.37,0,0,0,1.73,1.35,12.82,12.82,0,0,0,2.6.59c1.09.15,2,.25,2.81.3v2.69H981.91v-2.69l1.93-.16a7.29,7.29,0,0,0,1.73-.33,2.92,2.92,0,0,0,1.69-1.28,4.63,4.63,0,0,0,.55-2.38V98.34h-7.93V94.43h7.93V91.88q0-9.15,4.74-14.8a14.82,14.82,0,0,1,11.85-5.67,8.76,8.76,0,0,1,5.45,1.42A4.25,4.25,0,0,1,1011.68,76.29Z"/><path class="cls-6" d="M1053.78,132.63q-2.64,1.1-5,1.85a19.24,19.24,0,0,1-5.77.75c-3.37,0-5.73-.85-7.1-2.54s-2.06-4.09-2.06-7.18V98.34h-7.24V94.43H1034V81.94h7.4V94.43h11.51v3.91H1041.5v22.41a40.92,40.92,0,0,0,.18,4.21,8,8,0,0,0,.88,3,4.2,4.2,0,0,0,2,1.79,8.46,8.46,0,0,0,3.5.61c.68,0,1.67-.06,3-.19a13.09,13.09,0,0,0,2.78-.46Z"/><path class="cls-6" d="M1101.42,134.38h-19.73v-2.69l2.07-.16a7.61,7.61,0,0,0,1.87-.33,2.89,2.89,0,0,0,1.69-1.28,4.53,4.53,0,0,0,.55-2.38V106.92a9.71,9.71,0,0,0-2-6.59,6.25,6.25,0,0,0-4.91-2.32,11.28,11.28,0,0,0-3.94.67,15.15,15.15,0,0,0-3.24,1.65,10.13,10.13,0,0,0-2.12,2q-.73,1-1.14,1.71v23.07a4.31,4.31,0,0,0,.55,2.27,3.58,3.58,0,0,0,1.69,1.39,9.33,9.33,0,0,0,1.85.61,15.72,15.72,0,0,0,2.1.28v2.69H1057v-2.69l1.94-.18a9,9,0,0,0,1.69-.31,3,3,0,0,0,1.7-1.28,4.44,4.44,0,0,0,.57-2.38V80.81a6.64,6.64,0,0,0-.63-2.77,4.94,4.94,0,0,0-1.65-2.08,5.91,5.91,0,0,0-2.58-.75c-1.24-.15-2.23-.25-3-.3V72.3l14.84-.89.57.61v28h.17c.89-.89,1.7-1.68,2.44-2.38a19.67,19.67,0,0,1,2.89-2.17,15.76,15.76,0,0,1,3.65-1.63,16,16,0,0,1,4.7-.65q5.39,0,8.27,3.4t2.9,9.78v20.87a4.49,4.49,0,0,0,.51,2.29,3.36,3.36,0,0,0,1.7,1.37,15.67,15.67,0,0,0,1.7.55,12,12,0,0,0,2,.26Z"/><path class="cls-6" d="M1141.89,124.94a20.55,20.55,0,0,1-6.75,7.65,17.05,17.05,0,0,1-9.72,2.84,19.8,19.8,0,0,1-8.49-1.71,16.69,16.69,0,0,1-6-4.63,19.63,19.63,0,0,1-3.51-6.84,28.56,28.56,0,0,1-1.16-8.25,24.25,24.25,0,0,1,1.24-7.67,21.38,21.38,0,0,1,3.64-6.77,17.5,17.5,0,0,1,5.75-4.66,16.61,16.61,0,0,1,7.71-1.77,18.62,18.62,0,0,1,7.53,1.38,13.34,13.34,0,0,1,5.08,3.79,14.92,14.92,0,0,1,2.79,5.37,23.51,23.51,0,0,1,.91,6.71v2.68h-26.56a31.57,31.57,0,0,0,.75,7.17,17.46,17.46,0,0,0,2.38,5.67,11.41,11.41,0,0,0,4.15,3.74,12.8,12.8,0,0,0,6.1,1.36,11.18,11.18,0,0,0,6.25-1.7,16.8,16.8,0,0,0,5.06-6.11Zm-9-15.3a32.8,32.8,0,0,0-.39-4.86,14.63,14.63,0,0,0-1.24-4.34,8.24,8.24,0,0,0-2.56-3,6.93,6.93,0,0,0-4.19-1.18,8.72,8.72,0,0,0-7.1,3.55c-1.88,2.36-2.91,5.66-3.07,9.87Z"/><path class="cls-6" d="M1211.85,90.89a17.42,17.42,0,0,1-1.77,8,16,16,0,0,1-4.9,5.75,21.2,21.2,0,0,1-6.79,3.34,28.68,28.68,0,0,1-7.85,1h-6.47v17.5a6.3,6.3,0,0,0,.47,2.5,3.19,3.19,0,0,0,1.93,1.64,12.46,12.46,0,0,0,2.58.53,31.85,31.85,0,0,0,3.4.29v2.89h-24.77v-2.89c.65-.06,1.59-.15,2.83-.29a9.41,9.41,0,0,0,2.58-.53,3.51,3.51,0,0,0,1.77-1.54,5.54,5.54,0,0,0,.55-2.6V84.87a7.6,7.6,0,0,0-.41-2.56,3,3,0,0,0-1.91-1.71,17.6,17.6,0,0,0-3.07-.75c-1-.15-1.89-.25-2.63-.31V76.66h26.36q8.05,0,13.08,3.88A12.42,12.42,0,0,1,1211.85,90.89Zm-12.36,9.85a11,11,0,0,0,1.83-4,18.05,18.05,0,0,0,.44-3.76,21.44,21.44,0,0,0-.54-4.72,10.94,10.94,0,0,0-1.9-4.19,9.27,9.27,0,0,0-3.74-3,13.8,13.8,0,0,0-5.77-1.06h-5.74V105.5h4.15a16.07,16.07,0,0,0,7.14-1.37A10.58,10.58,0,0,0,1199.49,100.74Z"/><path class="cls-6" d="M1261.07,134.38h-19.73v-2.69l2.08-.16a7.7,7.7,0,0,0,1.87-.33,2.92,2.92,0,0,0,1.69-1.28,4.63,4.63,0,0,0,.55-2.38V106.92a9.76,9.76,0,0,0-2-6.59A6.28,6.28,0,0,0,1240.6,98a11.2,11.2,0,0,0-3.94.67,14.92,14.92,0,0,0-3.24,1.65,9.89,9.89,0,0,0-2.12,2q-.73,1-1.14,1.71v23.07a4.22,4.22,0,0,0,.55,2.27,3.5,3.5,0,0,0,1.68,1.39,9.55,9.55,0,0,0,1.85.61,15.72,15.72,0,0,0,2.1.28v2.69h-19.65v-2.69l1.94-.18a9.3,9.3,0,0,0,1.7-.31,3,3,0,0,0,1.7-1.28,4.53,4.53,0,0,0,.56-2.38V80.81A6.64,6.64,0,0,0,1222,78a4.94,4.94,0,0,0-1.65-2.08,5.91,5.91,0,0,0-2.58-.75c-1.23-.15-2.23-.25-3-.3V72.3l14.85-.89.57.61v28h.16c.89-.89,1.71-1.68,2.45-2.38a19.52,19.52,0,0,1,2.88-2.17,15.52,15.52,0,0,1,8.36-2.28q5.37,0,8.27,3.4t2.89,9.78v20.87a4.49,4.49,0,0,0,.51,2.29,3.4,3.4,0,0,0,1.7,1.37,16.4,16.4,0,0,0,1.7.55,12.12,12.12,0,0,0,2,.26Z"/><path class="cls-6" d="M1285.35,134.38H1266v-2.69l1.93-.16a7.19,7.19,0,0,0,1.73-.33,2.89,2.89,0,0,0,1.69-1.28,4.5,4.5,0,0,0,.55-2.37V102.8a4.94,4.94,0,0,0-.59-2.38,5.24,5.24,0,0,0-1.65-1.8,7.63,7.63,0,0,0-2.23-.83,16.21,16.21,0,0,0-2.69-.43V94.68l14.16-.9.57.57v32.7a4.66,4.66,0,0,0,.54,2.36,3.19,3.19,0,0,0,1.72,1.39,14.29,14.29,0,0,0,1.74.59,10.25,10.25,0,0,0,1.89.3ZM1280.27,78a5.9,5.9,0,0,1-1.53,4,4.86,4.86,0,0,1-7.36.09,5.43,5.43,0,0,1-1.52-3.77,5.61,5.61,0,0,1,1.52-3.9,4.75,4.75,0,0,1,3.6-1.67,5,5,0,0,1,3.81,1.57A5.14,5.14,0,0,1,1280.27,78Z"/><path class="cls-6" d="M1309.11,134.38h-19.57v-2.69l2-.18a9.44,9.44,0,0,0,1.75-.31,2.94,2.94,0,0,0,1.7-1.28,4.44,4.44,0,0,0,.57-2.38V81.06a6.21,6.21,0,0,0-.63-2.76,5.4,5.4,0,0,0-1.64-2,8.32,8.32,0,0,0-2.69-.89,22.21,22.21,0,0,0-3.13-.49V72.3l15.09-.89.57.61v55a4.66,4.66,0,0,0,.53,2.34,3.39,3.39,0,0,0,1.71,1.41,9.53,9.53,0,0,0,1.77.61,13.14,13.14,0,0,0,2,.28Z"/><path class="cls-6" d="M1333.6,134.38h-19.37v-2.69l1.94-.16a7.39,7.39,0,0,0,1.73-.33,2.9,2.9,0,0,0,1.68-1.28,4.5,4.5,0,0,0,.55-2.37V102.8a4.83,4.83,0,0,0-.59-2.38,5.31,5.31,0,0,0-1.64-1.8,7.83,7.83,0,0,0-2.24-.83,16.21,16.21,0,0,0-2.69-.43V94.68l14.16-.9.57.57v32.7a4.66,4.66,0,0,0,.54,2.36,3.26,3.26,0,0,0,1.72,1.39,14.29,14.29,0,0,0,1.74.59,10.23,10.23,0,0,0,1.9.3ZM1328.51,78a5.94,5.94,0,0,1-1.52,4,4.87,4.87,0,0,1-7.37.09,5.43,5.43,0,0,1-1.52-3.77,5.61,5.61,0,0,1,1.52-3.9,4.75,4.75,0,0,1,3.6-1.67,5,5,0,0,1,3.81,1.57A5.1,5.1,0,0,1,1328.51,78Z"/><path class="cls-6" d="M1375.21,99a20.86,20.86,0,0,1,3.72,6.61,25.89,25.89,0,0,1,1.32,8.6,23.17,23.17,0,0,1-1.58,8.69,21.55,21.55,0,0,1-4.19,6.69,19.93,19.93,0,0,1-6.06,4.31,17.11,17.11,0,0,1-7.08,1.5,18.26,18.26,0,0,1-5.94-.81,13.87,13.87,0,0,1-3.78-1.91h-.33v12.07a4.76,4.76,0,0,0,.57,2.44,3.31,3.31,0,0,0,1.75,1.43,17.23,17.23,0,0,0,2.79.71,19.33,19.33,0,0,0,3,.39v2.69H1337v-2.69c.84-.05,1.66-.12,2.44-.2a11.23,11.23,0,0,0,2.12-.41,2.76,2.76,0,0,0,1.71-1.42,5.59,5.59,0,0,0,.48-2.4V102.65a4.88,4.88,0,0,0-.61-2.36,5.13,5.13,0,0,0-1.58-1.83,5.59,5.59,0,0,0-2-.75,17.52,17.52,0,0,0-2.52-.35V94.68l13.67-.9.57.49v4.51l.32.09a17.43,17.43,0,0,1,5.25-4.07,13.35,13.35,0,0,1,6.23-1.63,14.86,14.86,0,0,1,6.85,1.59A16.79,16.79,0,0,1,1375.21,99Zm-6.63,28.84A18.61,18.61,0,0,0,1371,122a33.29,33.29,0,0,0,.77-7.44,30.48,30.48,0,0,0-.65-6.15,17.59,17.59,0,0,0-2-5.45,11.52,11.52,0,0,0-3.62-3.82A10.62,10.62,0,0,0,1355,99a15.47,15.47,0,0,0-3.66,3.15v23.71a8.39,8.39,0,0,0,1.2,2.28,10.72,10.72,0,0,0,1.85,2,11.86,11.86,0,0,0,2.73,1.64,9,9,0,0,0,3.58.63,8.8,8.8,0,0,0,4.39-1.2A10.22,10.22,0,0,0,1368.58,127.87Z"/><path class="cls-6" d="M1422.8,99a20.86,20.86,0,0,1,3.72,6.61,25.89,25.89,0,0,1,1.32,8.6,23.17,23.17,0,0,1-1.58,8.69,21.55,21.55,0,0,1-4.19,6.69,19.93,19.93,0,0,1-6.06,4.31,17.11,17.11,0,0,1-7.08,1.5,18.35,18.35,0,0,1-5.94-.81,13.87,13.87,0,0,1-3.78-1.91h-.33v12.07a4.76,4.76,0,0,0,.57,2.44,3.31,3.31,0,0,0,1.75,1.43,17.23,17.23,0,0,0,2.79.71,19.33,19.33,0,0,0,3,.39v2.69h-22.42v-2.69c.84-.05,1.66-.12,2.44-.2a11.08,11.08,0,0,0,2.12-.41,2.76,2.76,0,0,0,1.71-1.42,5.58,5.58,0,0,0,.49-2.4V102.65a5,5,0,0,0-.61-2.36,5.25,5.25,0,0,0-1.59-1.83,5.61,5.61,0,0,0-2-.75,17.85,17.85,0,0,0-2.53-.35V94.68l13.67-.9.57.49v4.51l.33.09a17.38,17.38,0,0,1,5.24-4.07,13.38,13.38,0,0,1,6.23-1.63,14.83,14.83,0,0,1,6.85,1.59A16.79,16.79,0,0,1,1422.8,99Zm-6.63,28.84a18.61,18.61,0,0,0,2.4-5.86,33.29,33.29,0,0,0,.77-7.44,30.48,30.48,0,0,0-.65-6.15,17.59,17.59,0,0,0-2-5.45,11.42,11.42,0,0,0-3.62-3.82,10.62,10.62,0,0,0-10.5-.14,15.47,15.47,0,0,0-3.66,3.15v23.71a9,9,0,0,0,1.2,2.28,10.72,10.72,0,0,0,1.85,2,11.86,11.86,0,0,0,2.73,1.64,9,9,0,0,0,3.58.63,8.77,8.77,0,0,0,4.39-1.2A10.22,10.22,0,0,0,1416.17,127.87Z"/><path class="cls-6" d="M1453.18,134.38h-19.36v-2.69l1.93-.16a7.19,7.19,0,0,0,1.73-.33,2.89,2.89,0,0,0,1.69-1.28,4.5,4.5,0,0,0,.55-2.37V102.8a4.94,4.94,0,0,0-.59-2.38,5.24,5.24,0,0,0-1.65-1.8,7.63,7.63,0,0,0-2.23-.83,16.21,16.21,0,0,0-2.69-.43V94.68l14.16-.9.57.57v32.7a4.66,4.66,0,0,0,.54,2.36,3.19,3.19,0,0,0,1.72,1.39,14.29,14.29,0,0,0,1.74.59,10.25,10.25,0,0,0,1.89.3ZM1448.1,78a5.9,5.9,0,0,1-1.53,4,4.86,4.86,0,0,1-7.36.09,5.43,5.43,0,0,1-1.52-3.77,5.61,5.61,0,0,1,1.52-3.9,4.75,4.75,0,0,1,3.6-1.67,5,5,0,0,1,3.81,1.57A5.1,5.1,0,0,1,1448.1,78Z"/><path class="cls-6" d="M1502.44,134.38h-19.6v-2.69l2.05-.16a7.61,7.61,0,0,0,1.85-.33,2.92,2.92,0,0,0,1.69-1.28,4.53,4.53,0,0,0,.55-2.38V106.92a9.71,9.71,0,0,0-2-6.59,6.25,6.25,0,0,0-4.91-2.32,11.2,11.2,0,0,0-4,.67,14.22,14.22,0,0,0-3.18,1.65,9.23,9.23,0,0,0-2.14,2,17.86,17.86,0,0,0-1.16,1.73v23.07a4.13,4.13,0,0,0,.57,2.27,3.68,3.68,0,0,0,1.71,1.39,8.37,8.37,0,0,0,1.85.61,16.87,16.87,0,0,0,2,.28v2.69h-19.64v-2.69l1.93-.16a7.39,7.39,0,0,0,1.73-.33,2.92,2.92,0,0,0,1.69-1.28,4.59,4.59,0,0,0,.55-2.37V102.8a5.48,5.48,0,0,0-.59-2.53,5.19,5.19,0,0,0-1.65-1.89,5.34,5.34,0,0,0-1.83-.71,15.69,15.69,0,0,0-2.28-.31V94.68l13.34-.9.57.57V100h.2c.66-.65,1.47-1.43,2.44-2.33a21.33,21.33,0,0,1,2.77-2.22,14.83,14.83,0,0,1,3.58-1.63,15.71,15.71,0,0,1,4.68-.65q5.78,0,8.56,3.6t2.79,9.58v20.87a4.72,4.72,0,0,0,.48,2.29,3.28,3.28,0,0,0,1.67,1.37,11.19,11.19,0,0,0,1.69.57,12.53,12.53,0,0,0,2,.24Z"/><path class="cls-6" d="M1543,124.94a20.55,20.55,0,0,1-6.75,7.65,17.09,17.09,0,0,1-9.73,2.84,19.78,19.78,0,0,1-8.48-1.71,16.69,16.69,0,0,1-6-4.63,19.82,19.82,0,0,1-3.52-6.84,28.91,28.91,0,0,1-1.15-8.25,24.25,24.25,0,0,1,1.24-7.67,21.38,21.38,0,0,1,3.64-6.77A17.5,17.5,0,0,1,1518,94.9a16.58,16.58,0,0,1,7.71-1.77,18.62,18.62,0,0,1,7.53,1.38,13.42,13.42,0,0,1,5.08,3.79,14.92,14.92,0,0,1,2.79,5.37,23.51,23.51,0,0,1,.91,6.71v2.68h-26.56a31.57,31.57,0,0,0,.75,7.17,17.25,17.25,0,0,0,2.38,5.67,11.41,11.41,0,0,0,4.15,3.74,12.8,12.8,0,0,0,6.1,1.36,11.18,11.18,0,0,0,6.25-1.7,16.8,16.8,0,0,0,5.06-6.11Zm-9-15.3a32.8,32.8,0,0,0-.39-4.86,14.93,14.93,0,0,0-1.24-4.34,8.24,8.24,0,0,0-2.56-3,7,7,0,0,0-4.19-1.18,8.72,8.72,0,0,0-7.1,3.55c-1.88,2.36-2.91,5.66-3.07,9.87Z"/><path class="cls-6" d="M1574.11,114.73a10.2,10.2,0,0,1,2.57,3.38,11.05,11.05,0,0,1,.89,4.67,11.38,11.38,0,0,1-4.17,9.11q-4.17,3.54-10.8,3.54a16.19,16.19,0,0,1-6.44-1.26,17.45,17.45,0,0,1-4.21-2.32l-.82,2.65h-3.05l-.4-14h2.8a15.65,15.65,0,0,0,1.39,3.71,17.49,17.49,0,0,0,2.56,3.84,14.12,14.12,0,0,0,3.8,3,10,10,0,0,0,5,1.23,9.12,9.12,0,0,0,6-1.77,6.32,6.32,0,0,0,2.12-5.1,6.09,6.09,0,0,0-.67-3,6.57,6.57,0,0,0-2-2.18,16,16,0,0,0-3.29-1.69c-1.3-.5-2.75-1-4.35-1.48a39,39,0,0,1-4.25-1.57,16.6,16.6,0,0,1-4-2.34,11.42,11.42,0,0,1-2.93-3.49,10,10,0,0,1-1.14-4.88,11,11,0,0,1,3.66-8.34q3.66-3.42,9.81-3.42a19.84,19.84,0,0,1,4.82.61,16.74,16.74,0,0,1,4,1.46l.94-2.11h2.93l.61,12.89h-2.81a13,13,0,0,0-3.68-7,9.57,9.57,0,0,0-6.89-2.72,7.66,7.66,0,0,0-5.25,1.68A5.19,5.19,0,0,0,1555,102a6.63,6.63,0,0,0,.63,3.05,5.63,5.63,0,0,0,1.89,2.07,16.22,16.22,0,0,0,3.07,1.53c1.23.47,2.76,1,4.58,1.6a39.47,39.47,0,0,1,5.06,2A16.57,16.57,0,0,1,1574.11,114.73Z"/><path class="cls-6" d="M637.54,183.46a28.19,28.19,0,0,1,6,9.62,34.54,34.54,0,0,1,2.16,12.47,33.85,33.85,0,0,1-2.2,12.48,27.55,27.55,0,0,1-6.1,9.56,26.36,26.36,0,0,1-8.78,6,28.2,28.2,0,0,1-21.79-.14,25.92,25.92,0,0,1-8.76-6.28,28.72,28.72,0,0,1-5.76-9.58,34.51,34.51,0,0,1-2.09-12.06A33.73,33.73,0,0,1,592.39,193a29.34,29.34,0,0,1,6.06-9.54,26.2,26.2,0,0,1,8.89-6.1,27.87,27.87,0,0,1,21.42,0A25.58,25.58,0,0,1,637.54,183.46Zm-6.06,40.92A27,27,0,0,0,634.8,216a52.43,52.43,0,0,0-.12-21.36,27.37,27.37,0,0,0-3.4-8.46,16.31,16.31,0,0,0-5.61-5.39,15.37,15.37,0,0,0-7.73-1.93,14.83,14.83,0,0,0-8.3,2.24,17.32,17.32,0,0,0-5.57,6,28.36,28.36,0,0,0-3,8.38,49.12,49.12,0,0,0-1,10.09,48.12,48.12,0,0,0,1.06,10.57,26.87,26.87,0,0,0,3.33,8.38,16.38,16.38,0,0,0,5.54,5.59,15.06,15.06,0,0,0,8,2,15.29,15.29,0,0,0,7.85-2A15.83,15.83,0,0,0,631.48,224.38Z"/><path class="cls-6" d="M697.7,191.06h-3.05a20.92,20.92,0,0,0-3.55-6.87q-2.72-3.66-5.19-4c-.84-.1-1.84-.19-3-.24s-2.46-.08-3.93-.08h-9.68V203H676a13.78,13.78,0,0,0,4.69-.63,7.19,7.19,0,0,0,2.85-1.93,8.38,8.38,0,0,0,1.49-2.79,16.86,16.86,0,0,0,.88-4h3v22.69h-3a17.61,17.61,0,0,0-.84-4.06,10.65,10.65,0,0,0-1.53-3.3,6.06,6.06,0,0,0-3.08-2.05,15.66,15.66,0,0,0-4.46-.55h-6.65v19.86a5.36,5.36,0,0,0,.53,2.4,3.92,3.92,0,0,0,1.87,1.7,14.45,14.45,0,0,0,2.65.69,21.83,21.83,0,0,0,3.09.45v2.88h-25v-2.88l3.26-.27a9.64,9.64,0,0,0,2.64-.47,3.5,3.5,0,0,0,1.77-1.56,5.24,5.24,0,0,0,.55-2.5V185a6,6,0,0,0-.45-2.38,3.45,3.45,0,0,0-1.87-1.68,13.16,13.16,0,0,0-3-.94,23.41,23.41,0,0,0-3-.49v-2.89H697.7Z"/><path class="cls-6" d="M747.61,191.06h-3.05a20.77,20.77,0,0,0-3.56-6.87q-2.7-3.66-5.18-4c-.84-.1-1.84-.19-3-.24s-2.46-.08-3.93-.08h-9.68V203h6.65a13.78,13.78,0,0,0,4.69-.63,7.19,7.19,0,0,0,2.85-1.93,8.38,8.38,0,0,0,1.49-2.79,16.86,16.86,0,0,0,.88-4h3.05v22.69h-3.05a17.61,17.61,0,0,0-.84-4.06,10.65,10.65,0,0,0-1.53-3.3,6.06,6.06,0,0,0-3.08-2.05,15.66,15.66,0,0,0-4.46-.55h-6.65v19.86a5.36,5.36,0,0,0,.53,2.4,3.92,3.92,0,0,0,1.87,1.7,14.45,14.45,0,0,0,2.65.69,21.83,21.83,0,0,0,3.09.45v2.88h-25v-2.88l3.26-.27a9.64,9.64,0,0,0,2.64-.47,3.5,3.5,0,0,0,1.77-1.56,5.24,5.24,0,0,0,.55-2.5V185a6,6,0,0,0-.45-2.38,3.45,3.45,0,0,0-1.87-1.68,13.34,13.34,0,0,0-3-.94,23.41,23.41,0,0,0-2.95-.49v-2.89h45.27Z"/><path class="cls-6" d="M778,234.34H752v-2.88l3.17-.25a11.73,11.73,0,0,0,2.93-.49,4,4,0,0,0,1.95-1.44,4.52,4.52,0,0,0,.61-2.54V184.92a5.58,5.58,0,0,0-.45-2.38,3.62,3.62,0,0,0-2.11-1.6A21.8,21.8,0,0,0,755,180a22.09,22.09,0,0,0-3-.51v-2.89h26v2.89a26.28,26.28,0,0,0-3,.31,20,20,0,0,0-3.05.67,3.21,3.21,0,0,0-2.08,1.59,5.56,5.56,0,0,0-.52,2.44v41.77a4.74,4.74,0,0,0,.58,2.38,4.1,4.1,0,0,0,2,1.65,20.87,20.87,0,0,0,2.78.71,20.42,20.42,0,0,0,3.28.43Z"/><path class="cls-6" d="M810.6,235.73a24.79,24.79,0,0,1-9.9-2,25.12,25.12,0,0,1-8.39-5.86,28.55,28.55,0,0,1-5.77-9.34,33.89,33.89,0,0,1-2.15-12.44,35.46,35.46,0,0,1,2.11-12.55,29.29,29.29,0,0,1,5.85-9.71,25.71,25.71,0,0,1,8.74-6.23,27.94,27.94,0,0,1,18.49-1.14,29.22,29.22,0,0,1,6.58,3l1.67-2.77h3.25l.37,20.59h-3.34a47.27,47.27,0,0,0-2-6.53,25.51,25.51,0,0,0-3-6,15,15,0,0,0-4.63-4.33,11.91,11.91,0,0,0-6.14-1.57,15.7,15.7,0,0,0-7.33,1.75,16.85,16.85,0,0,0-5.88,5.17,25.42,25.42,0,0,0-3.69,8.39,44.74,44.74,0,0,0-1.34,11.35,35,35,0,0,0,1.4,10.16,26.43,26.43,0,0,0,4,8.12,19.22,19.22,0,0,0,6.16,5.42,16.22,16.22,0,0,0,7.94,1.95,17,17,0,0,0,6.06-1,16.37,16.37,0,0,0,4.79-2.74,21.72,21.72,0,0,0,3.57-4.07,22.46,22.46,0,0,0,2.52-5l3.05,1.46q-3.5,8.58-9.26,12.27A25.05,25.05,0,0,1,810.6,235.73Z"/><path class="cls-6" d="M887.22,217.34l-1.1,17H838.2v-2.88c.81-.06,1.9-.17,3.25-.35a11.28,11.28,0,0,0,2.65-.55,3.68,3.68,0,0,0,1.81-1.59,5.31,5.31,0,0,0,.51-2.48V185a6,6,0,0,0-.45-2.38,3.45,3.45,0,0,0-1.87-1.68,13.34,13.34,0,0,0-3-.94,23.41,23.41,0,0,0-2.95-.49v-2.89h44.66v13.92h-3.05a18.64,18.64,0,0,0-3.52-6.57q-2.7-3.48-5.14-3.81c-.84-.1-1.85-.19-3-.24s-2.5-.08-4-.08h-9.07v22.94h6.51a13.12,13.12,0,0,0,4.58-.59,6.25,6.25,0,0,0,2.54-2,10.7,10.7,0,0,0,1.52-3.16,20,20,0,0,0,.84-3.72h3V216h-3a18,18,0,0,0-.88-4.13,10.55,10.55,0,0,0-1.48-3.15,5.89,5.89,0,0,0-2.87-2.08,15.25,15.25,0,0,0-4.25-.49h-6.51v17.31a17.84,17.84,0,0,0,.37,4.1,3.82,3.82,0,0,0,1.42,2.27,6.2,6.2,0,0,0,2.89,1A48.28,48.28,0,0,0,865,231h3.53c1.47,0,2.7-.06,3.71-.16a22.73,22.73,0,0,0,3.19-.59,4.9,4.9,0,0,0,2.34-1.16,26,26,0,0,0,3.92-5.92,40.16,40.16,0,0,0,2.63-5.84Z"/><path class="cls-6" d="M959.82,183.46a28.34,28.34,0,0,1,6,9.62A34.54,34.54,0,0,1,968,205.55a33.85,33.85,0,0,1-2.2,12.48,27.7,27.7,0,0,1-6.1,9.56,26.3,26.3,0,0,1-8.79,6,28.18,28.18,0,0,1-21.78-.14,25.92,25.92,0,0,1-8.76-6.28,28.72,28.72,0,0,1-5.76-9.58,34.28,34.28,0,0,1-2.09-12.06A33.73,33.73,0,0,1,914.67,193a29.34,29.34,0,0,1,6.06-9.54,26.11,26.11,0,0,1,8.89-6.1,27.87,27.87,0,0,1,21.42,0A25.68,25.68,0,0,1,959.82,183.46Zm-6.06,40.92a27,27,0,0,0,3.32-8.38,48.51,48.51,0,0,0,1-10.45A47.61,47.61,0,0,0,957,194.64a27.12,27.12,0,0,0-3.39-8.46,16.31,16.31,0,0,0-5.61-5.39,15.4,15.4,0,0,0-7.73-1.93,14.83,14.83,0,0,0-8.3,2.24,17.23,17.23,0,0,0-5.57,6,28.36,28.36,0,0,0-3,8.38,49.12,49.12,0,0,0-1,10.09,48.12,48.12,0,0,0,1.06,10.57,26.63,26.63,0,0,0,3.33,8.38,16.44,16.44,0,0,0,5.53,5.59,15.12,15.12,0,0,0,8,2,15.32,15.32,0,0,0,7.85-2A15.83,15.83,0,0,0,953.76,224.38Z"/><path class="cls-6" d="M1020,191.06h-3.05a20.77,20.77,0,0,0-3.56-6.87q-2.7-3.66-5.18-4c-.84-.1-1.84-.19-3-.24s-2.46-.08-3.93-.08h-9.68V203h6.64a13.85,13.85,0,0,0,4.7-.63,7.26,7.26,0,0,0,2.85-1.93,8.38,8.38,0,0,0,1.49-2.79,16.86,16.86,0,0,0,.88-4h3.05v22.69h-3.05a18.15,18.15,0,0,0-.84-4.06,10.65,10.65,0,0,0-1.53-3.3,6.06,6.06,0,0,0-3.08-2.05,15.68,15.68,0,0,0-4.47-.55h-6.64v19.86a5.36,5.36,0,0,0,.53,2.4,3.92,3.92,0,0,0,1.87,1.7,14.51,14.51,0,0,0,2.64.69,22.12,22.12,0,0,0,3.1.45v2.88h-25v-2.88l3.25-.27a9.65,9.65,0,0,0,2.65-.47,3.5,3.5,0,0,0,1.77-1.56,5.36,5.36,0,0,0,.55-2.5V185a6,6,0,0,0-.45-2.38,3.45,3.45,0,0,0-1.87-1.68,13.34,13.34,0,0,0-3-.94,23.41,23.41,0,0,0-2.95-.49v-2.89H1020Z"/><path class="cls-6" d="M1092.14,192.29h-2.8a19.49,19.49,0,0,0-1.33-3.48,31.2,31.2,0,0,0-2.14-3.81,20,20,0,0,0-2.67-3.27,5.32,5.32,0,0,0-2.79-1.61c-.84-.11-1.91-.19-3.18-.24s-2.46-.08-3.55-.08h-2.36V226a5.38,5.38,0,0,0,.57,2.47,3.77,3.77,0,0,0,2,1.72,24.51,24.51,0,0,0,3.07.78,23.56,23.56,0,0,0,3.64.53v2.88h-27.25v-2.88c.76-.06,1.92-.17,3.47-.33a13.56,13.56,0,0,0,3.24-.61,4,4,0,0,0,2-1.52,5,5,0,0,0,.63-2.67V179.8h-2.36c-.84,0-1.88,0-3.13.06s-2.44.13-3.58.26a5,5,0,0,0-2.79,1.61,21.17,21.17,0,0,0-2.66,3.27,28.71,28.71,0,0,0-2.16,3.89,24.54,24.54,0,0,0-1.3,3.4h-2.84V176.62h50.31Z"/><path class="cls-6" d="M1156.49,234.34h-24v-2.88l2.83-.25a8.44,8.44,0,0,0,2.54-.49,3.41,3.41,0,0,0,1.79-1.48,5.19,5.19,0,0,0,.57-2.58V206.11h-27.13v20.1a5.55,5.55,0,0,0,.47,2.4,4,4,0,0,0,1.85,1.71,10.32,10.32,0,0,0,2.46.73,19.27,19.27,0,0,0,2.79.41v2.88h-24v-2.88l2.83-.25a8.44,8.44,0,0,0,2.54-.49,3.45,3.45,0,0,0,1.79-1.48,5.19,5.19,0,0,0,.57-2.58V185a5.39,5.39,0,0,0-.53-2.38,3.65,3.65,0,0,0-1.83-1.68,13.94,13.94,0,0,0-2.67-.94,15.94,15.94,0,0,0-2.7-.49v-2.89h24v2.89a18.24,18.24,0,0,0-2.79.37,19.75,19.75,0,0,0-2.46.61,2.89,2.89,0,0,0-1.85,1.63,6.48,6.48,0,0,0-.47,2.48v17.89h27.13V185a5.26,5.26,0,0,0-.53-2.38,3.65,3.65,0,0,0-1.83-1.68,14.07,14.07,0,0,0-2.66-.94,16.21,16.21,0,0,0-2.71-.49v-2.89h24v2.89a18,18,0,0,0-2.78.37,20.49,20.49,0,0,0-2.47.61,2.92,2.92,0,0,0-1.85,1.63,6.48,6.48,0,0,0-.46,2.48v41.61a5.55,5.55,0,0,0,.46,2.4,4.09,4.09,0,0,0,1.85,1.71,10.6,10.6,0,0,0,2.47.73,19.17,19.17,0,0,0,2.78.41Z"/><path class="cls-6" d="M1213.15,217.34l-1.09,17h-47.92v-2.88c.81-.06,1.9-.17,3.25-.35a11.28,11.28,0,0,0,2.65-.55,3.68,3.68,0,0,0,1.81-1.59,5.31,5.31,0,0,0,.51-2.48V185a6,6,0,0,0-.45-2.38,3.45,3.45,0,0,0-1.87-1.68,13.34,13.34,0,0,0-3-.94,23.7,23.7,0,0,0-2.95-.49v-2.89h44.66v13.92h-3a18.64,18.64,0,0,0-3.52-6.57c-1.8-2.32-3.52-3.59-5.14-3.81-.84-.1-1.85-.19-3-.24s-2.5-.08-4-.08H1181v22.94h6.51a13,13,0,0,0,4.57-.59,6.28,6.28,0,0,0,2.55-2,10.7,10.7,0,0,0,1.52-3.16,20,20,0,0,0,.84-3.72h3V216h-3a18,18,0,0,0-.88-4.13,10.55,10.55,0,0,0-1.48-3.15,5.89,5.89,0,0,0-2.87-2.08,15.25,15.25,0,0,0-4.25-.49H1181v17.31a17.84,17.84,0,0,0,.37,4.1,3.78,3.78,0,0,0,1.42,2.27,6.16,6.16,0,0,0,2.89,1,48.2,48.2,0,0,0,5.2.22h3.54c1.47,0,2.7-.06,3.7-.16a22.6,22.6,0,0,0,3.2-.59,4.9,4.9,0,0,0,2.34-1.16,26.32,26.32,0,0,0,3.92-5.92,40.16,40.16,0,0,0,2.63-5.84Z"/><path class="cls-6" d="M1283.32,190.86a17.35,17.35,0,0,1-1.77,8,16,16,0,0,1-4.9,5.76,21.3,21.3,0,0,1-6.79,3.34A28.68,28.68,0,0,1,1262,209h-6.47v17.49A6.14,6.14,0,0,0,1256,229a3.23,3.23,0,0,0,1.93,1.64,12.46,12.46,0,0,0,2.58.53c1.24.16,2.37.26,3.4.29v2.88h-24.77v-2.88c.65-.06,1.59-.15,2.82-.29a9.41,9.41,0,0,0,2.59-.53,3.55,3.55,0,0,0,1.77-1.54,5.56,5.56,0,0,0,.54-2.61V184.84a7.6,7.6,0,0,0-.4-2.56,3,3,0,0,0-1.91-1.71,17.6,17.6,0,0,0-3.07-.75c-1-.15-1.9-.25-2.63-.31v-2.89h26.36q8.05,0,13.08,3.89A12.42,12.42,0,0,1,1283.32,190.86ZM1271,200.7a10.86,10.86,0,0,0,1.84-4,18.75,18.75,0,0,0,.44-3.76,20.87,20.87,0,0,0-.55-4.72,10.78,10.78,0,0,0-1.89-4.19,9.34,9.34,0,0,0-3.74-3,13.85,13.85,0,0,0-5.78-1.06h-5.73v25.5h4.15a16.08,16.08,0,0,0,7.14-1.36A10.41,10.41,0,0,0,1271,200.7Z"/><path class="cls-6" d="M1346.17,234.34h-15.55q-5.16-8.09-9.32-14t-9-12.16h-5.91v18.3a6.5,6.5,0,0,0,.45,2.51,3.18,3.18,0,0,0,1.91,1.64,12.33,12.33,0,0,0,2.57.53c1.22.16,2.25.26,3.09.29v2.88H1290v-2.88c.65-.06,1.59-.15,2.83-.29a9.41,9.41,0,0,0,2.58-.53,3.55,3.55,0,0,0,1.77-1.54,5.43,5.43,0,0,0,.55-2.61V184.76a7.24,7.24,0,0,0-.41-2.52,3,3,0,0,0-1.91-1.67,17.86,17.86,0,0,0-2.64-.67,27.94,27.94,0,0,0-2.77-.39v-2.89h26.64a30.22,30.22,0,0,1,6.88.76,18.45,18.45,0,0,1,5.81,2.42,12.07,12.07,0,0,1,4,4.25,12.55,12.55,0,0,1,1.51,6.32,15.86,15.86,0,0,1-1,5.9,12.08,12.08,0,0,1-3,4.43,17.89,17.89,0,0,1-4.39,3,34.18,34.18,0,0,1-5.66,2.17q4.27,5.66,7.1,9.52t6.94,9.4a19.79,19.79,0,0,0,3.23,3.6,17.26,17.26,0,0,0,2.87,1.89,9.82,9.82,0,0,0,2.64.81,20.38,20.38,0,0,0,2.65.33Zm-21.4-43a11.35,11.35,0,0,0-3-8.31q-3-3.06-8.5-3.06h-6.92v24.73h5.33a13,13,0,0,0,9.36-3.59Q1324.77,197.5,1324.77,191.33Z"/><path class="cls-6" d="M1396.93,217.34l-1.1,17h-47.92v-2.88c.82-.06,1.9-.17,3.26-.35a11.16,11.16,0,0,0,2.64-.55,3.68,3.68,0,0,0,1.81-1.59,5.31,5.31,0,0,0,.51-2.48V185a6,6,0,0,0-.45-2.38,3.41,3.41,0,0,0-1.87-1.68,13.16,13.16,0,0,0-3-.94,23.12,23.12,0,0,0-2.95-.49v-2.89h44.67v13.92h-3A19,19,0,0,0,1386,184c-1.81-2.32-3.52-3.59-5.15-3.81-.84-.1-1.84-.19-3-.24s-2.49-.08-4-.08h-9.07v22.94h6.5a13.08,13.08,0,0,0,4.58-.59,6.25,6.25,0,0,0,2.54-2,10.45,10.45,0,0,0,1.53-3.16,19.19,19.19,0,0,0,.83-3.72h3V216h-3a18.51,18.51,0,0,0-.87-4.13,10.53,10.53,0,0,0-1.49-3.15,5.85,5.85,0,0,0-2.87-2.08,15.2,15.2,0,0,0-4.25-.49h-6.5v17.31a18.51,18.51,0,0,0,.36,4.1,3.87,3.87,0,0,0,1.42,2.27,6.2,6.2,0,0,0,2.89,1,48.41,48.41,0,0,0,5.21.22h3.54c1.46,0,2.7-.06,3.7-.16a22.73,22.73,0,0,0,3.19-.59,4.9,4.9,0,0,0,2.34-1.16,26,26,0,0,0,3.93-5.92,39.82,39.82,0,0,0,2.62-5.84Z"/><path class="cls-6" d="M1438.74,207.86a13.44,13.44,0,0,1,2.71,4.46,16.61,16.61,0,0,1,.87,5.63,16,16,0,0,1-5.65,12.61,20.5,20.5,0,0,1-14,5,25.9,25.9,0,0,1-7.73-1.2,30.13,30.13,0,0,1-6.67-2.9l-1.75,3h-3.26l-.57-19.76h3.3a43.8,43.8,0,0,0,2.38,6.61,23.32,23.32,0,0,0,3.6,5.51,16.36,16.36,0,0,0,4.94,3.82,14.44,14.44,0,0,0,6.57,1.43,14.77,14.77,0,0,0,4.9-.74,8.56,8.56,0,0,0,3.4-2.08,8.36,8.36,0,0,0,1.93-3.15,12.71,12.71,0,0,0,.63-4.18,11.59,11.59,0,0,0-2-6.45,12,12,0,0,0-5.82-4.54c-1.76-.71-3.78-1.48-6.06-2.34s-4.24-1.65-5.9-2.4a19.12,19.12,0,0,1-7.58-5.76,14.9,14.9,0,0,1-2.71-9.29,14.28,14.28,0,0,1,1.34-6.14,16,16,0,0,1,3.83-5.08,17.33,17.33,0,0,1,5.57-3.32,19,19,0,0,1,6.71-1.2,19.72,19.72,0,0,1,7.14,1.22,35.11,35.11,0,0,1,5.76,2.85l1.66-2.77h3.26l.32,19.16h-3.29q-.9-3.28-2-6.3a22.35,22.35,0,0,0-2.91-5.45,13.24,13.24,0,0,0-4.27-3.76,12.56,12.56,0,0,0-6.19-1.41,9.48,9.48,0,0,0-6.59,2.48,7.92,7.92,0,0,0-2.72,6.06,10.43,10.43,0,0,0,1.75,6.21,12.7,12.7,0,0,0,5.08,4q3,1.42,5.84,2.47t5.55,2.21a43.24,43.24,0,0,1,4.7,2.4A17.93,17.93,0,0,1,1438.74,207.86Z"/><path class="cls-6" d="M1474.78,234.34h-26v-2.88l3.17-.25a11.64,11.64,0,0,0,2.93-.49,4,4,0,0,0,2-1.44,4.61,4.61,0,0,0,.61-2.54V184.92a5.58,5.58,0,0,0-.45-2.38,3.68,3.68,0,0,0-2.12-1.6,21,21,0,0,0-3.07-.92,21.61,21.61,0,0,0-3-.51v-2.89h26v2.89a26.28,26.28,0,0,0-3,.31,20.28,20.28,0,0,0-3,.67,3.16,3.16,0,0,0-2.07,1.59,5.56,5.56,0,0,0-.53,2.44v41.77a4.75,4.75,0,0,0,.59,2.38,4,4,0,0,0,2,1.65,20.69,20.69,0,0,0,2.79.71,20.45,20.45,0,0,0,3.27.43Z"/><path class="cls-6" d="M1537.3,205.83a27.74,27.74,0,0,1-2.76,12.77,26.3,26.3,0,0,1-7.2,8.87,31.44,31.44,0,0,1-10,5.17,39.3,39.3,0,0,1-11.51,1.7h-23.92v-2.88a27.24,27.24,0,0,0,3.07-.23,9.71,9.71,0,0,0,2.5-.51,3.42,3.42,0,0,0,1.77-1.56,5.24,5.24,0,0,0,.55-2.5V185a6.13,6.13,0,0,0-.47-2.48,3.5,3.5,0,0,0-1.85-1.75,11.42,11.42,0,0,0-2.72-.89,24.42,24.42,0,0,0-2.52-.37v-2.89h25.22a33.66,33.66,0,0,1,10.25,1.61,30.63,30.63,0,0,1,8.78,4.33,25,25,0,0,1,8,9.48A30.8,30.8,0,0,1,1537.3,205.83Zm-10,0a33.54,33.54,0,0,0-1.55-10.51,24.24,24.24,0,0,0-4.51-8.19,20,20,0,0,0-6.9-5.24,21.23,21.23,0,0,0-9.09-1.91c-1.11,0-2.37,0-3.76.06l-3.11.1v44.35q0,3.69,2.15,5.12c1.44.94,3.65,1.42,6.63,1.42a20.85,20.85,0,0,0,9-1.83,16.27,16.27,0,0,0,6.27-5.08,22.71,22.71,0,0,0,3.68-7.9A42,42,0,0,0,1527.34,205.81Z"/><path class="cls-6" d="M1593,217.34l-1.1,17h-47.92v-2.88c.82-.06,1.9-.17,3.26-.35a11.29,11.29,0,0,0,2.64-.55,3.68,3.68,0,0,0,1.81-1.59,5.31,5.31,0,0,0,.51-2.48V185a6,6,0,0,0-.45-2.38,3.45,3.45,0,0,0-1.87-1.68,13.16,13.16,0,0,0-2.95-.94,23.12,23.12,0,0,0-3-.49v-2.89h44.67v13.92h-3.06A18.76,18.76,0,0,0,1582,184c-1.81-2.32-3.52-3.59-5.15-3.81-.84-.1-1.84-.19-3-.24s-2.49-.08-4-.08h-9.07v22.94h6.51a13.08,13.08,0,0,0,4.58-.59,6.25,6.25,0,0,0,2.54-2,10.45,10.45,0,0,0,1.53-3.16,20,20,0,0,0,.83-3.72h3V216h-3a18.51,18.51,0,0,0-.87-4.13,10.53,10.53,0,0,0-1.49-3.15,5.89,5.89,0,0,0-2.87-2.08,15.25,15.25,0,0,0-4.25-.49h-6.51v17.31a18.42,18.42,0,0,0,.37,4.1,3.82,3.82,0,0,0,1.42,2.27,6.2,6.2,0,0,0,2.89,1,48.41,48.41,0,0,0,5.21.22h3.54c1.46,0,2.7-.06,3.7-.16a22.73,22.73,0,0,0,3.19-.59,4.9,4.9,0,0,0,2.34-1.16,26,26,0,0,0,3.93-5.92,39.82,39.82,0,0,0,2.62-5.84Z"/><path class="cls-6" d="M1658.07,179.51a19.11,19.11,0,0,0-3.5.65,12.6,12.6,0,0,0-3.37,1.26c-1,.68-1.64,2-2,3.91a43.45,43.45,0,0,0-.5,7.32v42.26h-3.54l-35-47.22v29.77a35,35,0,0,0,.64,7.69,7.07,7.07,0,0,0,1.93,3.82,9.35,9.35,0,0,0,3.86,1.67,23.63,23.63,0,0,0,3.87.82v2.88h-23.68v-2.88a23,23,0,0,0,3.7-.8,9.79,9.79,0,0,0,3.26-1.28,5.94,5.94,0,0,0,2-3.48,41.43,41.43,0,0,0,.53-8V189.48a11.37,11.37,0,0,0-.65-3.74,7.07,7.07,0,0,0-1.75-2.89,12.33,12.33,0,0,0-4-2.3,14.15,14.15,0,0,0-4-1v-2.89h16.48l32.45,44V193.18a35.41,35.41,0,0,0-.65-7.75,6.23,6.23,0,0,0-1.87-3.6,13.57,13.57,0,0,0-3.72-1.5,20.81,20.81,0,0,0-3.93-.82v-2.89h23.47Z"/><path class="cls-6" d="M1709.69,192.29h-2.81a18.62,18.62,0,0,0-1.32-3.48,32.59,32.59,0,0,0-2.14-3.81,20,20,0,0,0-2.67-3.27,5.35,5.35,0,0,0-2.8-1.61q-1.26-.17-3.18-.24c-1.27-.06-2.46-.08-3.54-.08h-2.37V226a5.38,5.38,0,0,0,.57,2.47,3.79,3.79,0,0,0,2,1.72,24,24,0,0,0,3.07.78,23.56,23.56,0,0,0,3.64.53v2.88h-27.26v-2.88q1.14-.09,3.48-.33a13.56,13.56,0,0,0,3.24-.61,4,4,0,0,0,2-1.52,5,5,0,0,0,.63-2.67V179.8h-2.36c-.84,0-1.89,0-3.13.06s-2.44.13-3.58.26a5,5,0,0,0-2.79,1.61,21.17,21.17,0,0,0-2.66,3.27,26.69,26.69,0,0,0-2.16,3.89,23.31,23.31,0,0,0-1.3,3.4h-2.85V176.62h50.32Z"/><path class="cls-6" d="M623.68,428.44a31.09,31.09,0,0,1-12.37-2.54,31.94,31.94,0,0,1-10.5-7.33,35.77,35.77,0,0,1-7.21-11.68,42.32,42.32,0,0,1-2.69-15.54,44.47,44.47,0,0,1,2.64-15.7,36.77,36.77,0,0,1,7.32-12.13,32.12,32.12,0,0,1,10.92-7.79A33.31,33.31,0,0,1,625.25,353a32.58,32.58,0,0,1,9.65,1.33,36,36,0,0,1,8.23,3.71l2.08-3.46h4.07l.45,25.72h-4.16a59.71,59.71,0,0,0-2.44-8.15,31.05,31.05,0,0,0-3.81-7.45,18.49,18.49,0,0,0-5.79-5.42,15,15,0,0,0-7.67-2,19.68,19.68,0,0,0-9.16,2.19,20.81,20.81,0,0,0-7.34,6.46,31.89,31.89,0,0,0-4.62,10.49,55.6,55.6,0,0,0-1.68,14.2,43.84,43.84,0,0,0,1.75,12.69,32.76,32.76,0,0,0,5,10.15,24.23,24.23,0,0,0,7.69,6.77,20.24,20.24,0,0,0,9.93,2.45,21.3,21.3,0,0,0,7.57-1.31,20,20,0,0,0,6-3.43,26.83,26.83,0,0,0,4.47-5.08,28,28,0,0,0,3.15-6.2l3.81,1.83q-4.36,10.73-11.58,15.32A31.14,31.14,0,0,1,623.68,428.44Z"/><path class="cls-6" d="M717.05,363.1a35.35,35.35,0,0,1,7.47,12,43.28,43.28,0,0,1,2.7,15.59,42.53,42.53,0,0,1-2.74,15.61,34.9,34.9,0,0,1-7.63,11.95,33,33,0,0,1-11,7.52,35.26,35.26,0,0,1-27.23-.17,32.23,32.23,0,0,1-10.95-7.86,35.75,35.75,0,0,1-7.2-12,42.84,42.84,0,0,1-2.62-15.08A42.17,42.17,0,0,1,660.61,375a36.68,36.68,0,0,1,7.58-11.92,32.79,32.79,0,0,1,11.11-7.63,34.89,34.89,0,0,1,26.77.06A32.22,32.22,0,0,1,717.05,363.1Zm-7.58,51.15a33.54,33.54,0,0,0,4.15-10.47,60.84,60.84,0,0,0,1.3-13.07,59.74,59.74,0,0,0-1.45-13.63,33.68,33.68,0,0,0-4.25-10.57,20.32,20.32,0,0,0-7-6.74,19.13,19.13,0,0,0-9.66-2.41,18.58,18.58,0,0,0-10.38,2.79,21.78,21.78,0,0,0-7,7.48,35.62,35.62,0,0,0-3.79,10.47,61.92,61.92,0,0,0-1.25,12.61,60.05,60.05,0,0,0,1.33,13.22,33.46,33.46,0,0,0,4.17,10.47,20.37,20.37,0,0,0,6.91,7,18.82,18.82,0,0,0,10,2.53,19.14,19.14,0,0,0,9.81-2.55A19.88,19.88,0,0,0,709.47,414.25Z"/><path class="cls-6" d="M823.12,426.71H791.23V423.1c1.16,0,2.64-.15,4.46-.36a11.22,11.22,0,0,0,3.73-.86,6.48,6.48,0,0,0,2.31-2.21,6,6,0,0,0,.74-3.13V364.07h-.76L777.1,425.54h-2.54l-23.44-62.75h-.66v43.07a42.86,42.86,0,0,0,.79,9.51,8.83,8.83,0,0,0,2.41,4.68,11.85,11.85,0,0,0,4.63,2,27.53,27.53,0,0,0,4.58,1v3.61H733.73V423.1a37,37,0,0,0,4.81-.76,9.32,9.32,0,0,0,3.88-1.68,7.42,7.42,0,0,0,2.44-4.38,50.63,50.63,0,0,0,.67-9.85V369.5a15.38,15.38,0,0,0-.76-5.23,8.46,8.46,0,0,0-2.19-3.31,10.2,10.2,0,0,0-3.87-2,19.52,19.52,0,0,0-4.52-.76v-3.61h24.6l20.67,54.16,17.64-45.31a45.94,45.94,0,0,0,1.65-5.21,23.4,23.4,0,0,0,.73-3.64H823v3.61a25.72,25.72,0,0,0-3.63.46,23.11,23.11,0,0,0-3.23.76,3.72,3.72,0,0,0-2.34,2,7.74,7.74,0,0,0-.61,3.11v52a6.63,6.63,0,0,0,.61,3,5.2,5.2,0,0,0,2.34,2.14,11.52,11.52,0,0,0,3.26.93,24.8,24.8,0,0,0,3.71.49Z"/><path class="cls-6" d="M919.68,426.71H887.79V423.1c1.15,0,2.64-.15,4.46-.36a11.22,11.22,0,0,0,3.73-.86,6.57,6.57,0,0,0,2.31-2.21,6,6,0,0,0,.74-3.13V364.07h-.76l-24.61,61.47h-2.55l-23.43-62.75H847v43.07a42.86,42.86,0,0,0,.79,9.51,8.83,8.83,0,0,0,2.41,4.68,11.86,11.86,0,0,0,4.62,2,27.78,27.78,0,0,0,4.59,1v3.61H830.29V423.1a37.55,37.55,0,0,0,4.81-.76,9.32,9.32,0,0,0,3.88-1.68,7.42,7.42,0,0,0,2.44-4.38,50.63,50.63,0,0,0,.67-9.85V369.5a15.38,15.38,0,0,0-.76-5.23,8.46,8.46,0,0,0-2.19-3.31,10.2,10.2,0,0,0-3.87-2,19.61,19.61,0,0,0-4.52-.76v-3.61h24.6L876,408.72l17.64-45.31a45.94,45.94,0,0,0,1.65-5.21,24.72,24.72,0,0,0,.73-3.64h23.53v3.61a25.55,25.55,0,0,0-3.63.46,22.75,22.75,0,0,0-3.23.76,3.69,3.69,0,0,0-2.34,2,7.74,7.74,0,0,0-.61,3.11v52a6.63,6.63,0,0,0,.61,3,5.15,5.15,0,0,0,2.34,2.14,11.52,11.52,0,0,0,3.26.93,24.8,24.8,0,0,0,3.71.49Z"/><path class="cls-6" d="M960.91,426.71H928.42V423.1l4-.31a14,14,0,0,0,3.66-.61,5,5,0,0,0,2.44-1.8,5.67,5.67,0,0,0,.76-3.18V364.94a7.21,7.21,0,0,0-.55-3,4.57,4.57,0,0,0-2.65-2,32.37,32.37,0,0,0-7.63-1.78v-3.61h32.49v3.61a32,32,0,0,0-3.76.38,25.42,25.42,0,0,0-3.81.84,4.07,4.07,0,0,0-2.6,2,7,7,0,0,0-.65,3.05v52.22a6,6,0,0,0,.73,3,5.11,5.11,0,0,0,2.52,2.06,31.77,31.77,0,0,0,7.57,1.42Z"/><path class="cls-6" d="M1014.86,393.61a16.77,16.77,0,0,1,3.37,5.57,20.37,20.37,0,0,1,1.1,7,20.05,20.05,0,0,1-7.07,15.76q-7.07,6.21-17.54,6.21a32.12,32.12,0,0,1-9.66-1.51,37,37,0,0,1-8.34-3.63l-2.19,3.71h-4.06l-.72-24.71h4.12a54,54,0,0,0,3,8.26,28.56,28.56,0,0,0,4.5,6.89,20.3,20.3,0,0,0,6.17,4.78,18,18,0,0,0,8.22,1.78,18.54,18.54,0,0,0,6.12-.92,10.24,10.24,0,0,0,6.67-6.54,16,16,0,0,0,.78-5.22,14.47,14.47,0,0,0-2.44-8.07,15.14,15.14,0,0,0-7.27-5.68c-2.21-.87-4.73-1.84-7.58-2.9s-5.3-2.07-7.37-3a23.82,23.82,0,0,1-9.48-7.19q-3.39-4.46-3.38-11.62a17.87,17.87,0,0,1,1.67-7.67,20,20,0,0,1,4.79-6.35,21.43,21.43,0,0,1,7-4.15,23.77,23.77,0,0,1,8.39-1.49,24.78,24.78,0,0,1,8.93,1.51,42.64,42.64,0,0,1,7.19,3.57l2.09-3.46h4.06l.41,23.95h-4.12c-.75-2.75-1.59-5.37-2.52-7.88a27.46,27.46,0,0,0-3.64-6.82,16.66,16.66,0,0,0-5.33-4.7,15.69,15.69,0,0,0-7.73-1.75,11.8,11.8,0,0,0-8.24,3.1,9.85,9.85,0,0,0-3.4,7.57,13.07,13.07,0,0,0,2.18,7.76,16.11,16.11,0,0,0,6.36,5.06,78.08,78.08,0,0,0,7.3,3.07c2.38.87,4.7,1.79,6.94,2.78a52.2,52.2,0,0,1,5.87,3A22.46,22.46,0,0,1,1014.86,393.61Z"/><path class="cls-6" d="M1073.28,393.61a17,17,0,0,1,3.38,5.57,20.61,20.61,0,0,1,1.1,7,20.05,20.05,0,0,1-7.07,15.76q-7.08,6.21-17.54,6.21a32.13,32.13,0,0,1-9.67-1.51,37.23,37.23,0,0,1-8.34-3.63l-2.18,3.71h-4.07l-.71-24.71h4.11a55,55,0,0,0,3,8.26,29.16,29.16,0,0,0,4.5,6.89A20.34,20.34,0,0,0,1046,422a18,18,0,0,0,8.21,1.78,18.6,18.6,0,0,0,6.13-.92,10.73,10.73,0,0,0,4.25-2.59,10.87,10.87,0,0,0,2.41-3.95,16,16,0,0,0,.79-5.22,14.55,14.55,0,0,0-2.44-8.07,15.18,15.18,0,0,0-7.27-5.68c-2.21-.87-4.73-1.84-7.58-2.9s-5.31-2.07-7.38-3a23.86,23.86,0,0,1-9.47-7.19q-3.39-4.46-3.39-11.62a17.88,17.88,0,0,1,1.68-7.67,20,20,0,0,1,4.78-6.35,21.48,21.48,0,0,1,7-4.15,23.71,23.71,0,0,1,8.38-1.49,24.78,24.78,0,0,1,8.93,1.51,42.64,42.64,0,0,1,7.19,3.57l2.09-3.46h4.07l.41,23.95h-4.13c-.74-2.75-1.58-5.37-2.51-7.88a28.14,28.14,0,0,0-3.64-6.82,16.8,16.8,0,0,0-5.34-4.7,15.67,15.67,0,0,0-7.73-1.75,11.77,11.77,0,0,0-8.23,3.1,9.86,9.86,0,0,0-3.41,7.57,13.08,13.08,0,0,0,2.19,7.76,16,16,0,0,0,6.36,5.06,77.92,77.92,0,0,0,7.29,3.07c2.39.87,4.71,1.79,6.94,2.78a50.55,50.55,0,0,1,5.87,3A22.22,22.22,0,0,1,1073.28,393.61Z"/><path class="cls-6" d="M1118.33,426.71h-32.49V423.1l4-.31a14.2,14.2,0,0,0,3.66-.61,5,5,0,0,0,2.44-1.8,5.75,5.75,0,0,0,.76-3.18V364.94a7.21,7.21,0,0,0-.55-3,4.61,4.61,0,0,0-2.65-2,25.85,25.85,0,0,0-3.84-1.14,25.24,25.24,0,0,0-3.79-.64v-3.61h32.49v3.61a32,32,0,0,0-3.76.38,25.42,25.42,0,0,0-3.81.84,4,4,0,0,0-2.6,2,7,7,0,0,0-.66,3.05v52.22a6,6,0,0,0,.74,3,5.11,5.11,0,0,0,2.52,2.06,31.77,31.77,0,0,0,7.57,1.42Z"/><path class="cls-6" d="M1185.64,363.1a35.35,35.35,0,0,1,7.47,12,43.28,43.28,0,0,1,2.7,15.59,42.53,42.53,0,0,1-2.74,15.61,34.9,34.9,0,0,1-7.63,11.95,33,33,0,0,1-11,7.52,35.26,35.26,0,0,1-27.23-.17,32.23,32.23,0,0,1-11-7.86,35.75,35.75,0,0,1-7.2-12,42.84,42.84,0,0,1-2.62-15.08,42,42,0,0,1,2.75-15.69,36.49,36.49,0,0,1,7.57-11.92,32.79,32.79,0,0,1,11.11-7.63,34.89,34.89,0,0,1,26.77.06A32.22,32.22,0,0,1,1185.64,363.1Zm-7.58,51.15a33.54,33.54,0,0,0,4.15-10.47,60.84,60.84,0,0,0,1.3-13.07,59.74,59.74,0,0,0-1.45-13.63,33.68,33.68,0,0,0-4.25-10.57,20.32,20.32,0,0,0-7-6.74,19.13,19.13,0,0,0-9.66-2.41,18.58,18.58,0,0,0-10.38,2.79,21.78,21.78,0,0,0-7,7.48A35.62,35.62,0,0,0,1140,378.1a61.92,61.92,0,0,0-1.25,12.61,60.05,60.05,0,0,0,1.33,13.22,33.46,33.46,0,0,0,4.17,10.47,20.37,20.37,0,0,0,6.91,7,18.82,18.82,0,0,0,10,2.53,19.14,19.14,0,0,0,9.81-2.55A19.88,19.88,0,0,0,1178.06,414.25Z"/><path class="cls-6" d="M1278.89,358.17a22.29,22.29,0,0,0-4.37.81,15.55,15.55,0,0,0-4.22,1.58q-1.83,1.28-2.46,4.88a53.65,53.65,0,0,0-.64,9.15v52.83h-4.42l-43.73-59v37.22a44.39,44.39,0,0,0,.79,9.61,8.91,8.91,0,0,0,2.41,4.78q1.17,1.11,4.83,2.09a29.37,29.37,0,0,0,4.83,1v3.61h-29.59V423.1a28.89,28.89,0,0,0,4.62-1,12.32,12.32,0,0,0,4.07-1.6,7.43,7.43,0,0,0,2.44-4.35,51.47,51.47,0,0,0,.67-10V370.63a14,14,0,0,0-.82-4.68,8.75,8.75,0,0,0-2.18-3.61,15.41,15.41,0,0,0-5-2.88,17.85,17.85,0,0,0-5.06-1.29v-3.61h20.62l40.54,55V375.25a44.06,44.06,0,0,0-.81-9.68c-.54-2.26-1.31-3.76-2.33-4.51a17.32,17.32,0,0,0-4.66-1.87,25.67,25.67,0,0,0-4.9-1v-3.61h29.33Z"/><path class="cls-6" d="M1368.13,363.1a35.5,35.5,0,0,1,7.47,12,43.28,43.28,0,0,1,2.7,15.59,42.53,42.53,0,0,1-2.75,15.61,34.87,34.87,0,0,1-7.62,11.95,33.18,33.18,0,0,1-11,7.52,35.24,35.24,0,0,1-27.22-.17,32.27,32.27,0,0,1-11-7.86,35.75,35.75,0,0,1-7.2-12,43.06,43.06,0,0,1-2.61-15.08,42.17,42.17,0,0,1,2.74-15.69,36.49,36.49,0,0,1,7.57-11.92,32.93,32.93,0,0,1,11.12-7.63,34.89,34.89,0,0,1,26.77.06A32.22,32.22,0,0,1,1368.13,363.1Zm-7.58,51.15a33.78,33.78,0,0,0,4.15-10.47,60.84,60.84,0,0,0,1.3-13.07,59.72,59.72,0,0,0-1.46-13.63,33.68,33.68,0,0,0-4.24-10.57,20.26,20.26,0,0,0-7-6.74,19.08,19.08,0,0,0-9.66-2.41,18.57,18.57,0,0,0-10.37,2.79,21.68,21.68,0,0,0-7,7.48,35.62,35.62,0,0,0-3.79,10.47,65.55,65.55,0,0,0,.07,25.83,33.46,33.46,0,0,0,4.17,10.47,20.4,20.4,0,0,0,6.92,7,18.81,18.81,0,0,0,10,2.53,19.09,19.09,0,0,0,9.81-2.55A19.83,19.83,0,0,0,1360.55,414.25Z"/><path class="cls-6" d="M1461.38,358.17a22.17,22.17,0,0,0-4.37.81,15.55,15.55,0,0,0-4.22,1.58c-1.22.85-2,2.48-2.47,4.88a54.83,54.83,0,0,0-.63,9.15v52.83h-4.42l-43.73-59v37.22a44.39,44.39,0,0,0,.79,9.61,8.84,8.84,0,0,0,2.41,4.78q1.17,1.11,4.83,2.09a29.37,29.37,0,0,0,4.83,1v3.61h-29.59V423.1a29.11,29.11,0,0,0,4.62-1,12.32,12.32,0,0,0,4.07-1.6,7.43,7.43,0,0,0,2.44-4.35,51.69,51.69,0,0,0,.66-10V370.63a14.23,14.23,0,0,0-.81-4.68,8.75,8.75,0,0,0-2.18-3.61,15.47,15.47,0,0,0-5-2.88,17.8,17.8,0,0,0-5.05-1.29v-3.61h20.61l40.55,55V375.25a44.06,44.06,0,0,0-.81-9.68q-.81-3.39-2.33-4.51a17.46,17.46,0,0,0-4.66-1.87,25.67,25.67,0,0,0-4.9-1v-3.61h29.33Z"/><path class="cls-6" d="M1567,426.71h-30V423.1l3.53-.31a10.1,10.1,0,0,0,3.18-.61,4.29,4.29,0,0,0,2.24-1.85,6.41,6.41,0,0,0,.71-3.23V391.42h-33.91v25.12a6.77,6.77,0,0,0,.59,3,5,5,0,0,0,2.31,2.14,12.83,12.83,0,0,0,3.08.91,21.7,21.7,0,0,0,3.47.51v3.61h-29.94V423.1l3.53-.31a10.17,10.17,0,0,0,3.18-.61,4.33,4.33,0,0,0,2.24-1.85,6.52,6.52,0,0,0,.71-3.23V365a6.67,6.67,0,0,0-.66-3,4.61,4.61,0,0,0-2.29-2.11,18.52,18.52,0,0,0-3.33-1.17,19.38,19.38,0,0,0-3.38-.61v-3.61h29.94v3.61a22.18,22.18,0,0,0-3.47.46,23.6,23.6,0,0,0-3.08.76,3.61,3.61,0,0,0-2.31,2,7.91,7.91,0,0,0-.59,3.11V386.9h33.91V365a6.67,6.67,0,0,0-.66-3,4.57,4.57,0,0,0-2.29-2.11,18.39,18.39,0,0,0-3.32-1.17,19.47,19.47,0,0,0-3.39-.61v-3.61h30v3.61a22.29,22.29,0,0,0-3.48.46,23.6,23.6,0,0,0-3.08.76,3.64,3.64,0,0,0-2.31,2,8.09,8.09,0,0,0-.58,3.11v52a6.92,6.92,0,0,0,.58,3,5.06,5.06,0,0,0,2.31,2.14,13,13,0,0,0,3.08.91,21.64,21.64,0,0,0,3.48.51Z"/><path class="cls-6" d="M1608.73,426.71h-32.49V423.1l4-.31a14.2,14.2,0,0,0,3.66-.61,5,5,0,0,0,2.44-1.8,5.75,5.75,0,0,0,.76-3.18V364.94a7,7,0,0,0-.56-3,4.58,4.58,0,0,0-2.64-2,25.85,25.85,0,0,0-3.84-1.14,25.24,25.24,0,0,0-3.79-.64v-3.61h32.49v3.61a32,32,0,0,0-3.76.38,25.42,25.42,0,0,0-3.81.84,4,4,0,0,0-2.6,2,7,7,0,0,0-.66,3.05v52.22a6,6,0,0,0,.74,3,5.06,5.06,0,0,0,2.52,2.06,31.77,31.77,0,0,0,7.57,1.42Z"/><path class="cls-6" d="M1687.59,397.93c-.82.1-1.91.26-3.28.48a13,13,0,0,0-3.33.94,4.46,4.46,0,0,0-2.16,2.17,7.9,7.9,0,0,0-.63,3.28v5.58q0,6.11.07,8.25c0,1.42.11,2.59.18,3.5a76,76,0,0,1-13.47,4.68,55.6,55.6,0,0,1-13.18,1.63,35.1,35.1,0,0,1-13.31-2.6,33.39,33.39,0,0,1-11.19-7.37,35.59,35.59,0,0,1-7.68-11.76,40.25,40.25,0,0,1-2.85-15.46,42.16,42.16,0,0,1,2.72-15.29,36.47,36.47,0,0,1,7.7-12.24,33.9,33.9,0,0,1,11.52-7.91A36.47,36.47,0,0,1,1653,353a34.77,34.77,0,0,1,10.63,1.47,39,39,0,0,1,8,3.57l2.08-3.46h4.07l.45,25.22h-4.16a72.67,72.67,0,0,0-2.65-8.21,28.05,28.05,0,0,0-4.08-7.24,18.53,18.53,0,0,0-6.08-5.12,18,18,0,0,0-8.57-1.91,20.72,20.72,0,0,0-9.72,2.22,21.07,21.07,0,0,0-7.43,6.59,30.86,30.86,0,0,0-4.79,10.53,54.36,54.36,0,0,0-1.68,14.1,49.35,49.35,0,0,0,1.65,12.95,32.64,32.64,0,0,0,4.82,10.5,22.91,22.91,0,0,0,7.89,7.13,21.94,21.94,0,0,0,10.74,2.6,23.38,23.38,0,0,0,8.17-1.38,14.76,14.76,0,0,0,5.21-2.9,35.19,35.19,0,0,0,.44-5.34c0-1.79,0-3.32,0-4.57v-4a11.38,11.38,0,0,0-.59-3.79,4.06,4.06,0,0,0-2.42-2.41,16.51,16.51,0,0,0-4.55-1.15c-1.91-.25-3.41-.41-4.49-.48v-3.71h31.62Z"/><path class="cls-6" d="M1768,426.71h-30V423.1l3.54-.31a10.09,10.09,0,0,0,3.17-.61,4.29,4.29,0,0,0,2.24-1.85,6.41,6.41,0,0,0,.71-3.23V391.42h-33.91v25.12a6.77,6.77,0,0,0,.59,3,5,5,0,0,0,2.31,2.14,12.83,12.83,0,0,0,3.08.91,21.7,21.7,0,0,0,3.47.51v3.61h-29.94V423.1l3.53-.31a10.17,10.17,0,0,0,3.18-.61,4.33,4.33,0,0,0,2.24-1.85,6.52,6.52,0,0,0,.71-3.23V365a6.67,6.67,0,0,0-.66-3A4.57,4.57,0,0,0,1700,360a18.52,18.52,0,0,0-3.33-1.17,19.38,19.38,0,0,0-3.38-.61v-3.61h29.94v3.61a22.18,22.18,0,0,0-3.47.46,23.6,23.6,0,0,0-3.08.76,3.61,3.61,0,0,0-2.31,2,7.91,7.91,0,0,0-.59,3.11V386.9h33.91V365a6.67,6.67,0,0,0-.66-3,4.57,4.57,0,0,0-2.29-2.11,18.39,18.39,0,0,0-3.32-1.17,19.47,19.47,0,0,0-3.39-.61v-3.61h30v3.61a22.29,22.29,0,0,0-3.48.46,23.6,23.6,0,0,0-3.08.76,3.64,3.64,0,0,0-2.31,2,8.09,8.09,0,0,0-.58,3.11v52a6.92,6.92,0,0,0,.58,3,5.06,5.06,0,0,0,2.31,2.14,13,13,0,0,0,3.08.91,21.64,21.64,0,0,0,3.48.51Z"/><path class="cls-6" d="M1838.8,405.46l-1.37,21.25h-59.89V423.1c1-.07,2.37-.21,4.06-.43a14.13,14.13,0,0,0,3.31-.69,4.61,4.61,0,0,0,2.26-2,6.64,6.64,0,0,0,.64-3.11V365a7.49,7.49,0,0,0-.56-3,4.35,4.35,0,0,0-2.34-2.11,17.32,17.32,0,0,0-3.69-1.17,27.92,27.92,0,0,0-3.68-.61v-3.61h55.82V372h-3.81a23.58,23.58,0,0,0-4.39-8.21c-2.26-2.9-4.4-4.49-6.44-4.76-1-.13-2.3-.23-3.76-.3s-3.12-.1-5-.1h-11.34v28.67h8.14a16,16,0,0,0,5.71-.74,7.6,7.6,0,0,0,3.18-2.46,13.15,13.15,0,0,0,1.91-3.94,25.23,25.23,0,0,0,1-4.65h3.82v28.27h-3.82a23,23,0,0,0-1.09-5.16,13.31,13.31,0,0,0-1.86-3.94,7.27,7.27,0,0,0-3.59-2.6,19,19,0,0,0-5.3-.61h-8.14v21.63a22.28,22.28,0,0,0,.46,5.12,4.63,4.63,0,0,0,1.78,2.84,7.53,7.53,0,0,0,3.6,1.25,59,59,0,0,0,6.51.28h4.42a45.84,45.84,0,0,0,4.63-.2,27.61,27.61,0,0,0,4-.74,6.15,6.15,0,0,0,2.92-1.45,32.68,32.68,0,0,0,4.91-7.4,49.34,49.34,0,0,0,3.27-7.29Z"/><path class="cls-6" d="M1916.45,426.71H1897q-6.45-10.12-11.66-17.49t-11.3-15.2h-7.39v22.87a8,8,0,0,0,.56,3.13,3.93,3.93,0,0,0,2.38,2.07,16.37,16.37,0,0,0,3.21.65,36.81,36.81,0,0,0,3.87.36v3.61h-30.51V423.1c.81-.07,2-.19,3.53-.36a12.28,12.28,0,0,0,3.23-.65,4.46,4.46,0,0,0,2.21-1.94,6.77,6.77,0,0,0,.69-3.26V364.73a9.11,9.11,0,0,0-.51-3.16,3.77,3.77,0,0,0-2.39-2.08,23.61,23.61,0,0,0-3.3-.84,33.09,33.09,0,0,0-3.46-.48v-3.61h33.3a37.32,37.32,0,0,1,8.59.94,23.57,23.57,0,0,1,7.28,3,15.45,15.45,0,0,1,5,5.32,15.68,15.68,0,0,1,1.88,7.9,19.85,19.85,0,0,1-1.27,7.38,15.27,15.27,0,0,1-3.76,5.54,22.52,22.52,0,0,1-5.49,3.79,41.21,41.21,0,0,1-7.08,2.72q5.35,7.06,8.88,11.89t8.67,11.75a24.49,24.49,0,0,0,4,4.5,21.34,21.34,0,0,0,3.59,2.37,12.37,12.37,0,0,0,3.3,1,25.17,25.17,0,0,0,3.31.4Zm-26.75-53.77q0-6.54-3.76-10.38t-10.63-3.83h-8.64v30.91h6.66a16.16,16.16,0,0,0,11.69-4.49C1888.14,382.15,1889.7,378.09,1889.7,372.94Z"/><path class="cls-6" d="M2005,405.46l-1.37,21.25h-59.89V423.1c1-.07,2.37-.21,4.06-.43a14.13,14.13,0,0,0,3.31-.69,4.61,4.61,0,0,0,2.26-2,6.64,6.64,0,0,0,.64-3.11V365a7.49,7.49,0,0,0-.56-3,4.35,4.35,0,0,0-2.34-2.11,17.32,17.32,0,0,0-3.69-1.17,27.92,27.92,0,0,0-3.68-.61v-3.61h55.82V372h-3.81a23.46,23.46,0,0,0-4.4-8.21q-3.37-4.35-6.43-4.76c-1-.13-2.3-.23-3.76-.3s-3.12-.1-5-.1h-11.34v28.67H1973a16,16,0,0,0,5.71-.74,7.6,7.6,0,0,0,3.18-2.46,13.15,13.15,0,0,0,1.91-3.94,25.23,25.23,0,0,0,1-4.65h3.82v28.27h-3.82a23,23,0,0,0-1.09-5.16,13.31,13.31,0,0,0-1.86-3.94,7.27,7.27,0,0,0-3.59-2.6,19,19,0,0,0-5.3-.61h-8.14v21.63a23,23,0,0,0,.45,5.12,4.69,4.69,0,0,0,1.79,2.84,7.53,7.53,0,0,0,3.6,1.25,59,59,0,0,0,6.51.28h4.42a45.84,45.84,0,0,0,4.63-.2,27.61,27.61,0,0,0,4-.74,6.15,6.15,0,0,0,2.92-1.45,32.68,32.68,0,0,0,4.91-7.4,50.45,50.45,0,0,0,3.27-7.29Z"/><path class="cls-6" d="M2081.5,391.06a34.74,34.74,0,0,1-3.46,16,32.7,32.7,0,0,1-9,11.07,38.9,38.9,0,0,1-12.56,6.46,48.64,48.64,0,0,1-14.39,2.14h-29.9V423.1a33.27,33.27,0,0,0,3.84-.28,12,12,0,0,0,3.12-.64,4.33,4.33,0,0,0,2.22-1.95,6.73,6.73,0,0,0,.69-3.13V365a7.86,7.86,0,0,0-.59-3.1,4.42,4.42,0,0,0-2.32-2.19,14.27,14.27,0,0,0-3.4-1.11,28.18,28.18,0,0,0-3.15-.46v-3.61h31.52a41.91,41.91,0,0,1,12.81,2,38.47,38.47,0,0,1,11,5.41,31.23,31.23,0,0,1,10,11.85A38.51,38.51,0,0,1,2081.5,391.06ZM2069,391a41.78,41.78,0,0,0-1.94-13.13,30.06,30.06,0,0,0-5.64-10.24,24.79,24.79,0,0,0-8.62-6.55,26.5,26.5,0,0,0-11.36-2.39c-1.39,0-3,0-4.71.08s-3,.09-3.88.12v55.43c0,3.08.89,5.22,2.69,6.4s4.56,1.78,8.29,1.78a26,26,0,0,0,11.28-2.29,20.43,20.43,0,0,0,7.84-6.35,28.54,28.54,0,0,0,4.6-9.88A52.47,52.47,0,0,0,2069,391Z"/><path class="cls-6" d="M2163.35,358.17a27.69,27.69,0,0,0-4.18.61,13,13,0,0,0-4.47,1.68q-1.72,1.17-2.39,4.83a51.43,51.43,0,0,0-.66,8.95v31.37a20.89,20.89,0,0,1-2.49,10.42,21.94,21.94,0,0,1-6.55,7.28,27.92,27.92,0,0,1-8.47,3.93,32.75,32.75,0,0,1-8.52,1.2,36.63,36.63,0,0,1-11.6-1.7,26.16,26.16,0,0,1-8.54-4.61,19.29,19.29,0,0,1-5.13-6.63,18.44,18.44,0,0,1-1.73-7.81V365a6.86,6.86,0,0,0-.58-3,5.57,5.57,0,0,0-2.37-2.21,11.79,11.79,0,0,0-3.25-1.14,24,24,0,0,0-3.26-.54v-3.61h30.06v3.61a24.43,24.43,0,0,0-3.59.46,22,22,0,0,0-3.18.76,3.64,3.64,0,0,0-2.31,2,8.07,8.07,0,0,0-.59,3.1v39.83a31.27,31.27,0,0,0,.64,6.07,15.73,15.73,0,0,0,2.52,5.92,14.68,14.68,0,0,0,5.38,4.57c2.27,1.19,5.4,1.79,9.36,1.79a21.92,21.92,0,0,0,9.38-1.79,15.64,15.64,0,0,0,6-4.67,17.5,17.5,0,0,0,2.94-5.74,21.59,21.59,0,0,0,.87-6.05V374.89a43.08,43.08,0,0,0-.81-9.23c-.55-2.39-1.35-4-2.39-4.7a14,14,0,0,0-4.86-2,32.23,32.23,0,0,0-4.7-.81v-3.61h29.49Z"/><path class="cls-6" d="M2200.9,428.44a31.09,31.09,0,0,1-12.37-2.54,32,32,0,0,1-10.5-7.33,35.77,35.77,0,0,1-7.21-11.68,42.53,42.53,0,0,1-2.69-15.54,44.47,44.47,0,0,1,2.64-15.7,36.77,36.77,0,0,1,7.32-12.13,32.12,32.12,0,0,1,10.92-7.79,33.34,33.34,0,0,1,13.46-2.75,32.58,32.58,0,0,1,9.65,1.33,36,36,0,0,1,8.23,3.71l2.08-3.46h4.07l.45,25.72h-4.16a59.71,59.71,0,0,0-2.44-8.15,31.05,31.05,0,0,0-3.81-7.45,18.49,18.49,0,0,0-5.79-5.42,15,15,0,0,0-7.67-2,19.68,19.68,0,0,0-9.16,2.19,20.81,20.81,0,0,0-7.34,6.46,31.89,31.89,0,0,0-4.62,10.49,55.61,55.61,0,0,0-1.67,14.2,43.85,43.85,0,0,0,1.74,12.69,32.76,32.76,0,0,0,5,10.15,24.23,24.23,0,0,0,7.69,6.77,20.27,20.27,0,0,0,9.93,2.45,21.26,21.26,0,0,0,7.57-1.31,20,20,0,0,0,6-3.43,26.83,26.83,0,0,0,4.47-5.08,28,28,0,0,0,3.15-6.2l3.81,1.83q-4.37,10.73-11.58,15.32A31.14,31.14,0,0,1,2200.9,428.44Z"/><path class="cls-6" d="M2303.28,426.71h-30V423.1a31.84,31.84,0,0,0,6.58-1c1.74-.52,2.61-1.14,2.61-1.89a7.3,7.3,0,0,0-.1-1.12,5.4,5.4,0,0,0-.3-1.17l-6-16.16h-25.33c-1,2.37-1.72,4.44-2.32,6.19s-1.13,3.4-1.6,4.88a36,36,0,0,0-.92,3.57,12.65,12.65,0,0,0-.25,2.24c0,1.35,1.06,2.4,3.2,3.14a25.13,25.13,0,0,0,7.22,1.33v3.61h-27.18V423.1a20.68,20.68,0,0,0,3.31-.59,10.86,10.86,0,0,0,3.26-1.29,12.92,12.92,0,0,0,3.15-2.88,19.21,19.21,0,0,0,2.19-4.14q5.43-13.57,12-30.51t11.69-30.14h4.06l24.06,62.23a12.06,12.06,0,0,0,1.73,3.2,11.74,11.74,0,0,0,2.69,2.39,11.32,11.32,0,0,0,3,1.2,15.33,15.33,0,0,0,3.16.53Zm-29-29.49-10.93-28-10.77,28Z"/><path class="cls-6" d="M2364.55,374.13H2361a24.07,24.07,0,0,0-1.66-4.34,40.56,40.56,0,0,0-2.67-4.76,24,24,0,0,0-3.34-4.09,6.66,6.66,0,0,0-3.49-2c-1.05-.13-2.37-.23-4-.3s-3.08-.11-4.44-.11h-2.95v57.71a6.62,6.62,0,0,0,.71,3.08,4.78,4.78,0,0,0,2.49,2.17,32.51,32.51,0,0,0,3.84,1,28.45,28.45,0,0,0,4.55.66v3.61H2316V423.1c.95-.07,2.4-.2,4.35-.4a17.26,17.26,0,0,0,4-.77,5,5,0,0,0,2.47-1.91,6.1,6.1,0,0,0,.78-3.33V358.52h-2.94c-1.06,0-2.36,0-3.92.08s-3.05.17-4.47.33a6.28,6.28,0,0,0-3.49,2,27.2,27.2,0,0,0-3.33,4.09,35.72,35.72,0,0,0-2.69,4.86,27.82,27.82,0,0,0-1.62,4.24h-3.57V354.56h62.9Z"/><path class="cls-6" d="M2401.82,426.71h-32.5V423.1l4-.31a14.21,14.21,0,0,0,3.67-.61,5.07,5.07,0,0,0,2.44-1.8,5.75,5.75,0,0,0,.76-3.18V364.94a7,7,0,0,0-.56-3,4.58,4.58,0,0,0-2.64-2,25.66,25.66,0,0,0-3.85-1.14,25.24,25.24,0,0,0-3.79-.64v-3.61h32.5v3.61a31.94,31.94,0,0,0-3.77.38,25.71,25.71,0,0,0-3.81.84,4,4,0,0,0-2.59,2,7,7,0,0,0-.66,3.05v52.22a6,6,0,0,0,.73,3,5.15,5.15,0,0,0,2.52,2.06,31.73,31.73,0,0,0,7.58,1.42Z"/><path class="cls-6" d="M2469.13,363.1a35.53,35.53,0,0,1,7.48,12,43.5,43.5,0,0,1,2.69,15.59,42.53,42.53,0,0,1-2.74,15.61,34.75,34.75,0,0,1-7.63,11.95,33,33,0,0,1-11,7.52,35.26,35.26,0,0,1-27.23-.17,32.23,32.23,0,0,1-10.95-7.86,35.75,35.75,0,0,1-7.2-12,42.84,42.84,0,0,1-2.62-15.08A42.17,42.17,0,0,1,2412.7,375a36.49,36.49,0,0,1,7.57-11.92,32.79,32.79,0,0,1,11.11-7.63,34.89,34.89,0,0,1,26.77.06A32.22,32.22,0,0,1,2469.13,363.1Zm-7.58,51.15a33.54,33.54,0,0,0,4.15-10.47,60.84,60.84,0,0,0,1.3-13.07,59.74,59.74,0,0,0-1.45-13.63,33.45,33.45,0,0,0-4.25-10.57,20.32,20.32,0,0,0-7-6.74,19.13,19.13,0,0,0-9.66-2.41,18.58,18.58,0,0,0-10.38,2.79,21.78,21.78,0,0,0-7,7.48,35.62,35.62,0,0,0-3.79,10.47,61.92,61.92,0,0,0-1.25,12.61,60.66,60.66,0,0,0,1.33,13.22,33.46,33.46,0,0,0,4.17,10.47,20.37,20.37,0,0,0,6.91,7,18.82,18.82,0,0,0,10,2.53,19.14,19.14,0,0,0,9.81-2.55A19.88,19.88,0,0,0,2461.55,414.25Z"/><path class="cls-6" d="M2562.38,358.17a22.42,22.42,0,0,0-4.37.81,15.59,15.59,0,0,0-4.21,1.58q-1.85,1.28-2.47,4.88a53.65,53.65,0,0,0-.64,9.15v52.83h-4.42l-43.73-59v37.22a44.39,44.39,0,0,0,.79,9.61,8.91,8.91,0,0,0,2.41,4.78q1.17,1.11,4.83,2.09a29.37,29.37,0,0,0,4.83,1v3.61h-29.59V423.1a28.94,28.94,0,0,0,4.63-1,12.33,12.33,0,0,0,4.06-1.6,7.43,7.43,0,0,0,2.44-4.35,51.47,51.47,0,0,0,.67-10V370.63a14,14,0,0,0-.82-4.68,8.75,8.75,0,0,0-2.18-3.61,15.41,15.41,0,0,0-5-2.88,17.85,17.85,0,0,0-5.06-1.29v-3.61h20.62l40.54,55V375.25a44.06,44.06,0,0,0-.81-9.68c-.54-2.26-1.31-3.76-2.33-4.51a17.32,17.32,0,0,0-4.66-1.87,25.67,25.67,0,0,0-4.9-1v-3.61h29.33Z"/><rect class="cls-3" x="590.62" y="292.55" width="1971.78" height="3.47"/></g></g></svg>